<svg width="56" height="56" viewBox="0 0 56 56" fill="none" xmlns="http://www.w3.org/2000/svg">
<path d="M46.6115 19.8875L39.8457 12.3713C39.7582 12.2745 39.6315 12.217 39.5003 12.217H33.1654C32.9075 12.217 32.7002 12.4242 32.7002 12.6821V25.9668H27.8575V18.4252C27.8575 18.257 27.7677 18.1005 27.6203 18.0199C27.017 17.6814 26.4067 17.3866 25.7942 17.1195V15.1852C25.7942 15.0194 25.7067 14.8674 25.5616 14.7822C24.9099 14.4023 24.2467 14.0868 23.572 13.8174V11.7679C23.572 11.6021 23.4845 11.4501 23.3394 11.3649C21.8817 10.5175 20.3458 10.0753 18.7431 10.0247V5.46516C18.7431 5.20725 18.5358 5 18.2779 5C18.02 5 17.8127 5.20725 17.8127 5.46516V10.0339C16.3067 10.1306 14.7454 10.5681 13.1358 11.3465C12.9746 11.4248 12.8733 11.586 12.8733 11.7656V13.8865C12.1917 14.1352 11.5054 14.4253 10.81 14.7615C10.6488 14.8398 10.5475 15.001 10.5475 15.1807V17.3982C10.1168 17.587 9.68624 17.7874 9.25561 18.0061C9.09901 18.0844 9 18.2456 9 18.4206V51.0648C9 51.3228 9.20725 51.53 9.46516 51.53H46.2637C46.5216 51.53 46.7288 51.3228 46.7288 51.0648V20.1939C46.7288 20.0787 46.6874 19.9682 46.6091 19.883L46.6115 19.8875ZM26.9248 33.8702C21.5386 31.1091 15.8302 31.1206 9.93033 33.9024V29.6814C15.8508 26.7661 21.5661 26.7615 26.9248 29.6699V33.8702ZM9.93033 34.9318C15.8508 32.0164 21.5661 32.0118 26.9248 34.9202V39.2264C21.5432 37.3036 15.8325 37.3105 9.93033 39.2472V34.9318ZM26.9248 26.4345V28.6199C21.5386 25.8588 15.8302 25.8703 9.93033 28.6521V24.4311C15.8508 21.5158 21.5661 21.5112 26.9248 24.4196V26.4368V26.4345ZM9.93033 40.2262C15.8484 38.2228 21.5614 38.2205 26.9248 40.2169V45.5755C21.5432 44.18 15.8349 44.1846 9.93033 45.5893V40.2262ZM13.8036 12.0652C15.3626 11.3444 16.8409 10.9736 18.2595 10.9438C18.2664 10.9438 18.271 10.9484 18.2779 10.9484C18.2871 10.9484 18.294 10.9438 18.3032 10.9438C19.8116 10.9207 21.2508 11.2846 22.6394 12.0445V13.4883C19.853 12.5995 16.8985 12.6248 13.8038 13.5804L13.8036 12.0652ZM11.4778 15.4779C16.3182 13.2097 20.8157 13.2005 24.8591 15.4549V16.7422C20.5668 15.1256 16.0831 15.2131 11.4778 17.0162V15.4779ZM26.9248 18.6995V23.3672C21.5386 20.6062 15.8302 20.6177 9.93033 23.3995V18.7133C15.8508 15.798 21.5661 15.7934 26.9248 18.6995ZM9.93033 46.5404C15.8461 45.0988 21.5596 45.0965 26.9248 46.5312V50.6024H9.93033V46.538V46.5404ZM33.163 50.6048H27.8551V26.8975H38.7033V50.6048H33.163ZM39.6341 50.6048V26.4324C39.6341 26.1745 39.4268 25.9672 39.1689 25.9672H33.6284V13.1477H39.291L45.7962 20.3763V50.6047H39.6317L39.6341 50.6048ZM38.6416 15.6921H35.9727C35.7147 15.6921 35.5075 15.8993 35.5075 16.1573V18.4048C35.5075 18.6627 35.7147 18.8699 35.9727 18.8699H38.6416C38.8995 18.8699 39.1067 18.6627 39.1067 18.4048V16.1573C39.1067 15.8993 38.8995 15.6921 38.6416 15.6921ZM38.1764 17.9396H36.4378V16.6224H38.1764V17.9396ZM38.6416 20.7513H35.9727C35.7147 20.7513 35.5075 20.9585 35.5075 21.2164V23.464C35.5075 23.7219 35.7147 23.9291 35.9727 23.9291H38.6416C38.8995 23.9291 39.1067 23.7219 39.1067 23.464V21.2164C39.1067 20.9585 38.8995 20.7513 38.6416 20.7513ZM38.1764 22.9988H36.4378V21.6816H38.1764V22.9988ZM43.3139 20.7513H40.645C40.3871 20.7513 40.1798 20.9585 40.1798 21.2164V23.464C40.1798 23.7219 40.3871 23.9291 40.645 23.9291H43.3139C43.5718 23.9291 43.779 23.7219 43.779 23.464V21.2164C43.779 20.9585 43.5718 20.7513 43.3139 20.7513ZM42.8487 22.9988H41.1101V21.6816H42.8487V22.9988ZM32.3247 35.1251H29.8631C29.6052 35.1251 29.3979 35.3323 29.3979 35.5902V38.0588C29.3979 38.3167 29.6052 38.524 29.8631 38.524H32.3247C32.5827 38.524 32.7899 38.3167 32.7899 38.0588V35.5902C32.7899 35.3323 32.5827 35.1251 32.3247 35.1251ZM31.8596 37.5936H30.3305V36.0554H31.8596V37.5936ZM36.6333 35.1251H34.1716C33.9137 35.1251 33.7064 35.3323 33.7064 35.5902V38.0588C33.7064 38.3167 33.9137 38.524 34.1716 38.524H36.6333C36.8912 38.524 37.0984 38.3167 37.0984 38.0588V35.5902C37.0984 35.3323 36.8912 35.1251 36.6333 35.1251ZM36.1681 37.5936H34.639V36.0554H36.1681V37.5936ZM32.3271 40.6817H29.8654C29.6075 40.6817 29.4002 40.8889 29.4002 41.1468V43.6154C29.4002 43.8733 29.6075 44.0806 29.8654 44.0806H32.3271C32.585 44.0806 32.7923 43.8733 32.7923 43.6154V41.1468C32.7923 40.8889 32.585 40.6817 32.3271 40.6817ZM31.8619 43.1503H30.3329V41.612H31.8619V43.1503ZM36.6356 40.6817H34.1739C33.916 40.6817 33.7088 40.8889 33.7088 41.1468V43.6154C33.7088 43.8733 33.916 44.0806 34.1739 44.0806H36.6356C36.8935 44.0806 37.1008 43.8733 37.1008 43.6154V41.1468C37.1008 40.8889 36.8935 40.6817 36.6356 40.6817ZM36.1705 43.1503H34.6414V41.612H36.1705V43.1503ZM32.3294 29.5661H29.8678C29.6098 29.5661 29.4026 29.7734 29.4026 30.0313V32.4999C29.4026 32.7578 29.6098 32.965 29.8678 32.965H32.3294C32.5874 32.965 32.7946 32.7578 32.7946 32.4999V30.0313C32.7946 29.7734 32.5874 29.5661 32.3294 29.5661ZM31.8643 32.0347H30.3352V30.4964H31.8643V32.0347ZM36.638 29.5661H34.1763C33.9184 29.5661 33.7111 29.7734 33.7111 30.0313V32.4999C33.7111 32.7578 33.9184 32.965 34.1763 32.965H36.638C36.8959 32.965 37.1031 32.7578 37.1031 32.4999V30.0313C37.1031 29.7734 36.8959 29.5661 36.638 29.5661ZM36.1728 32.0347H34.6437V30.4964H36.1728V32.0347ZM43.3183 25.8083H40.6494C40.3915 25.8083 40.1842 26.0155 40.1842 26.2735V28.521C40.1842 28.7789 40.3915 28.9861 40.6494 28.9861H43.3183C43.5762 28.9861 43.7834 28.7789 43.7834 28.521V26.2735C43.7834 26.0155 43.5762 25.8083 43.3183 25.8083ZM42.8531 28.0558H41.1145V26.7386H42.8531V28.0558ZM43.3183 30.8675H40.6494C40.3915 30.8675 40.1842 31.0747 40.1842 31.3326V33.5802C40.1842 33.8381 40.3915 34.0453 40.6494 34.0453H43.3183C43.5762 34.0453 43.7834 33.8381 43.7834 33.5802V31.3326C43.7834 31.0747 43.5762 30.8675 43.3183 30.8675ZM42.8531 33.115H41.1145V31.7978H42.8531V33.115ZM43.3183 35.9267H40.6494C40.3915 35.9267 40.1842 36.1339 40.1842 36.3918V38.6393C40.1842 38.8973 40.3915 39.1045 40.6494 39.1045H43.3183C43.5762 39.1045 43.7834 38.8973 43.7834 38.6393V36.3918C43.7834 36.1339 43.5762 35.9267 43.3183 35.9267ZM42.8531 38.1742H41.1145V36.857H42.8531V38.1742ZM43.3183 40.9859H40.6494C40.3915 40.9859 40.1842 41.1931 40.1842 41.451V43.6985C40.1842 43.9564 40.3915 44.1637 40.6494 44.1637H43.3183C43.5762 44.1637 43.7834 43.9564 43.7834 43.6985V41.451C43.7834 41.1931 43.5762 40.9859 43.3183 40.9859ZM42.8531 43.2334H41.1145V41.9162H42.8531V43.2334Z" fill="#1D3D91"/>
</svg>
