<svg width="56" height="56" viewBox="0 0 56 56" fill="none" xmlns="http://www.w3.org/2000/svg">
<path d="M53.0813 22.8461L46.8567 16.9748C46.3586 16.4993 45.7478 16.2648 45.0548 16.2648H31.4711L28.517 13.1544V10.1356C29.4158 9.79667 30.1414 9.98854 30.9687 10.2124C31.4906 10.3552 32.0559 10.5066 32.6753 10.5066C33.0738 10.5066 33.4961 10.4469 33.9445 10.2763C34.1502 10.1996 34.2823 10.0099 34.2823 9.79666L34.2802 5.85688C34.2802 5.68846 34.1979 5.53496 34.0592 5.4369C33.9206 5.33883 33.743 5.31751 33.5828 5.37081C32.8789 5.62237 32.3288 5.46461 31.6358 5.26208C30.8366 5.02757 29.8663 4.75469 28.5192 5.13204L28.5214 4.51379C28.5214 4.23025 28.2875 4 27.9994 4C27.7114 4 27.4775 4.23025 27.4775 4.51379V13.1544L24.5234 16.2648H10.9398C10.2467 16.2648 9.6425 16.5057 9.13785 16.9747L2.91765 22.8461C2.51915 23.2235 2.39137 23.7948 2.59712 24.3043C2.80287 24.8117 3.29665 25.14 3.85109 25.14H5.73095V48.8874L4.44234 48.8853C3.86622 48.8853 3.40061 49.3437 3.40061 49.9107V50.9746C3.40061 51.5417 3.86624 52 4.44234 52H51.5582C52.1343 52 52.5999 51.5416 52.5999 50.9746V49.9107C52.5999 49.3436 52.1343 48.8853 51.5582 48.8853H50.2674L50.2652 25.1401H52.1451C52.6995 25.1401 53.1933 24.8118 53.3991 24.3044C53.6092 23.797 53.4857 23.2235 53.0807 22.8462L53.0813 22.8461ZM38.1853 48.8852H35.1424L35.1403 40.0334C35.8051 39.9524 36.3206 39.3938 36.3206 38.718V37.9868C36.3206 37.2491 35.7164 36.6544 34.967 36.6544H21.0302C20.2808 36.6544 19.6766 37.2491 19.6766 37.9868V38.718C19.6766 39.3938 20.192 39.9524 20.8569 40.0334V48.8809H17.814V24.8289L27.9995 14.1035L38.185 24.8267L38.1853 48.8852ZM34.9692 39.0292H21.0301C20.859 39.0292 20.7204 38.8928 20.7204 38.7243V37.9931C20.7204 37.8247 20.859 37.6883 21.0301 37.6883H34.9692C35.1403 37.6883 35.2789 37.8247 35.2789 37.9931V38.7243C35.2789 38.8928 35.1403 39.0292 34.9692 39.0292ZM21.9011 40.0546H27.4782V48.8852H21.9011V40.0546ZM28.5216 40.0546H34.0987V48.8852H28.5216V40.0546ZM31.3436 6.24493C31.9305 6.41974 32.5347 6.59455 33.2516 6.50715V9.42144C32.5521 9.5792 31.9435 9.41504 31.2505 9.22957C30.4578 9.01638 29.5763 8.78827 28.5281 9.07181V6.21717C29.7301 5.78653 30.5163 6.00402 31.3436 6.24493ZM3.56144 23.9229C3.51163 23.8035 3.53978 23.6777 3.63291 23.5839L9.85921 17.7169C10.1646 17.427 10.5198 17.2905 10.9399 17.2905H23.5466L17.0709 24.1126H3.8487C3.71442 24.1126 3.61046 24.0486 3.56065 23.9229H3.56144ZM6.77544 25.1402H16.7769V48.8876L6.77544 48.8855V25.1402ZM51.5571 50.9703H4.44127V49.9065H51.5571V50.9703ZM49.2246 48.8853H39.221V25.14H49.2224L49.2246 48.8853ZM52.4386 23.923C52.3888 24.0424 52.2827 24.1148 52.1506 24.1148L38.9284 24.1127L32.4465 17.2906H45.0533C45.4756 17.2906 45.8286 17.4335 46.134 17.717L52.3603 23.584C52.4621 23.6757 52.4906 23.8015 52.4386 23.923ZM13.8622 27.1486H9.6931C9.00654 27.1486 8.44562 27.7007 8.44562 28.3765V31.5041C8.44562 32.1799 9.00654 32.732 9.6931 32.732H13.8622C14.5487 32.732 15.1096 32.1799 15.1096 31.5041V28.3765C15.1096 27.6986 14.5487 27.1486 13.8622 27.1486ZM14.0679 31.5041C14.0679 31.6192 13.9726 31.7109 13.8578 31.7109H9.68876C9.57181 31.7109 9.47868 31.6171 9.47868 31.5041V28.3765C9.47868 28.2614 9.57398 28.1697 9.68876 28.1697H13.8578C13.9748 28.1697 14.0679 28.2636 14.0679 28.3765V31.5041ZM13.8622 34.2159H9.6931C9.00654 34.2159 8.44562 34.768 8.44562 35.4438V38.5714C8.44562 39.2472 9.00654 39.7993 9.6931 39.7993H13.8622C14.5487 39.7993 15.1096 39.2472 15.1096 38.5714V35.4438C15.1096 34.7723 14.5487 34.2159 13.8622 34.2159ZM14.0679 38.5756C14.0679 38.6907 13.9726 38.7824 13.8578 38.7824H9.68876C9.57181 38.7824 9.47868 38.6886 9.47868 38.5756V35.4481C9.47868 35.333 9.57398 35.2413 9.68876 35.2413H13.8578C13.9748 35.2413 14.0679 35.3351 14.0679 35.4481V38.5756ZM13.8622 41.2896H9.6931C9.00654 41.2896 8.44562 41.8417 8.44562 42.5175V45.6451C8.44562 46.3209 9.00654 46.873 9.6931 46.873H13.8622C14.5487 46.873 15.1096 46.3209 15.1096 45.6451V42.5175C15.1096 41.8396 14.5487 41.2896 13.8622 41.2896ZM14.0679 45.6493C14.0679 45.7644 13.9726 45.8561 13.8578 45.8561H9.68876C9.57181 45.8561 9.47868 45.7623 9.47868 45.6493V42.5218C9.47868 42.4067 9.57398 42.315 9.68876 42.315H13.8578C13.9748 42.315 14.0679 42.4088 14.0679 42.5218V45.6493ZM42.1384 32.7321H46.3075C46.994 32.7321 47.5549 32.1799 47.5549 31.5041V28.3766C47.5549 27.7008 46.994 27.1486 46.3075 27.1486H42.1384C41.4518 27.1486 40.8909 27.7008 40.8909 28.3766V31.5041C40.8909 32.1799 41.4518 32.7321 42.1384 32.7321ZM41.9326 28.3766C41.9326 28.2615 42.0279 28.1698 42.1427 28.1698H46.3118C46.4287 28.1698 46.5219 28.2636 46.5219 28.3766V31.5041C46.5219 31.6192 46.4266 31.7109 46.3118 31.7109H42.1384C42.0214 31.7109 41.9283 31.6171 41.9283 31.5041V28.3766H41.9326ZM42.1384 39.8039H46.3075C46.994 39.8039 47.5549 39.2517 47.5549 38.5759V35.4484C47.5549 34.7726 46.994 34.2204 46.3075 34.2204H42.1384C41.4518 34.2204 40.8909 34.7726 40.8909 35.4484V38.5759C40.8909 39.2538 41.4518 39.8039 42.1384 39.8039ZM41.9326 35.4484C41.9326 35.3333 42.0279 35.2416 42.1427 35.2416H46.3118C46.4287 35.2416 46.5219 35.3354 46.5219 35.4484V38.5759C46.5219 38.691 46.4266 38.7827 46.3118 38.7827L42.1384 38.7848C42.0214 38.7848 41.9283 38.691 41.9283 38.578V35.4484L41.9326 35.4484ZM42.1384 46.8773H46.3075C46.994 46.8773 47.5549 46.3251 47.5549 45.6493V42.5218C47.5549 41.846 46.994 41.2938 46.3075 41.2938H42.1384C41.4518 41.2938 40.8909 41.846 40.8909 42.5218V45.6493C40.8909 46.3251 41.4518 46.8773 42.1384 46.8773ZM41.9326 42.5218C41.9326 42.4067 42.0279 42.315 42.1427 42.315H46.3118C46.4287 42.315 46.5219 42.4088 46.5219 42.5218V45.6493C46.5219 45.7644 46.4266 45.8561 46.3118 45.8561H42.1384C42.0214 45.8561 41.9283 45.7623 41.9283 45.6493V42.5218H41.9326ZM26.1379 29.031H21.9688C21.2823 29.031 20.7214 29.5831 20.7214 30.2589V33.3865C20.7214 34.0623 21.2823 34.6144 21.9688 34.6144H26.1379C26.8245 34.6144 27.3854 34.0623 27.3854 33.3865V30.2589C27.3854 29.581 26.8245 29.031 26.1379 29.031ZM26.348 33.3907C26.348 33.5058 26.2527 33.5975 26.1379 33.5975H21.9688C21.8519 33.5975 21.7588 33.5037 21.7588 33.3907V30.2632C21.7588 30.1481 21.854 30.0564 21.9688 30.0564H26.1379C26.2549 30.0564 26.348 30.1502 26.348 30.2632V33.3907ZM28.6155 30.2589V33.3865C28.6155 34.0623 29.1764 34.6144 29.863 34.6144H34.0321C34.7186 34.6144 35.2795 34.0623 35.2795 33.3865V30.2589C35.2795 29.5831 34.7186 29.031 34.0321 29.031H29.863C29.1764 29.031 28.6155 29.581 28.6155 30.2589ZM34.2441 30.2589V33.3865C34.2441 33.5016 34.1488 33.5933 34.0341 33.5933H29.865C29.748 33.5933 29.6549 33.4995 29.6549 33.3865V30.2589C29.6549 30.1438 29.7502 30.0522 29.865 30.0522H34.0341C34.1488 30.0564 34.2441 30.1502 34.2441 30.2589ZM24.2793 23.5029C24.2793 25.5218 25.9491 27.1655 28 27.1655C30.051 27.1655 31.7208 25.5218 31.7208 23.5029C31.7208 21.484 30.051 19.8403 28 19.8403C25.9491 19.8403 24.2793 21.4819 24.2793 23.5029ZM30.6769 23.5029C30.6769 24.9547 29.4727 26.1379 28 26.1379C26.5251 26.1379 25.3232 24.9526 25.3232 23.5029C25.3232 22.0511 26.5273 20.8679 28 20.8679C29.4749 20.8657 30.6769 22.0511 30.6769 23.5029ZM27.8225 22.923L28.7645 21.8485C28.953 21.6353 29.28 21.6076 29.4966 21.7931C29.7131 21.9786 29.7413 22.3005 29.5529 22.5137L28.3942 23.8355C28.2946 23.9506 28.1495 24.0145 28 24.0145C27.9567 24.0145 27.9048 24.0081 27.8614 23.9932L26.6464 23.6542C26.3692 23.5775 26.209 23.2939 26.2869 23.021C26.3649 22.7481 26.6529 22.5904 26.9302 22.6671L27.8225 22.923Z" fill="#1D3D91"/>
</svg>
