<svg width="57" height="56" viewBox="0 0 57 56" fill="none" xmlns="http://www.w3.org/2000/svg">
<g clip-path="url(#clip0_5249_3875)">
<path d="M53.6753 47.2373H52.8993V11.4023C52.8993 11.1713 52.7117 10.9865 52.4831 10.9865H44.1219C43.8907 10.9865 43.7057 11.1738 43.7057 11.4023V19.2828L43.107 19.098C43.0864 19.0903 43.0658 19.0955 43.0453 19.0929C43.0247 19.0903 43.0068 19.0801 42.9836 19.0801H38.9161V10.9478C38.9161 10.9427 38.9136 10.9376 38.9136 10.9324C38.911 10.9016 38.9033 10.876 38.8956 10.8451C38.8879 10.822 38.8853 10.7964 38.875 10.7733C38.8647 10.7502 38.8493 10.7322 38.8339 10.7117C38.8159 10.6886 38.8005 10.6629 38.7799 10.6424C38.7748 10.6372 38.7748 10.6321 38.7697 10.6295L33.6667 6.27846C33.6513 6.26563 33.6333 6.26049 33.6153 6.25022C33.5896 6.23482 33.5665 6.21685 33.5382 6.20659C33.5099 6.19632 33.4817 6.19375 33.4534 6.18862C33.4329 6.18605 33.4174 6.17578 33.3969 6.17578H22.8953C22.8747 6.17578 22.8568 6.18605 22.8362 6.18862C22.8054 6.19375 22.7745 6.19632 22.7463 6.20659C22.718 6.21685 22.6949 6.23482 22.6692 6.25279C22.6512 6.26306 22.6332 6.27076 22.6178 6.2836L17.782 10.6347C17.782 10.6347 17.7769 10.6398 17.7743 10.6424C17.7512 10.6629 17.7357 10.6911 17.7178 10.7168C17.7049 10.7373 17.6869 10.7527 17.6792 10.7758C17.6689 10.7964 17.6689 10.8195 17.6638 10.84C17.6561 10.8708 17.6458 10.9016 17.6458 10.9324C17.6458 10.9376 17.6432 10.9401 17.6432 10.9427V19.0105H13.8789C13.8789 19.0105 13.8764 19.0131 13.8738 19.0131C13.8481 19.0131 13.8198 19.0233 13.7941 19.0285C13.7659 19.0336 13.7376 19.0362 13.7145 19.0465C13.7119 19.0465 13.7093 19.0465 13.7093 19.049L3.45443 23.7235C3.43644 23.7312 3.4236 23.7466 3.40818 23.7569C3.37992 23.7749 3.35165 23.7903 3.32853 23.8159C3.31054 23.8365 3.29769 23.8596 3.28485 23.8827C3.26943 23.9058 3.25401 23.9263 3.24373 23.952C3.23089 23.9828 3.22832 24.0136 3.22575 24.047C3.22318 24.0675 3.2129 24.0855 3.2129 24.106V47.237H2.65789C2.42664 47.237 2.24164 47.4244 2.24164 47.6529V49.6346C2.24164 49.8656 2.42921 50.0504 2.65789 50.0504H53.6772C53.9085 50.0504 54.0935 49.863 54.0935 49.6346V47.6529C54.0935 47.4218 53.9085 47.237 53.6772 47.237L53.6753 47.2373ZM44.538 11.8183H52.0663V47.2373H49.2502V21.295C49.2502 21.2873 49.2451 21.2822 49.2451 21.2745C49.2425 21.2437 49.2348 21.218 49.2271 21.1898C49.2194 21.1667 49.2168 21.141 49.2065 21.1179C49.1937 21.0948 49.1783 21.0743 49.1629 21.0512C49.1474 21.0306 49.132 21.0075 49.114 20.9896C49.0961 20.9716 49.0729 20.9613 49.0524 20.9485C49.0267 20.9331 49.0036 20.9177 48.9779 20.9074C48.9702 20.9049 48.965 20.8997 48.9599 20.8972L44.5403 19.5392V11.8177L44.538 11.8183ZM46.2235 47.2373V43.7205L48.4179 44.0671V47.2373L46.2235 47.2373ZM44.1217 47.2373H43.3997V43.2765L45.391 43.5897V47.2374L44.1217 47.2373ZM45.391 20.6714V23.7595L43.3997 23.1254V20.0604L45.391 20.6739V20.6714ZM43.3997 31.3323L45.391 31.8894V34.7875L43.3997 34.3101V31.3298V31.3323ZM46.2236 32.123L48.4179 32.7365V35.5114L46.2236 34.9852V32.1204V32.123ZM48.4179 31.874L46.2236 31.2605V28.5497L48.4179 29.2248V31.874ZM45.391 31.0268L43.3997 30.4698V27.682L45.391 28.2955V31.0294V31.0268ZM43.3997 35.17L45.391 35.6474V38.9024L43.3997 38.4711V35.17ZM46.2236 35.8451L48.4179 36.3713V39.5595L46.2236 39.0821V35.8451ZM48.4179 28.3549L46.2236 27.6798V24.8997L48.4179 25.5979V28.3549ZM45.391 27.423L43.3997 26.8095V23.9987L45.391 24.6327V27.423ZM43.3997 39.3187L45.391 39.75V42.7457L43.3997 42.4325V39.3187ZM46.2236 39.9323L48.4179 40.4097V43.2257L46.2236 42.8792V39.9323ZM48.4179 24.7225L46.2236 24.0243V20.9285L48.4179 21.6036V24.7251V24.7225ZM42.5672 19.912V47.2376H40.7737V36.7258C40.7737 36.5744 40.6915 36.4332 40.5579 36.3613L38.9262 35.4654V25.208C38.9262 25.1849 38.9314 25.1618 38.9262 25.1387V19.9123L42.5672 19.912ZM35.1954 47.2376V34.3667L39.9412 36.9696V47.2375L35.1954 47.2376ZM29.7558 47.2376H26.5748V41.0743H29.7558V47.2376ZM30.1721 40.2422H26.1585C25.9273 40.2422 25.7423 40.4296 25.7423 40.6581V47.2375H21.9651V34.0794H34.3631V47.2375H30.5885V40.6581C30.5885 40.4271 30.4033 40.2422 30.1721 40.2422ZM16.3868 47.2376V36.9696L21.1326 34.3667V47.2377L16.3868 47.2376ZM34.9799 33.2988C34.9721 33.2962 34.967 33.2962 34.9593 33.2937C34.9336 33.2808 34.9079 33.2757 34.8796 33.268C34.854 33.2603 34.8257 33.2526 34.8 33.2526C34.7923 33.2526 34.7871 33.2474 34.7794 33.2474H33.8133V28.9118L38.094 32.0974V35.0058L34.9799 33.2988ZM23.3146 33.2474V28.4703H32.9835V33.2474H23.3146ZM18.4788 19.4322V18.4618L22.4821 15.3172V21.2188L18.4788 24.3634V19.4322ZM38.0941 25.6161V31.0633L33.8133 27.8776V22.2251L38.0838 25.4056V25.5724C38.0838 25.5878 38.0915 25.6033 38.0941 25.6161ZM33.8133 21.1855V15.2891L38.0838 18.4695V24.3659L33.8133 21.1855ZM32.9808 27.6389H23.312V21.822H32.9808V27.6389ZM18.476 25.421L22.4792 22.2764V27.8442L18.476 30.9888V25.421ZM38.084 17.43L33.8135 14.2496V7.49868L38.084 11.1387V17.43ZM32.981 20.9905H23.3121V14.8759H32.981V20.9905ZM22.4794 14.2573L18.4762 17.4019V11.1333L22.4794 7.5318V14.2573ZM18.4762 32.0464L22.4794 28.9018V33.2477H21.5492C21.5415 33.2477 21.5364 33.2528 21.5287 33.2528C21.5004 33.2554 21.4747 33.2631 21.449 33.2682C21.4207 33.2759 21.395 33.2811 21.3693 33.2939C21.3616 33.2965 21.3565 33.2965 21.3488 33.2991L18.4761 34.8752L18.4762 32.0464ZM32.981 7.01291V14.0438H23.3122V7.01291H32.981ZM17.6441 20.4332V35.3348L15.7709 36.3616C15.6373 36.4334 15.555 36.5746 15.555 36.7261V47.2378H14.2985V19.8478H17.6465V20.4331L17.6441 20.4332ZM13.4635 30.3338L4.04396 33.2679V30.7908L13.4635 27.5948V30.3338ZM4.04396 34.1382L13.4635 31.2041V34.2126L4.04396 36.6949V34.1382ZM13.4635 26.7143L4.04396 29.9102V27.5768L13.4635 23.942V26.7143ZM4.04396 37.5547L13.4635 35.0724V38.3992L4.04396 40.5273V37.5547ZM13.4635 23.0487L4.04396 26.6836V24.3733L13.4635 20.0787V23.0512V23.0487ZM4.04396 41.3799L13.4635 39.2519V42.7994L4.04396 43.893V41.3799ZM4.04396 44.7299L13.4635 43.6363V47.2353H4.04396V44.7299Z" fill="#1D3D91"/>
<path d="M3.57086 47.3914L50.1046 47.4515V50.0504H3.65025L3.57086 47.3914Z" fill="#1D3D91"/>
<g clip-path="url(#clip1_5249_3875)">
<path d="M47.8959 13.5483H46.6053C46.4028 13.5483 46.2366 13.7119 46.2366 13.9171V15.2077C46.2366 15.4102 46.4002 15.5764 46.6053 15.5764H47.8959C48.0984 15.5764 48.2646 15.4128 48.2646 15.2077V13.9171C48.2646 13.7145 48.101 13.5483 47.8959 13.5483ZM47.5272 14.8389H46.974V14.2858H47.5272V14.8389ZM47.8959 16.1295H46.6053C46.4028 16.1295 46.2366 16.2931 46.2366 16.4982V17.7888C46.2366 17.9914 46.4002 18.1576 46.6053 18.1576H47.8959C48.0984 18.1576 48.2646 17.994 48.2646 17.7888V16.4982C48.2646 16.2957 48.101 16.1295 47.8959 16.1295ZM47.5272 17.4201H46.974V16.867H47.5272V17.4201ZM49.1839 15.5764H50.4745C50.677 15.5764 50.8432 15.4128 50.8432 15.2077V13.9171C50.8432 13.7145 50.6796 13.5484 50.4745 13.5484H49.1839C48.9813 13.5484 48.8151 13.7119 48.8151 13.9171V15.2077C48.8151 15.4102 48.9787 15.5764 49.1839 15.5764ZM49.5526 14.2858H50.1057V14.8389H49.5526V14.2858ZM50.4745 18.155C50.677 18.155 50.8432 17.9914 50.8432 17.7862V16.4957C50.8432 16.2931 50.6796 16.1269 50.4745 16.1269H49.1839C48.9813 16.1269 48.8151 16.2905 48.8151 16.4957V17.7862C48.8151 17.9888 48.9787 18.155 49.1839 18.155H50.4745ZM49.5526 16.8644H50.1057V17.4175H49.5526V16.8644Z" fill="#1D3D91"/>
</g>
</g>
<defs>
<clipPath id="clip0_5249_3875">
<rect width="52.5166" height="46.5337" fill="white" transform="translate(1.5769 4.84619)"/>
</clipPath>
<clipPath id="clip1_5249_3875">
<rect width="4.65337" height="4.65337" fill="white" transform="translate(46.1167 13.488)"/>
</clipPath>
</defs>
</svg>
