<svg width="60" height="48" viewBox="0 0 60 48" fill="none" xmlns="http://www.w3.org/2000/svg">
<path d="M51.1209 0H8.9016C4.41987 0 0.78241 3.63732 0.78241 8.11919V31.935C0.78241 36.4167 4.41973 40.0542 8.9016 40.0542H24.2192L29.1015 47.502C29.1015 47.502 29.1015 47.5129 29.1123 47.5237C29.1881 47.6319 29.2747 47.7077 29.3721 47.7835C29.3829 47.7835 29.3938 47.8051 29.4046 47.816C29.4154 47.816 29.4371 47.8268 29.4479 47.8376C29.502 47.8701 29.567 47.9026 29.6319 47.9242C29.6644 47.935 29.6861 47.9459 29.7185 47.9567C29.8051 47.9783 29.8917 47.9892 29.9892 48H30H30.0108C30.0974 48 30.1948 47.9892 30.2814 47.9567C30.3139 47.9567 30.3356 47.935 30.368 47.9242C30.433 47.9026 30.4979 47.8701 30.5521 47.8376C30.5629 47.8376 30.5845 47.8376 30.5954 47.816C30.6062 47.816 30.617 47.7943 30.6278 47.7835C30.7253 47.7185 30.8119 47.6319 30.8877 47.5237C30.8877 47.5237 30.8877 47.5129 30.8985 47.502L35.7807 40.0542H51.0984C55.5801 40.0542 59.2176 36.4169 59.2176 31.935V8.11919C59.2176 3.63746 55.5802 0 51.0984 0H51.1209ZM57.0748 31.935C57.0748 35.2151 54.401 37.889 51.1209 37.889H35.2185C35.2185 37.889 35.1535 37.9106 35.1102 37.9106C35.0345 37.9106 34.9695 37.9323 34.9046 37.9539C34.8396 37.9756 34.7747 37.9972 34.7097 38.0297C34.6556 38.0622 34.6014 38.0947 34.5473 38.138C34.4824 38.1813 34.4391 38.2354 34.3849 38.3003C34.3633 38.3328 34.3308 38.3436 34.3091 38.3761L30.0115 44.9254L25.7138 38.3761C25.7138 38.3761 25.6597 38.3328 25.6381 38.3003C25.5948 38.2462 25.5406 38.1921 25.4757 38.138C25.4216 38.0947 25.3674 38.0622 25.3133 38.0297C25.2483 37.9972 25.1834 37.9648 25.1184 37.9431C25.0535 37.9215 24.9777 37.9106 24.9128 37.8998C24.8803 37.8998 24.837 37.8782 24.8045 37.8782H8.90213C5.62203 37.8782 2.94815 35.2043 2.94815 31.9242V8.10837C2.94815 4.82827 5.62203 2.15439 8.90213 2.15439H51.1214C54.4015 2.15439 57.0754 4.82827 57.0754 8.10837L57.0748 31.935Z" fill="#0F1229"/>
<path d="M34.392 18.9126L31.8026 18.5561L30.6439 16.3431C30.4007 15.8856 29.5996 15.8856 29.3635 16.3431L28.2048 18.5561L25.6154 18.9126C25.3436 18.9462 25.1219 19.1278 25.0361 19.37C24.9502 19.6121 25.0218 19.8812 25.2149 20.0628L27.089 21.7848L26.6455 24.213C26.6026 24.4686 26.7099 24.7175 26.9316 24.8722C27.1533 25.0202 27.4466 25.0404 27.6826 24.926L30.0002 23.7825L32.3177 24.926C32.425 24.9798 32.5395 25 32.6467 25C32.797 25 32.94 24.9596 33.0688 24.8722C33.2905 24.7242 33.3978 24.4686 33.3549 24.213L32.9114 21.7848L34.7855 20.0628C34.9786 19.8812 35.0501 19.6189 34.9643 19.37C34.8785 19.1278 34.6567 18.9462 34.3849 18.9126H34.392ZM31.6452 21.065C31.4736 21.2197 31.402 21.4417 31.4378 21.6637L31.7025 23.0964L30.3291 22.417C30.2218 22.3632 30.1145 22.343 30.0001 22.343C29.8856 22.343 29.7712 22.37 29.671 22.417L28.2977 23.0964L28.5623 21.6637C28.6053 21.4484 28.5266 21.2197 28.3549 21.065L27.2462 20.0493L28.7769 19.8408C29.013 19.8072 29.2133 19.6726 29.3134 19.4708L30.0001 18.1659L30.6868 19.4708C30.7941 19.6659 30.9944 19.8072 31.2233 19.8408L32.754 20.0493L31.6452 21.065Z" fill="#4184C5"/>
<path d="M22.392 18.9126L19.8026 18.5561L18.6439 16.3431C18.4007 15.8856 17.5996 15.8856 17.3635 16.3431L16.2048 18.5561L13.6154 18.9126C13.3436 18.9462 13.1219 19.1278 13.0361 19.37C12.9502 19.6121 13.0218 19.8812 13.2149 20.0628L15.089 21.7848L14.6455 24.213C14.6026 24.4686 14.7099 24.7175 14.9316 24.8722C15.1533 25.0202 15.4466 25.0404 15.6826 24.926L18.0002 23.7825L20.3177 24.926C20.425 24.9798 20.5395 25 20.6467 25C20.797 25 20.94 24.9596 21.0688 24.8722C21.2905 24.7242 21.3978 24.4686 21.3549 24.213L20.9114 21.7848L22.7855 20.0628C22.9786 19.8812 23.0501 19.6189 22.9643 19.37C22.8785 19.1278 22.6567 18.9462 22.3849 18.9126H22.392ZM19.6452 21.065C19.4736 21.2197 19.402 21.4417 19.4378 21.6637L19.7025 23.0964L18.3291 22.417C18.2218 22.3632 18.1145 22.343 18.0001 22.343C17.8856 22.343 17.7712 22.37 17.671 22.417L16.2977 23.0964L16.5623 21.6637C16.6053 21.4484 16.5266 21.2197 16.3549 21.065L15.2462 20.0493L16.7769 19.8408C17.013 19.8072 17.2133 19.6726 17.3134 19.4708L18.0001 18.1659L18.6868 19.4708C18.7941 19.6659 18.9944 19.8072 19.2233 19.8408L20.754 20.0493L19.6452 21.065Z" fill="#4184C5"/>
<path d="M46.392 18.9126L43.8026 18.5561L42.6439 16.3431C42.4007 15.8856 41.5996 15.8856 41.3635 16.3431L40.2048 18.5561L37.6154 18.9126C37.3436 18.9462 37.1219 19.1278 37.0361 19.37C36.9502 19.6121 37.0218 19.8812 37.2149 20.0628L39.089 21.7848L38.6455 24.213C38.6026 24.4686 38.7099 24.7175 38.9316 24.8722C39.1533 25.0202 39.4466 25.0404 39.6826 24.926L42.0002 23.7825L44.3177 24.926C44.425 24.9798 44.5395 25 44.6467 25C44.797 25 44.94 24.9596 45.0688 24.8722C45.2905 24.7242 45.3978 24.4686 45.3549 24.213L44.9114 21.7848L46.7855 20.0628C46.9786 19.8812 47.0501 19.6189 46.9643 19.37C46.8785 19.1278 46.6567 18.9462 46.3849 18.9126H46.392ZM43.6452 21.065C43.4736 21.2197 43.402 21.4417 43.4378 21.6637L43.7025 23.0964L42.3291 22.417C42.2218 22.3632 42.1145 22.343 42.0001 22.343C41.8856 22.343 41.7712 22.37 41.671 22.417L40.2977 23.0964L40.5623 21.6637C40.6053 21.4484 40.5266 21.2197 40.3549 21.065L39.2462 20.0493L40.7769 19.8408C41.013 19.8072 41.2133 19.6726 41.3134 19.4708L42.0001 18.1659L42.6868 19.4708C42.7941 19.6659 42.9944 19.8072 43.2233 19.8408L44.754 20.0493L43.6452 21.065Z" fill="#4184C5"/>
</svg>
