<svg width="70" height="56" viewBox="0 0 70 56" fill="none" xmlns="http://www.w3.org/2000/svg">
<path d="M65.9903 50.0063H64.7402V22.4257C64.7402 22.1671 64.5365 21.9516 64.2733 21.9301L55.7757 21.2713V12.7187C55.7757 12.4509 55.5627 12.2323 55.2901 12.2231L48.375 11.9522V6.88798C48.375 6.63862 48.1901 6.42928 47.9395 6.39541L37.8 5.00086C37.7874 4.99778 37.778 5.00394 37.7655 5.00394C37.7248 5.00086 37.6872 5.00702 37.6496 5.01318C37.6182 5.01933 37.59 5.02241 37.5618 5.03165C37.5524 5.03473 37.5399 5.03473 37.5305 5.0378L31.0541 7.76843C30.8692 7.8454 30.747 8.02703 30.747 8.22405V9.96955L22.1275 9.63091C22.0993 9.63091 22.0743 9.64014 22.0492 9.64322C22.021 9.6463 21.9928 9.64322 21.9646 9.64938L16.729 11.1763C16.5128 11.2379 16.3655 11.4319 16.3655 11.6535V20.2179L16.0115 20.1994C16.0083 20.1994 16.0052 20.2025 16.0021 20.1994C15.9645 20.1994 15.9269 20.2086 15.8893 20.2148C15.8611 20.2209 15.8297 20.2209 15.8015 20.2302C15.7984 20.2302 15.7953 20.2302 15.7921 20.2332L5.78738 24.2323C5.59625 24.3092 5.47092 24.4908 5.47092 24.694V50.0056H4.00771C3.72884 50.0056 3.50012 50.2273 3.50012 50.5043C3.50012 50.7783 3.72572 51 4.00771 51H65.9925C66.2714 51 66.5001 50.7783 66.5001 50.5043C66.5001 50.2304 66.2745 50.0056 65.9925 50.0056L65.9903 50.0063ZM63.7281 50.0063H48.3749V21.7732L51.7463 21.9548L63.7306 22.8845V50.0064L63.7281 50.0063ZM54.7637 13.1962V21.1238L51.8091 20.9637L48.3719 20.6959V12.9441L54.7637 13.1935V13.1962ZM37.2207 6.24489V50.006H33.9621V21.6342C33.9621 21.3695 33.7522 21.1509 33.4828 21.1386L31.7532 21.0462V8.55081L37.2176 6.24497L37.2207 6.24489ZM30.7443 10.9643V20.9945L29.61 20.933L22.6103 20.5574V10.6477L30.7446 10.9679L30.7443 10.9643ZM17.3747 12.0264L21.5983 10.795V20.5013L17.3747 20.2735V12.0264ZM6.48041 25.0302L15.4729 21.4344V50.0064H6.48041V25.0302ZM16.4852 50.006V21.2221L22.0749 21.5238L31.2206 22.0163L32.947 22.1087V50.0092H16.482L16.4852 50.006ZM38.2328 50.006L38.236 6.05969L47.3632 7.31577V50.0059L38.2328 50.006Z" fill="#1D3D91"/>
<path d="M42.2105 9.18333L40.3402 9.00196C40.2011 8.98966 40.062 9.03577 39.9569 9.128C39.8518 9.22329 39.7931 9.35548 39.7931 9.49689V12.362C39.7931 12.6171 39.9878 12.8323 40.2444 12.8569L42.1147 13.0383C42.1301 13.0383 42.1456 13.0414 42.1641 13.0414C42.2878 13.0414 42.4083 12.9952 42.5011 12.9122C42.6062 12.8169 42.6649 12.6848 42.6649 12.5433V9.67827C42.6649 9.42312 42.4702 9.20793 42.2136 9.18333L42.2105 9.18333ZM41.6633 11.9961L40.7916 11.9131V10.0441L41.6633 10.1271V11.9961ZM45.4069 9.49379L43.7191 9.33087C43.58 9.31857 43.4409 9.36468 43.3357 9.45691C43.2306 9.5522 43.1719 9.68439 43.1719 9.8258V12.6909C43.1719 12.946 43.3667 13.1612 43.6232 13.1858L45.3111 13.3487C45.3265 13.3518 45.342 13.3518 45.3605 13.3518C45.4842 13.3518 45.6047 13.3057 45.6975 13.2227C45.8026 13.1274 45.8613 12.9952 45.8613 12.8538V9.98874C45.8613 9.73358 45.6666 9.51839 45.41 9.4938L45.4069 9.49379ZM44.8597 12.3066L44.1704 12.239V10.3699L44.8597 10.4375V12.3066ZM42.2136 14.9165L40.3433 14.7352C40.2042 14.7229 40.0651 14.769 39.96 14.8612C39.8549 14.9565 39.7962 15.0887 39.7962 15.2301V18.0952C39.7962 18.3503 39.9909 18.5655 40.2475 18.5901L42.1177 18.7715C42.1332 18.7715 42.1486 18.7746 42.1672 18.7746C42.2908 18.7746 42.4114 18.7285 42.5041 18.6455C42.6092 18.5502 42.668 18.418 42.668 18.2766V15.4115C42.668 15.1563 42.4732 14.9411 42.2166 14.9166L42.2136 14.9165ZM41.6664 17.7294L40.7946 17.6464V15.7773L41.6664 15.8603V17.7294ZM45.41 15.227L43.7221 15.0641C43.583 15.0518 43.4439 15.0979 43.3388 15.1901C43.2337 15.2854 43.175 15.4176 43.175 15.559V18.4241C43.175 18.6793 43.3697 18.8944 43.6263 18.919L45.3141 19.082C45.3296 19.085 45.3451 19.085 45.3636 19.085C45.4873 19.085 45.6078 19.0389 45.7006 18.9559C45.8057 18.8606 45.8644 18.7284 45.8644 18.587V15.722C45.8644 15.4668 45.6696 15.2516 45.4131 15.227L45.41 15.227ZM44.8628 18.0398L44.1735 17.9722V16.1031L44.8628 16.1708V18.0398ZM42.2166 20.6498L40.3464 20.4684C40.2073 20.4561 40.0682 20.5022 39.9631 20.5944C39.858 20.6897 39.7992 20.8219 39.7992 20.9633V23.8284C39.7992 24.0836 39.994 24.2987 40.2505 24.3233L42.1208 24.5047C42.1362 24.5047 42.1517 24.5078 42.1703 24.5078C42.2939 24.5078 42.4145 24.4617 42.5072 24.3787C42.6123 24.2834 42.671 24.1512 42.671 24.0098V21.1447C42.671 20.8896 42.4763 20.6744 42.2197 20.6498L42.2166 20.6498ZM41.6695 23.4626L40.7977 23.3796V21.5105L41.6695 21.5935V23.4626ZM45.413 20.9602L43.7252 20.7973C43.5861 20.7819 43.447 20.8311 43.3419 20.9233C43.2368 21.0186 43.178 21.1508 43.178 21.2922V24.1573C43.178 24.4125 43.3728 24.6277 43.6294 24.6523L45.3172 24.8152C45.3327 24.8152 45.3481 24.8183 45.3667 24.8183C45.4903 24.8183 45.6109 24.7721 45.7036 24.6891C45.8087 24.5938 45.8675 24.4617 45.8675 24.3202V21.4552C45.8675 21.2 45.6727 20.9848 45.4161 20.9602L45.413 20.9602ZM44.8659 23.773L44.1765 23.7054V21.8363L44.8659 21.904V23.773ZM54.69 29.4756L56.7827 29.5985H56.8136C56.9404 29.5985 57.064 29.5494 57.1568 29.4633C57.2557 29.368 57.3144 29.2389 57.3144 29.1005V25.7497C57.3144 25.4884 57.1073 25.2702 56.8446 25.2548L54.7518 25.1318C54.6127 25.1257 54.4798 25.1718 54.3808 25.2671C54.2819 25.3624 54.2232 25.4915 54.2232 25.6298V28.9806C54.2232 29.2419 54.4303 29.4602 54.6931 29.4756H54.69ZM55.2186 26.1555L56.3129 26.22V28.5748L55.2186 28.5103V26.1555ZM58.8756 29.7214L60.9684 29.8444H60.9993C61.126 29.8444 61.2497 29.7952 61.3424 29.7091C61.4413 29.6138 61.5001 29.4847 61.5001 29.3464V25.9956C61.5001 25.7343 61.2929 25.516 61.0302 25.5006L58.9374 25.3777C58.8014 25.3715 58.6654 25.4176 58.5664 25.5129C58.4675 25.6082 58.4088 25.7374 58.4088 25.8757V29.2265C58.4088 29.4878 58.6159 29.7061 58.8787 29.7214H58.8756ZM59.4042 26.4013L60.4985 26.4659V28.8207L59.4042 28.7561V26.4013ZM54.69 36.174L56.7828 36.297H56.8137C56.9404 36.297 57.0641 36.2478 57.1568 36.1617C57.2557 36.0664 57.3145 35.9373 57.3145 35.799V32.4482C57.3145 32.1869 57.1074 31.9686 56.8446 31.9532L54.7518 31.8303C54.6127 31.821 54.4798 31.8702 54.3809 31.9655C54.2819 32.0608 54.2232 32.1899 54.2232 32.3283V35.6791C54.2232 35.9404 54.4303 36.1586 54.6931 36.174H54.69ZM55.2186 32.8539L56.3129 32.9185V35.2733L55.2186 35.2087V32.8539ZM58.8756 36.4199L60.9684 36.5428H60.9993C61.126 36.5428 61.2497 36.4937 61.3424 36.4076C61.4413 36.3123 61.5001 36.1832 61.5001 36.0448V32.694C61.5001 32.4327 61.293 32.2145 61.0302 32.1991L58.9374 32.0761C58.8014 32.0669 58.6654 32.1161 58.5665 32.2114C58.4676 32.3067 58.4088 32.4358 58.4088 32.5741V35.9249C58.4088 36.1862 58.6159 36.4045 58.8787 36.4199H58.8756ZM59.4042 33.0998L60.4985 33.1643V35.5191L59.4042 35.4546V33.0998ZM54.69 42.8725L56.7828 42.9954H56.8137C56.9405 42.9954 57.0641 42.9462 57.1568 42.8602C57.2558 42.7649 57.3145 42.6358 57.3145 42.4974V39.1466C57.3145 38.8853 57.1074 38.667 56.8446 38.6517L54.7519 38.5287C54.6127 38.5195 54.4798 38.5687 54.3809 38.664C54.282 38.7593 54.2232 38.8884 54.2232 39.0267V42.3775C54.2232 42.6388 54.4303 42.8571 54.6931 42.8725H54.69ZM55.2186 39.5524L56.3129 39.6169V41.9717L55.2186 41.9072V39.5524ZM58.8756 43.1183L60.9684 43.2413H60.9993C61.1261 43.2413 61.2497 43.1921 61.3425 43.106C61.4414 43.0107 61.5001 42.8816 61.5001 42.7433V39.3925C61.5001 39.1312 61.293 38.9129 61.0302 38.8975L58.9375 38.7746C58.8014 38.7684 58.6654 38.8145 58.5665 38.9098C58.4676 39.0051 58.4089 39.1342 58.4089 39.2726V42.6234C58.4089 42.8847 58.616 43.103 58.8787 43.1183H58.8756ZM59.4042 39.7982L60.4986 39.8628V42.2176L59.4042 42.153V39.7982ZM50.5631 24.8858C50.427 24.8765 50.291 24.9257 50.1921 25.021C50.0932 25.1163 50.0344 25.2454 50.0344 25.3838V28.7346C50.0344 28.9959 50.2416 29.2141 50.5043 29.2295L52.5971 29.3525H52.628C52.7548 29.3525 52.8784 29.3033 52.9711 29.2172C53.0701 29.1219 53.1288 28.9928 53.1288 28.8545V25.5037C53.1288 25.2424 52.9217 25.0241 52.6589 25.0087L50.5661 24.8858H50.5631ZM52.1273 28.3288L51.033 28.2642V25.9094L52.1273 25.974V28.3288ZM52.6559 31.7104L50.5631 31.5874C50.4271 31.5812 50.2911 31.6274 50.1922 31.7227C50.0932 31.818 50.0345 31.9471 50.0345 32.0854V35.4362C50.0345 35.6975 50.2416 35.9158 50.5044 35.9311L52.5972 36.0541H52.6281C52.7548 36.0541 52.8785 36.0049 52.9712 35.9189C53.0701 35.8236 53.1289 35.6944 53.1289 35.5561V32.2053C53.1289 31.944 52.9217 31.7257 52.659 31.7104L52.6559 31.7104ZM52.1273 35.0305L51.033 34.9659V32.6111L52.1273 32.6757V35.0305ZM52.6559 38.412L50.5631 38.2891C50.424 38.2798 50.2911 38.329 50.1922 38.4243C50.0932 38.5196 50.0345 38.6487 50.0345 38.7871V42.1379C50.0345 42.3992 50.2416 42.6174 50.5044 42.6328L52.5972 42.7558H52.6281C52.7548 42.7558 52.8785 42.7066 52.9712 42.6205C53.0701 42.5252 53.1289 42.3961 53.1289 42.2578V38.907C53.1289 38.6457 52.9217 38.4274 52.659 38.412H52.6559ZM52.1273 41.7321L51.033 41.6676V39.3128L52.1273 39.3773V41.7321ZM25.9748 25.0025L23.8821 24.9687C23.7491 24.9657 23.6193 25.0179 23.5235 25.1101C23.4277 25.2024 23.3751 25.3315 23.3751 25.4637V28.8145C23.3751 29.085 23.5946 29.3063 23.8666 29.3094L25.9594 29.3432H25.9687C26.0985 29.3432 26.2252 29.291 26.318 29.2018C26.4138 29.1096 26.4664 28.9805 26.4664 28.8483V25.4975C26.4664 25.227 26.2469 25.0056 25.9748 25.0025ZM25.4679 28.3441L24.3736 28.3257V25.9678L25.4679 25.9863V28.3441ZM30.1605 25.0671L28.0677 25.0333C27.9348 25.0333 27.8049 25.0824 27.7091 25.1747C27.6133 25.2669 27.5607 25.396 27.5607 25.5282V28.879C27.5607 29.1495 27.7802 29.3709 28.0522 29.3739L30.145 29.4077H30.1543C30.2841 29.4077 30.4109 29.3555 30.5036 29.2663C30.5994 29.1741 30.652 29.045 30.652 28.9128V25.562C30.652 25.2915 30.4325 25.0702 30.1605 25.0671ZM29.6535 28.4087L28.5592 28.3902V26.0324L29.6535 26.0508V28.4087ZM25.9749 31.7011L23.8821 31.6673C23.7492 31.6642 23.6194 31.7164 23.5235 31.8087C23.4277 31.9009 23.3751 32.03 23.3751 32.1622V35.513C23.3751 35.7835 23.5946 36.0049 23.8667 36.0079L25.9594 36.0417H25.9687C26.0985 36.0417 26.2253 35.9895 26.318 35.9003C26.4139 35.8081 26.4664 35.679 26.4664 35.5468V32.196C26.4664 31.9255 26.2469 31.7041 25.9749 31.7011ZM25.4679 35.0427L24.3736 35.0242V32.6663L25.4679 32.6848V35.0427ZM30.1605 31.7656L28.0677 31.7318C27.9348 31.7318 27.805 31.781 27.7092 31.8732C27.6133 31.9654 27.5608 32.0945 27.5608 32.2267V35.5775C27.5608 35.848 27.7803 36.0694 28.0523 36.0725L30.1451 36.1063H30.1543C30.2842 36.1063 30.4109 36.054 30.5037 35.9649C30.5995 35.8726 30.652 35.7435 30.652 35.6113V32.2605C30.652 31.99 30.4326 31.7687 30.1605 31.7656ZM29.6536 35.1072L28.5592 35.0887V32.7309L29.6536 32.7493V35.1072ZM25.9749 38.3996L23.8822 38.3658C23.7492 38.3627 23.6194 38.415 23.5236 38.5072C23.4278 38.5994 23.3752 38.7285 23.3752 38.8607V42.2115C23.3752 42.482 23.5947 42.7034 23.8667 42.7065L25.9595 42.7403H25.9688C26.0986 42.7403 26.2253 42.688 26.3181 42.5989C26.4139 42.5066 26.4665 42.3775 26.4665 42.2453V38.8945C26.4665 38.624 26.247 38.4027 25.9749 38.3996ZM25.468 41.7412L24.3737 41.7227V39.3649L25.468 39.3833V41.7412ZM30.1606 38.4641L28.0678 38.4303C27.9349 38.4272 27.805 38.4795 27.7092 38.5717C27.6134 38.6639 27.5608 38.7931 27.5608 38.9253V42.276C27.5608 42.5466 27.7803 42.7679 28.0523 42.771L30.1451 42.8048H30.1544C30.2842 42.8048 30.411 42.7525 30.5037 42.6634C30.5995 42.5712 30.6521 42.4421 30.6521 42.3099V38.9591C30.6521 38.6885 30.4326 38.4672 30.1606 38.4641ZM29.6536 41.8057L28.5593 41.7873V39.4294L29.6536 39.4479V41.8057ZM21.7894 24.9345L19.6966 24.9007C19.5636 24.8976 19.4338 24.9498 19.338 25.0421C19.2422 25.1343 19.1896 25.2634 19.1896 25.3956V28.7464C19.1896 29.0169 19.4091 29.2383 19.6811 29.2413L21.7739 29.2751H21.7832C21.913 29.2751 22.0397 29.2229 22.1325 29.1337C22.2283 29.0415 22.2809 28.9124 22.2809 28.7802V25.4294C22.2809 25.1589 22.0614 24.9375 21.7894 24.9345ZM21.2824 28.2761L20.1881 28.2576V25.8997L21.2824 25.9182V28.2761ZM21.7894 31.633L19.6966 31.5992C19.5636 31.5961 19.4338 31.6484 19.338 31.7406C19.2422 31.8328 19.1896 31.9619 19.1896 32.0941V35.4449C19.1896 35.7154 19.4091 35.9368 19.6811 35.9399L21.7739 35.9737H21.7832C21.913 35.9737 22.0397 35.9214 22.1325 35.8323C22.2283 35.74 22.2809 35.6109 22.2809 35.4787V32.1279C22.2809 31.8574 22.0614 31.6361 21.7894 31.633ZM21.2824 34.9746L20.1881 34.9561V32.5983L21.2824 32.6167V34.9746ZM21.7894 38.3315L19.6966 38.2977C19.5636 38.2946 19.4338 38.3469 19.338 38.4391C19.2422 38.5313 19.1896 38.6605 19.1896 38.7926V42.1434C19.1896 42.414 19.4091 42.6353 19.6811 42.6384L21.7739 42.6722H21.7832C21.913 42.6722 22.0397 42.6199 22.1325 42.5308C22.2283 42.4386 22.2809 42.3094 22.2809 42.1773V38.8265C22.2809 38.5559 22.0614 38.3346 21.7894 38.3315ZM21.2824 41.6731L20.1881 41.6547V39.2968L21.2824 39.3152V41.6731ZM24.6024 15.3644L26.2068 15.3859H26.2129C26.3428 15.3859 26.4695 15.3337 26.5623 15.2415C26.6581 15.1492 26.7107 15.0201 26.7107 14.8879V12.8037C26.7107 12.5332 26.4912 12.3118 26.2191 12.3088L24.6148 12.2872C24.4819 12.2811 24.352 12.3364 24.2562 12.4317C24.1604 12.5239 24.1078 12.6531 24.1078 12.7852V14.8695C24.1078 15.14 24.3273 15.3613 24.5993 15.3644H24.6024ZM25.1094 13.2863L25.7153 13.2955V14.3868L25.1094 14.3776V13.2863ZM27.8112 15.4044L29.4156 15.4259H29.4217C29.5516 15.4259 29.6783 15.3737 29.7711 15.2814C29.8669 15.1892 29.9194 15.0601 29.9194 14.9279V12.8437C29.9194 12.5731 29.7 12.3518 29.4279 12.3487L27.8236 12.3272C27.6907 12.3241 27.5608 12.3764 27.465 12.4717C27.3692 12.5639 27.3166 12.693 27.3166 12.8252V14.9095C27.3166 15.18 27.5361 15.4013 27.8081 15.4044H27.8112ZM28.3182 13.3263L28.9241 13.3355V14.4268L28.3182 14.4207V13.3263ZM24.6055 19.5299L26.2099 19.5514H26.2161C26.3459 19.5514 26.4726 19.4992 26.5654 19.4069C26.6612 19.3147 26.7138 19.1856 26.7138 19.0534V16.9692C26.7138 16.6986 26.4943 16.4773 26.2223 16.4742L24.6179 16.4527C24.485 16.4496 24.3552 16.5019 24.2593 16.5972C24.1635 16.6894 24.1109 16.8185 24.1109 16.9507V19.035C24.1109 19.3055 24.3304 19.5268 24.6025 19.5299L24.6055 19.5299ZM25.1125 17.4518L25.7184 17.4579V18.5492L25.1125 18.5431V17.4518ZM27.8143 19.5699L29.4187 19.5914H29.4249C29.5547 19.5914 29.6814 19.5391 29.7742 19.4469C29.87 19.3547 29.9226 19.2256 29.9226 19.0934V17.0092C29.9226 16.7386 29.7031 16.5173 29.431 16.5142L27.8267 16.4927C27.6907 16.4865 27.5639 16.5419 27.4681 16.6372C27.3723 16.7294 27.3197 16.8585 27.3197 16.9907V19.0749C27.3197 19.3455 27.5392 19.5668 27.8112 19.5699H27.8143ZM28.3213 17.4918L28.9272 17.501V18.5923L28.3213 18.5831V17.4918ZM49.4968 16.8032L50.7518 16.8185H50.758C50.8879 16.8185 51.0146 16.7663 51.1073 16.6741C51.2032 16.5818 51.2557 16.4527 51.2557 16.3205V14.6882C51.2557 14.4177 51.0362 14.1963 50.7642 14.1932L49.5092 14.1779C49.3762 14.1748 49.2464 14.2271 49.1506 14.3224C49.0548 14.4146 49.0022 14.5437 49.0022 14.6759V16.3082C49.0022 16.5788 49.2217 16.8001 49.4937 16.8032H49.4968ZM50.0038 15.177L50.2603 15.18V15.8195L50.0038 15.8164V15.177ZM52.0101 16.8339L53.2651 16.8493H53.2713C53.4011 16.8493 53.5278 16.7971 53.6206 16.7048C53.7164 16.6126 53.769 16.4835 53.769 16.3513V14.719C53.769 14.4484 53.5495 14.2271 53.2775 14.224L52.0224 14.2086C51.8895 14.2056 51.7597 14.2578 51.6638 14.3531C51.568 14.4454 51.5155 14.5745 51.5155 14.7067V16.339C51.5155 16.6095 51.7349 16.8309 52.007 16.8339H52.0101ZM52.517 15.2077L52.7736 15.2108V15.8502L52.517 15.8472V15.2077ZM49.4999 20.0618L50.755 20.0772H50.7611C50.891 20.0772 51.0177 20.0249 51.1105 19.9327C51.2063 19.8405 51.2588 19.7114 51.2588 19.5792V17.9468C51.2588 17.6763 51.0394 17.455 50.7673 17.4519L49.5123 17.4365C49.3794 17.4304 49.2495 17.4857 49.1537 17.581C49.0579 17.6732 49.0053 17.8023 49.0053 17.9345V19.5669C49.0053 19.8374 49.2248 20.0587 49.4968 20.0618H49.4999ZM50.0069 18.4356L50.2635 18.4387V19.0781L50.0069 19.075V18.4356ZM52.0132 20.0926L53.2682 20.108H53.2744C53.4042 20.108 53.531 20.0557 53.6237 19.9635C53.7195 19.8712 53.7721 19.7421 53.7721 19.6099V17.9776C53.7721 17.7071 53.5526 17.4857 53.2806 17.4827L52.0255 17.4673C51.8926 17.4642 51.7628 17.5165 51.667 17.6118C51.5711 17.704 51.5186 17.8331 51.5186 17.9653V19.5976C51.5186 19.8682 51.7381 20.0895 52.0101 20.0926H52.0132ZM52.5201 18.4664L52.7767 18.4694V19.1089L52.5201 19.1058V18.4664ZM42.2323 26.37L40.3621 26.1886C40.223 26.1763 40.0839 26.2224 39.9788 26.3147C39.8736 26.41 39.8149 26.5421 39.8149 26.6836V29.5486C39.8149 29.8038 40.0097 30.019 40.2662 30.0436L42.1365 30.2249C42.1519 30.2249 42.1674 30.228 42.1859 30.228C42.3096 30.228 42.4302 30.1819 42.5229 30.0989C42.628 30.0036 42.6867 29.8714 42.6867 29.73V26.8649C42.6867 26.6098 42.492 26.3946 42.2354 26.37L42.2323 26.37ZM41.6852 29.1828L40.8134 29.0998V27.2307L41.6852 27.3137V29.1828ZM45.4287 26.6805L43.7409 26.5175C43.6018 26.5052 43.4627 26.5513 43.3576 26.6436C43.2525 26.7389 43.1937 26.8711 43.1937 27.0125V29.8775C43.1937 30.1327 43.3885 30.3479 43.6451 30.3725L45.3329 30.5354C45.3484 30.5354 45.3638 30.5385 45.3824 30.5385C45.506 30.5385 45.6266 30.4924 45.7193 30.4094C45.8244 30.3141 45.8832 30.1819 45.8832 30.0405V27.1754C45.8832 26.9202 45.6884 26.7051 45.4318 26.6805L45.4287 26.6805ZM44.8816 29.4933L44.1922 29.4256V27.5566L44.8816 27.6242V29.4933ZM42.2354 32.1032L40.3651 31.9218C40.226 31.9095 40.0869 31.9557 39.9818 32.0479C39.8767 32.1432 39.818 32.2754 39.818 32.4168V35.2819C39.818 35.537 40.0127 35.7522 40.2693 35.7768L42.1396 35.9582C42.155 35.9582 42.1705 35.9612 42.189 35.9612C42.3127 35.9612 42.4332 35.9151 42.526 35.8321C42.6311 35.7368 42.6898 35.6046 42.6898 35.4632V32.5982C42.6898 32.343 42.4951 32.1278 42.2385 32.1032L42.2354 32.1032ZM41.6882 34.916L40.8165 34.833V32.964L41.6882 33.047V34.916ZM45.4318 32.4137L43.744 32.2508C43.6049 32.2385 43.4658 32.2846 43.3606 32.3768C43.2555 32.4721 43.1968 32.6043 43.1968 32.7457V35.6108C43.1968 35.8659 43.3916 36.0811 43.6481 36.1057L45.336 36.2686C45.3514 36.2686 45.3669 36.2717 45.3854 36.2717C45.5091 36.2717 45.6296 36.2256 45.7224 36.1426C45.8275 36.0473 45.8862 35.9151 45.8862 35.7737V32.9086C45.8862 32.6535 45.6915 32.4383 45.4349 32.4137L45.4318 32.4137ZM44.8847 35.2265L44.1953 35.1589V33.2898L44.8847 33.3574V35.2265ZM42.2199 37.944L40.3497 37.8272C40.2106 37.818 40.0777 37.8672 39.9756 37.9594C39.8767 38.0547 39.818 38.1838 39.818 38.3221V41.1872C39.818 41.4485 40.022 41.6668 40.2848 41.6821L42.155 41.799H42.1859C42.3127 41.799 42.4363 41.7498 42.5291 41.6637C42.628 41.5684 42.6867 41.4393 42.6867 41.3009V38.4359C42.6867 38.1746 42.4827 37.9563 42.2199 37.9409L42.2199 37.944ZM41.6882 40.7753L40.8165 40.72V38.8509L41.6882 38.9063V40.7753ZM45.4132 38.1438L43.7254 38.0393C43.5894 38.0301 43.4534 38.0793 43.3513 38.1715C43.2524 38.2668 43.1937 38.3959 43.1937 38.5342V41.3993C43.1937 41.6606 43.3977 41.8789 43.6605 41.8943L45.3483 41.9988H45.3792C45.506 41.9988 45.6296 41.9496 45.7223 41.8635C45.8213 41.7682 45.88 41.6391 45.88 41.5008V38.6357C45.88 38.3744 45.676 38.1561 45.4132 38.1408L45.4132 38.1438ZM44.8815 40.9751L44.1922 40.9321V39.063L44.8815 39.1061V40.9751ZM10.4909 26.7418L8.85562 27.2337C8.64542 27.2983 8.50012 27.4889 8.50012 27.7102V30.9626C8.50012 31.1194 8.57431 31.267 8.70106 31.3623C8.78762 31.4268 8.89272 31.4606 8.99782 31.4606C9.04728 31.4606 9.09365 31.4545 9.14311 31.4391L10.7784 30.9473C10.9886 30.8827 11.1339 30.6921 11.1339 30.4708V27.2183C11.1339 27.0616 11.0597 26.914 10.933 26.8187C10.8062 26.7265 10.6424 26.6957 10.4909 26.7418ZM10.1354 30.0988L9.4986 30.2894V28.076L10.1354 27.8854V30.0988ZM10.5775 33.0714L8.94217 33.2559C8.68869 33.2836 8.50012 33.4957 8.50012 33.7477V37.0002C8.50012 37.1416 8.56195 37.2768 8.66705 37.3691C8.75979 37.4521 8.87726 37.4951 9.00092 37.4951C9.01946 37.4951 9.03801 37.4951 9.05656 37.492L10.6919 37.3076C10.9453 37.2799 11.1339 37.0678 11.1339 36.8157V33.5633C11.1339 33.4219 11.0721 33.2866 10.967 33.1944C10.8619 33.0991 10.7197 33.0561 10.5775 33.0714ZM10.1354 36.373L9.4986 36.4438V34.1904L10.1354 34.1197V36.373ZM10.5991 39.647L8.96382 39.7577C8.70106 39.7761 8.50012 39.9913 8.50012 40.2526V43.5051C8.50012 43.6434 8.55886 43.7725 8.65778 43.8678C8.75052 43.9539 8.87108 44 8.99782 44H9.03183L10.6671 43.8893C10.9299 43.8709 11.1308 43.6557 11.1308 43.3944V40.142C11.1308 40.0036 11.0721 39.8745 10.9732 39.7792C10.8711 39.6839 10.7351 39.6378 10.5991 39.647ZM10.1354 42.9302L9.4986 42.9733V40.7168L10.1354 40.6738V42.9302ZM14.2004 25.8378C14.0737 25.7456 13.9099 25.7149 13.7584 25.761L12.1231 26.2529C11.9129 26.3174 11.7676 26.508 11.7676 26.7293V29.9818C11.7676 30.1385 11.8418 30.2861 11.9685 30.3814C12.0551 30.446 12.1602 30.4798 12.2653 30.4798C12.3148 30.4798 12.3611 30.4736 12.4106 30.4583L14.0459 29.9664C14.2561 29.9018 14.4014 29.7112 14.4014 29.4899V26.2375C14.4014 26.0807 14.3272 25.9331 14.2004 25.8378ZM13.4029 29.118L12.7661 29.3086V27.0952L13.4029 26.9046V29.118ZM13.845 32.7024L12.2097 32.8869C11.9562 32.9145 11.7676 33.1267 11.7676 33.3787V36.6312C11.7676 36.7726 11.8294 36.9078 11.9345 37.0001C12.0273 37.0831 12.1448 37.1261 12.2684 37.1261C12.287 37.1261 12.3055 37.1261 12.3241 37.123L13.9593 36.9386C14.2128 36.9109 14.4014 36.6988 14.4014 36.4467V33.1943C14.4014 33.0529 14.3396 32.9176 14.2345 32.8254C14.1294 32.7301 13.9872 32.687 13.845 32.7024ZM13.4029 36.004L12.7661 36.0747V33.8214L13.4029 33.7507V36.004ZM13.8666 39.4225L12.2313 39.5332C11.9686 39.5516 11.7676 39.7668 11.7676 40.0281V43.2805C11.7676 43.4189 11.8263 43.548 11.9253 43.6433C12.018 43.7294 12.1386 43.7755 12.2653 43.7755H12.2993L13.9346 43.6648C14.1974 43.6464 14.3983 43.4312 14.3983 43.1699V39.9175C14.3983 39.7791 14.3396 39.65 14.2406 39.5547C14.1386 39.4594 14.0026 39.4133 13.8666 39.4225ZM13.4029 42.7057L12.7661 42.7487V40.4923L13.4029 40.4493V42.7057Z" fill="#1D3D91"/>
</svg>
