<svg width="70" height="57" viewBox="0 0 70 57" fill="none" xmlns="http://www.w3.org/2000/svg">
<path d="M57.9518 16.75H50.0672C50.154 16.5093 50.2099 16.2541 50.2099 15.9844V6.79688C50.2099 5.5303 49.168 4.5 47.8873 4.5H47.1131C46.5161 4.5 45.9766 4.7301 45.5647 5.0974C45.1528 4.7301 44.6133 4.5 44.0163 4.5H42.4679C41.1872 4.5 40.1453 5.5303 40.1453 6.79688V8.32812H30.855V6.79688C30.855 5.5303 29.8132 4.5 28.5324 4.5H26.9841C26.3871 4.5 25.8475 4.7301 25.4357 5.0974C25.0238 4.7301 24.4843 4.5 23.8873 4.5H23.1131C21.8323 4.5 20.7905 5.5303 20.7905 6.79688V15.9844C20.7905 16.2541 20.8465 16.5093 20.9332 16.75H13.0486C12.1946 16.75 11.5002 17.4371 11.5002 18.2812V22.875C11.5002 23.7191 12.1946 24.4062 13.0486 24.4062V52.7344C13.0486 53.1576 13.3952 53.5 13.8228 53.5H57.1776C57.6055 53.5 57.9518 53.1576 57.9518 52.7344V24.4062C58.8054 24.4062 59.5002 23.7191 59.5002 22.875V18.2812C59.5002 17.4371 58.8054 16.75 57.9518 16.75ZM47.1131 6.03125H47.8873C48.3144 6.03125 48.6615 6.37444 48.6615 6.79688V15.9844C48.6615 16.4068 48.3144 16.75 47.8873 16.75H47.1131C46.6859 16.75 46.3389 16.4068 46.3389 15.9844V6.79688C46.3389 6.37444 46.6859 6.03125 47.1131 6.03125ZM41.6937 6.79688C41.6937 6.37444 42.0408 6.03125 42.4679 6.03125H44.0163C44.4435 6.03125 44.7905 6.37444 44.7905 6.79688V15.9844C44.7905 16.4068 44.4435 16.75 44.0163 16.75H42.4679C42.0408 16.75 41.6937 16.4068 41.6937 15.9844V6.79688ZM30.855 15.9844V14.4531H40.1453V15.9844C40.1453 16.2541 40.2013 16.5093 40.288 16.75H30.7124C30.7991 16.5093 30.855 16.2541 30.855 15.9844ZM40.1453 9.85938V12.9219H30.855V9.85938H40.1453ZM26.9841 6.03125H28.5324C28.9592 6.03125 29.3066 6.37444 29.3066 6.79688V15.9844C29.3066 16.4068 28.9592 16.75 28.5324 16.75H26.9841C26.5573 16.75 26.2099 16.4068 26.2099 15.9844V6.79688C26.2099 6.37444 26.5573 6.03125 26.9841 6.03125ZM22.3389 15.9844V6.79688C22.3389 6.37444 22.6863 6.03125 23.1131 6.03125H23.8873C24.3141 6.03125 24.6615 6.37444 24.6615 6.79688V15.9844C24.6615 16.4068 24.3141 16.75 23.8873 16.75H23.1131C22.6863 16.75 22.3389 16.4068 22.3389 15.9844ZM14.597 32.0625H23.1131V44.3125H14.597V32.0625ZM14.597 49.6719H26.2099V51.9688H14.597V49.6719ZM27.7582 32.0625H34.726V51.9688H27.7582V32.0625ZM36.2744 51.9688V32.0625H43.2421V51.9688H36.2744ZM44.7905 51.9688V49.6719H56.4034V51.9688H44.7905ZM56.4034 44.3125H47.8873V32.0625H56.4034V44.3125ZM56.4034 30.5312H47.1131C46.6852 30.5312 46.3389 30.8737 46.3389 31.2969V45.0781C46.3389 45.5013 46.6852 45.8438 47.1131 45.8438H56.4034V48.1406H44.7905V31.2969C44.7905 30.8737 44.4442 30.5312 44.0163 30.5312H26.9841C26.5565 30.5312 26.2099 30.8737 26.2099 31.2969V48.1406H14.597V45.8438H23.8873C24.3148 45.8438 24.6615 45.5013 24.6615 45.0781V31.2969C24.6615 30.8737 24.3148 30.5312 23.8873 30.5312H14.597V24.4062H56.4034V30.5312ZM13.0486 22.875V18.2812H57.9518L57.9533 22.875H13.0486ZM33.1776 40.4844V43.5469C33.1776 43.9701 32.831 44.3125 32.4034 44.3125C31.9759 44.3125 31.6292 43.9701 31.6292 43.5469V40.4844C31.6292 40.0612 31.9759 39.7188 32.4034 39.7188C32.831 39.7188 33.1776 40.0612 33.1776 40.4844ZM39.3712 40.4844V43.5469C39.3712 43.9701 39.0249 44.3125 38.597 44.3125C38.169 44.3125 37.8228 43.9701 37.8228 43.5469V40.4844C37.8228 40.0612 38.169 39.7188 38.597 39.7188C39.0249 39.7188 39.3712 40.0612 39.3712 40.4844Z" fill="#1D3D91"/>
</svg>
