<svg width="70" height="56" viewBox="0 0 70 56" fill="none" xmlns="http://www.w3.org/2000/svg">
<path d="M22.1476 4H48.1853C48.5031 4 48.7623 4.25921 48.7623 4.57701V7.78889C48.7623 8.1067 48.5031 8.3659 48.1853 8.3659H47.579V9.62136H61.2559C61.5737 9.62136 61.8329 9.88057 61.8329 10.1984V13.4103C61.8329 13.7281 61.5737 13.9873 61.2559 13.9873H60.2371V47.6386C60.6608 47.6724 61.0417 47.8595 61.3257 48.1412C61.639 48.4545 61.8329 48.8873 61.8329 49.3651V51.423C61.8329 51.7408 61.5737 52 61.2559 52H9.07669C8.75888 52 8.49968 51.7408 8.49968 51.423V49.3651C8.49968 48.8873 8.69352 48.4546 9.00682 48.1412C9.28856 47.8595 9.67171 47.6702 10.0955 47.6386V13.9873H9.0767C8.75889 13.9873 8.49969 13.7281 8.49969 13.4103V10.1984C8.49969 9.88057 8.75889 9.62136 9.0767 9.62136H22.7536V8.3659H22.1473C21.8295 8.3659 21.5703 8.1067 21.5703 7.78889V4.57701C21.5703 4.25921 21.8298 4 22.1476 4ZM34.5713 35.1927C34.5713 34.8749 34.8305 34.6157 35.1483 34.6157C35.4661 34.6157 35.7253 34.8749 35.7253 35.1927V47.6342H42.8185V32.8367C42.4984 33.0148 42.1333 33.1162 41.7456 33.1162C41.1325 33.1162 40.5758 32.8661 40.1723 32.4626L40.1363 32.422L40.0957 32.3792L40.0191 32.4603C39.6111 32.8661 39.0566 33.1162 38.4458 33.1162C37.8327 33.1162 37.276 32.866 36.8725 32.4626L36.8364 32.422L36.7959 32.3792L36.7192 32.4603C36.3113 32.866 35.7568 33.1162 35.1459 33.1162C34.5329 33.1162 33.9762 32.866 33.5727 32.4626L33.5366 32.422L33.496 32.3792L33.4194 32.4603C33.0114 32.866 32.4569 33.1162 31.8461 33.1162C31.233 33.1162 30.6763 32.866 30.2728 32.4626L30.2368 32.422L30.1962 32.3792L30.1196 32.4603C29.7116 32.866 29.1571 33.1162 28.5463 33.1162C28.1586 33.1162 27.7912 33.0148 27.4734 32.839V47.6341H34.5666V35.1926L34.5713 35.1927ZM36.7689 19.0248C36.4623 18.5177 36.3519 17.9091 36.424 17.2848C36.5435 16.417 36.9334 15.6664 37.551 15.0466C37.7268 14.8708 37.9229 14.7063 38.1347 14.562C38.3466 14.4178 38.5652 14.2938 38.7861 14.1969C39.0769 14.0706 39.4173 14.2036 39.5435 14.4944C39.6696 14.7851 39.5367 15.1255 39.2459 15.2517C39.0882 15.3216 38.9349 15.4072 38.7884 15.5087C38.6509 15.6033 38.5089 15.7228 38.3691 15.8625C37.9612 16.2705 37.6321 16.8385 37.569 17.42C37.5127 17.9024 37.6321 18.3554 37.9387 18.6642C38.2474 18.9752 38.7005 19.0924 39.1851 19.0361C39.7464 18.9707 40.3571 18.6484 40.7426 18.2382C40.8823 18.0984 41.0018 17.9564 41.0987 17.8167C41.2001 17.6702 41.2858 17.5146 41.3557 17.3591C41.4819 17.0684 41.8222 16.9354 42.113 17.0616C42.4038 17.1878 42.5367 17.5282 42.4105 17.8189C42.3136 18.0398 42.1896 18.2607 42.0454 18.4703C41.9011 18.6822 41.7366 18.8783 41.5608 19.0541C40.8959 19.6604 40.2354 20.0729 39.3226 20.181C38.6983 20.2554 38.0897 20.1427 37.5826 19.8362L36.0837 21.3396L39.681 24.9369C39.9064 25.1623 39.9064 25.5274 39.681 25.7529C39.4556 25.9783 39.0905 25.9783 38.865 25.7529L35.2677 22.1555L31.8688 25.5545C31.6434 25.7799 31.2782 25.7799 31.0528 25.5545C30.8274 25.3291 30.8274 24.964 31.0528 24.7385L34.4518 21.3396L33.0025 19.8903C32.4953 20.1946 31.889 20.305 31.2647 20.2307C30.4871 20.1382 29.6779 19.7551 29.0265 19.1037C28.3751 18.4523 27.9897 17.6409 27.8973 16.8633C27.8004 16.0383 28.0258 15.2427 28.5983 14.6679C29.1708 14.0954 29.9687 13.87 30.7959 13.967C31.5758 14.0594 32.3849 14.4425 33.0363 15.0939C33.6877 15.7453 34.0731 16.5568 34.1633 17.3343C34.2376 17.9587 34.1272 18.5672 33.8229 19.0721L35.2722 20.5214L36.7756 19.0225L36.7689 19.0248ZM30.656 15.1142C30.1737 15.0579 29.7206 15.1773 29.4119 15.4861C29.1031 15.7949 28.9836 16.248 29.04 16.7303C29.1031 17.26 29.3735 17.8234 29.8401 18.2878C30.3067 18.7543 30.8679 19.0248 31.3976 19.0879C31.8281 19.1375 32.3352 19.0428 32.6417 18.716C32.9685 18.4095 33.0632 17.9 33.0136 17.4718C32.9505 16.9399 32.68 16.3787 32.2135 15.9144C31.7492 15.4501 31.1857 15.1774 30.656 15.1142ZM42.2436 27.4254C42.7214 27.4254 43.1541 27.6192 43.4675 27.9325C43.7808 28.2458 43.9746 28.6786 43.9746 29.1564V47.6364H46.4224V8.36781H23.9074V47.6364H26.3236V29.1564C26.3236 28.6786 26.5175 28.2458 26.8308 27.9325C27.1441 27.6192 27.5769 27.4254 28.0547 27.4254H42.2436ZM42.2436 28.5794H40.6748V30.8919C40.6748 31.1669 40.7875 31.4599 40.9903 31.6493C41.1842 31.8431 41.4547 31.9648 41.7477 31.9648C42.0452 31.9648 42.3134 31.8454 42.505 31.6515C42.7146 31.4419 42.8205 31.1714 42.8205 30.8784V29.1586C42.8205 29.0009 42.7552 28.8566 42.6515 28.7507C42.5478 28.647 42.4036 28.5816 42.2435 28.5816L42.2436 28.5794ZM39.5208 28.5794H37.375V30.8919C37.375 31.1692 37.4854 31.4577 37.6905 31.6493C37.8844 31.8431 38.1548 31.9648 38.4478 31.9648C38.7454 31.9648 39.0136 31.8454 39.2052 31.6515C39.408 31.4487 39.5207 31.1782 39.5207 30.8919L39.5208 28.5794ZM36.2209 28.5794H34.0751V30.8919C34.0751 31.1669 34.1878 31.4599 34.3907 31.6493C34.5845 31.8431 34.855 31.9648 35.148 31.9648C35.4456 31.9648 35.7138 31.8454 35.9054 31.6515C36.1082 31.4487 36.2209 31.1782 36.2209 30.8919L36.2209 28.5794ZM32.9211 28.5794H30.7753V30.8919C30.7753 31.1692 30.8858 31.4577 31.0909 31.6493C31.2847 31.8431 31.5552 31.9648 31.8482 31.9648C32.1457 31.9648 32.414 31.8454 32.6055 31.6515C32.8084 31.4487 32.9211 31.1782 32.9211 30.8919L32.9211 28.5794ZM29.6213 28.5794H28.0525C27.8948 28.5794 27.7505 28.6447 27.6446 28.7484C27.5409 28.8521 27.4755 28.9964 27.4755 29.1564V30.8762C27.4755 31.1602 27.5792 31.4509 27.7911 31.647C27.9849 31.8408 28.2554 31.9626 28.5484 31.9626C28.8459 31.9626 29.1141 31.8431 29.3057 31.6493C29.5086 31.4464 29.6213 31.1759 29.6213 30.8897V28.5771L29.6213 28.5794ZM51.0879 36.3644H52.7513V33.4343H51.0879V36.3644ZM53.9053 36.3644H55.5687V33.4343H53.9053V36.3644ZM55.5687 37.5184H53.9053V39.7634H55.5687V37.5184ZM52.7513 37.5184H51.0879V39.7634H52.7513V37.5184ZM51.0879 32.278H52.7513V29.3479H51.0879V32.278ZM53.9053 32.278H55.5687V29.3479H53.9053V32.278ZM51.0879 28.1939H52.7513V25.2638H51.0879V28.1939ZM53.9053 28.1939H55.5687V25.2638H53.9053V28.1939ZM51.0879 24.1097H52.7513V21.1796H51.0879V24.1097ZM53.9053 24.1097H55.5687V21.1796H53.9053V24.1097ZM51.0879 20.0233H52.7513V17.7784H51.0879V20.0233ZM53.9053 20.0233H55.5687V17.7784H53.9053V20.0233ZM50.5109 16.6244H56.1457C56.4635 16.6244 56.7228 16.8836 56.7228 17.2014V20.6162V40.343C56.7228 40.6608 56.4635 40.92 56.1457 40.92H50.5109C50.1931 40.92 49.9339 40.6608 49.9339 40.343V17.202C49.9339 16.8842 50.1931 16.6244 50.5109 16.6244ZM14.7609 36.3668H16.4244V33.4367H14.7609V36.3668ZM17.5784 36.3668H19.2418V33.4367H17.5784V36.3668ZM19.2418 37.5209H17.5784V39.7658H19.2418V37.5209ZM16.4244 37.5209H14.7609V39.7658H16.4244V37.5209ZM14.7609 32.2804H16.4244V29.3503H14.7609V32.2804ZM17.5784 32.2804H19.2418V29.3503H17.5784V32.2804ZM14.7609 28.1963H16.4244V25.2662H14.7609V28.1963ZM17.5784 28.1963H19.2418V25.2662H17.5784V28.1963ZM14.7609 24.1122H16.4244V21.182H14.7609V24.1122ZM17.5784 24.1122H19.2418V21.182H17.5784V24.1122ZM14.7609 20.0258H16.4244V17.7808H14.7609V20.0258ZM17.5784 20.0258H19.2418V17.7808H17.5784V20.0258ZM14.1839 16.6268H19.8188C20.1366 16.6268 20.3958 16.886 20.3958 17.2038V40.3449C20.3958 40.6627 20.1366 40.9219 19.8188 40.9219H14.1839C13.8661 40.9219 13.6069 40.6627 13.6069 40.3449V17.2038C13.6069 16.886 13.8661 16.6268 14.1839 16.6268ZM10.2305 48.7952C10.0727 48.7952 9.92845 48.8606 9.82251 48.9643C9.71883 49.068 9.65347 49.2122 9.65347 49.3722V50.8531H60.6763V49.3722C60.6763 49.2145 60.611 49.0702 60.5073 48.9643C60.4036 48.8606 60.2593 48.7952 60.0993 48.7952H10.2282H10.2305ZM59.0803 47.6412V13.9945H47.5758V47.6412H59.0803ZM22.7534 47.6412V13.9945H11.2489V47.6412H22.7534ZM47.5764 10.7823V12.8401H60.6763V10.7823H47.5764ZM22.7534 12.8401V10.7823H9.65347V12.8401H22.7534ZM47.6053 7.21875V5.16089H22.7239V7.21875H47.6053Z" fill="#1D3D91"/>
</svg>
