<svg width="32" height="32" viewBox="0 0 32 32" fill="none" xmlns="http://www.w3.org/2000/svg">
<rect width="32" height="32" rx="4" fill="#FAFBFB"/>
<path d="M19.3333 9.33333C20.2167 9.33333 21.0542 9.68333 21.6875 10.3125C22.3208 10.9417 22.6667 11.7833 22.6667 12.6667V19.3333C22.6667 20.2167 22.3167 21.0542 21.6875 21.6875C21.0583 22.3208 20.2167 22.6667 19.3333 22.6667H12.6667C11.7833 22.6667 10.9458 22.3167 10.3125 21.6875C9.67917 21.0583 9.33333 20.2167 9.33333 19.3333V12.6667C9.33333 11.7833 9.68333 10.9458 10.3125 10.3125C10.9417 9.67917 11.7833 9.33333 12.6667 9.33333H19.3333ZM19.3333 8H12.6667C10.1 8 8 10.1 8 12.6667V19.3333C8 21.9 10.1 24 12.6667 24H19.3333C21.9 24 24 21.9 24 19.3333V12.6667C24 10.1 21.9 8 19.3333 8Z" fill="#29306C"/>
<path d="M20.3333 12.6667C19.7792 12.6667 19.3333 12.2208 19.3333 11.6667C19.3333 11.1125 19.7792 10.6667 20.3333 10.6667C20.8833 10.6667 21.3333 11.1125 21.3333 11.6667C21.3333 12.2208 20.8833 12.6667 20.3333 12.6667ZM16 13.3333C17.4708 13.3333 18.6667 14.5292 18.6667 16C18.6667 17.4708 17.4708 18.6667 16 18.6667C14.5292 18.6667 13.3333 17.4708 13.3333 16C13.3333 14.5292 14.5292 13.3333 16 13.3333ZM16 12C13.7917 12 12 13.7917 12 16C12 18.2083 13.7917 20 16 20C18.2083 20 20 18.2083 20 16C20 13.7917 18.2083 12 16 12Z" fill="#29306C"/>
</svg>
