<svg width="70" height="56" viewBox="0 0 70 56" fill="none" xmlns="http://www.w3.org/2000/svg">
<path d="M19.6425 38.6311C19.6468 38.6397 19.6519 38.6506 19.6579 38.665C19.7595 38.8975 19.9424 39.0794 20.173 39.176C20.4034 39.2735 20.6554 39.2768 20.8838 39.1868C20.8945 39.1826 20.9055 39.177 20.9173 39.1715L29.8616 35.258C29.9148 35.2349 29.9722 35.2229 30.0303 35.2229H53.8892C54.4244 35.2229 54.86 34.7755 54.86 34.2272C54.86 33.6779 54.4244 33.2305 53.8892 33.2305H29.7713C29.7629 33.2305 29.7547 33.2315 29.7464 33.2315C29.7379 33.2327 29.7296 33.2327 29.7211 33.2337C29.6017 33.2359 29.4942 33.2612 29.3723 33.3128C29.3689 33.3138 29.3654 33.316 29.3619 33.3171C27.3541 34.111 25.2585 35.0584 23.2322 35.975C22.2195 36.4324 21.1722 36.9061 20.1624 37.3479C19.9238 37.4521 19.7395 37.644 19.6427 37.8897C19.5487 38.1299 19.5487 38.3919 19.6425 38.6311ZM20.5435 40.0948C20.3075 40.0948 20.0712 40.0465 19.8465 39.9524C19.4177 39.7725 19.0779 39.437 18.889 39.0081C18.884 38.9992 18.877 38.984 18.8663 38.9565C18.6867 38.5158 18.684 38.0268 18.8591 37.5816C19.0378 37.1276 19.3809 36.7701 19.8251 36.5761C20.83 36.1364 21.8747 35.6637 22.8852 35.2075C24.919 34.2875 27.0221 33.3368 29.0471 32.5364C29.2597 32.4464 29.4693 32.3993 29.6878 32.3916C29.7153 32.3894 29.743 32.3884 29.7713 32.3884H53.8892C54.8888 32.3884 55.7021 33.213 55.7021 34.2272C55.7021 35.2403 54.8888 36.0649 53.8892 36.0649H30.1185L21.2495 39.9457C21.2356 39.9534 21.2233 39.9588 21.2127 39.962C20.997 40.0509 20.7704 40.0948 20.5435 40.0948Z" fill="#1D3D91"/>
<path d="M20.9342 51.1577H53.7355V36.0649H30.118L21.2491 39.9457C21.2351 39.9534 21.2228 39.9588 21.2123 39.962C21.1213 39.9993 21.0285 40.029 20.9342 40.0498V51.1577ZM54.1566 51.9999H20.5131C20.2806 51.9999 20.092 51.8113 20.092 51.5788V39.6727C20.092 39.5597 20.1378 39.4512 20.2188 39.3711C20.2998 39.2921 20.407 39.2461 20.5226 39.2516C20.6463 39.2548 20.7675 39.233 20.8834 39.1868C20.8941 39.1826 20.9051 39.1769 20.9169 39.1715L29.8612 35.2579C29.9144 35.2349 29.9718 35.2228 30.0298 35.2228H53.8888C53.9509 35.2228 54.0132 35.2163 54.0734 35.2042C54.1974 35.1791 54.3259 35.2109 54.4235 35.2909C54.5207 35.3709 54.5774 35.4903 54.5774 35.6165V51.5788C54.5774 51.8113 54.3891 51.9999 54.1566 51.9999Z" fill="#1D3D91"/>
<path d="M33.967 52C33.7345 52 33.5458 51.8113 33.5458 51.5789V42.5652H30.3548V51.5789C30.3548 51.8113 30.166 52 29.9337 52C29.7011 52 29.5126 51.8113 29.5126 51.5789V42.1442C29.5126 41.9118 29.7011 41.7231 29.9337 41.7231H33.967C34.1995 41.7231 34.388 41.9118 34.388 42.1442V51.5789C34.388 51.8113 34.1995 52 33.967 52Z" fill="#1D3D91"/>
<path d="M44.7365 52C44.5039 52 44.3154 51.8113 44.3154 51.5789V42.5652H41.1244V51.5789C41.1244 51.8113 40.9357 52 40.7033 52C40.4707 52 40.2822 51.8113 40.2822 51.5789V42.1442C40.2822 41.9118 40.4707 41.7231 40.7033 41.7231H44.7365C44.9691 41.7231 45.1576 41.9118 45.1576 42.1442V51.5789C45.1576 51.8113 44.9691 52 44.7365 52Z" fill="#1D3D91"/>
<path d="M24.2862 46.9615H26.1606V44.4087H24.2862V46.9615ZM26.5817 47.8034H23.8651C23.6325 47.8034 23.444 47.6161 23.444 47.3826V43.9876C23.444 43.7551 23.6325 43.5665 23.8651 43.5665H26.5817C26.8142 43.5665 27.0028 43.7551 27.0028 43.9876V47.3826C27.0028 47.6161 26.8142 47.8034 26.5817 47.8034Z" fill="#1D3D91"/>
<path d="M30.3342 39.346H44.3361V38.4413H30.3342V39.346ZM44.757 40.188H29.9132C29.6807 40.188 29.4921 39.9994 29.4921 39.7671V38.0202C29.4921 37.7877 29.6807 37.5991 29.9132 37.5991H44.757C44.9898 37.5991 45.1781 37.7877 45.1781 38.0202V39.7671C45.1781 39.9994 44.9898 40.188 44.757 40.188Z" fill="#1D3D91"/>
<path d="M43.1912 33.2305C43.1848 33.2305 43.1784 33.2305 43.172 33.2305C42.9395 33.2194 42.7597 33.0232 42.7703 32.7907L43.1191 25.0438L43.5997 14.1068C43.6099 13.8745 43.809 13.6946 44.0388 13.7056C44.2709 13.7154 44.4511 13.9118 44.441 14.1441L43.9605 25.081L43.6114 32.8292C43.6011 33.0551 43.415 33.2305 43.1912 33.2305ZM47.3285 33.2305C47.1058 33.2305 46.9198 33.0561 46.9084 32.8314L45.9554 14.1672C45.9437 13.9348 46.1223 13.7363 46.3546 13.7253C46.5864 13.7166 46.7849 13.892 46.7966 14.1233L47.7494 32.7887C47.7613 33.021 47.5826 33.2184 47.3504 33.2305C47.3431 33.2305 47.3358 33.2305 47.3285 33.2305Z" fill="#1D3D91"/>
<path d="M25.1267 35.0814C24.8941 35.0814 24.7056 34.8929 24.7056 34.6603V28.9792C24.7056 28.7468 24.8941 28.5581 25.1267 28.5581C25.3592 28.5581 25.5478 28.7468 25.5478 28.9792V34.6603C25.5478 34.8929 25.3592 35.0814 25.1267 35.0814ZM20.5347 52H14.6737C14.4411 52 14.2527 51.8113 14.2527 51.5789V28.9792C14.2527 28.8499 14.3125 28.7271 14.4149 28.647C14.5174 28.568 14.651 28.5395 14.7767 28.5713C14.8222 28.5832 14.869 28.5889 14.9161 28.5889C15.1485 28.5889 15.3372 28.7775 15.3372 29.01C15.3372 29.1787 15.2379 29.3236 15.0947 29.3916V51.1578H20.5347C20.7673 51.1578 20.9556 51.3463 20.9556 51.5789C20.9556 51.8113 20.7673 52 20.5347 52Z" fill="#1D3D91"/>
<path d="M14.9164 26.5199C14.5998 26.5199 14.3423 26.7775 14.3423 27.0944V28.0144C14.3423 28.3313 14.5998 28.589 14.9164 28.589H24.8846C25.2012 28.589 25.4586 28.3313 25.4586 28.0144V27.0944C25.4586 26.7775 25.2012 26.5199 24.8846 26.5199H14.9164ZM24.8846 29.4312H14.9164C14.1355 29.4312 13.5002 28.7951 13.5002 28.0144V27.0944C13.5002 26.3136 14.1355 25.6777 14.9164 25.6777H24.8846C25.6654 25.6777 26.3008 26.3136 26.3008 27.0944V28.0144C26.3008 28.7951 25.6654 29.4312 24.8846 29.4312Z" fill="#1D3D91"/>
<path d="M35.0544 33.2306C34.8219 33.2306 34.6333 33.042 34.6333 32.8095V25.3607C34.6333 25.1283 34.8219 24.9396 35.0544 24.9396C35.2869 24.9396 35.4755 25.1283 35.4755 25.3607V32.8095C35.4755 33.042 35.2869 33.2306 35.0544 33.2306ZM39.7959 33.2306C39.5634 33.2306 39.3748 33.042 39.3748 32.8095V25.3607C39.3748 25.1283 39.5634 24.9396 39.7959 24.9396C40.0284 24.9396 40.2168 25.1283 40.2168 25.3607V32.8095C40.2168 33.042 40.0284 33.2306 39.7959 33.2306Z" fill="#1D3D91"/>
<path d="M35.1168 24.0142C34.8611 24.0142 34.653 24.2226 34.653 24.4781C34.653 24.7347 34.8611 24.9419 35.1168 24.9419H39.7323C39.9882 24.9419 40.1964 24.7347 40.1964 24.4781C40.1964 24.2226 39.9882 24.0142 39.7323 24.0142H35.1168ZM39.7323 25.7841H35.1168C34.3968 25.7841 33.8109 25.1987 33.8109 24.4781C33.8109 23.7587 34.3968 23.1722 35.1168 23.1722H39.7323C40.4524 23.1722 41.0384 23.7587 41.0384 24.4781C41.0384 25.1987 40.4524 25.7841 39.7323 25.7841Z" fill="#1D3D91"/>
<path d="M35.226 12.1695C35.3296 12.1695 35.4313 12.2078 35.5098 12.279C36.0798 12.7998 37.0188 12.9798 37.6941 12.699C37.98 12.5806 38.1873 12.3952 38.2939 12.165C38.3514 12.0411 38.4657 11.9522 38.6005 11.928C38.735 11.9028 38.8735 11.9456 38.9711 12.0422C39.5388 12.6002 40.4983 12.7998 41.2032 12.5071C41.6278 12.3306 41.8748 12.0103 41.8809 11.631C41.8834 11.4807 41.9657 11.3427 42.0973 11.2691C42.229 11.1967 42.3894 11.199 42.5184 11.2769C44.0838 12.2142 44.5984 12.2461 44.7229 12.2319C44.7333 12.1091 44.6973 11.5927 43.7853 10.1122C43.1356 9.05744 42.3967 8.08912 42.3894 8.07916C41.8845 7.41888 40.8358 7.12413 40.0508 7.42154C39.9312 7.46639 39.7974 7.45421 39.6871 7.38965C39.5769 7.32377 39.5025 7.21182 39.4849 7.0857C39.4585 6.89514 39.3753 6.70723 39.2374 6.52752C38.7242 5.85651 37.6313 5.56252 36.8511 5.88829C36.6881 5.95494 36.5499 6.0453 36.4405 6.15381C36.3544 6.24018 36.2357 6.28292 36.1142 6.2755C35.9931 6.26764 35.8813 6.20752 35.808 6.10985C35.807 6.10886 35.8018 6.10244 35.8009 6.10111C34.9494 4.98696 33.2014 4.51902 31.9057 5.05849C31.4894 5.23156 31.1635 5.49498 30.9629 5.82152C30.8512 6.00256 30.6215 6.07276 30.428 5.98252C29.5363 5.57127 28.5231 5.52632 27.7182 5.86083C27.1339 6.10454 26.7371 6.51888 26.6004 7.02901C26.464 7.53747 26.6004 8.09566 26.9848 8.59781C27.748 9.59569 29.274 10.0959 30.5342 9.75913C30.6502 9.72846 30.774 9.74817 30.8743 9.81516C30.9746 9.88082 31.042 9.98612 31.0593 10.1057C31.1066 10.4291 31.2474 10.746 31.4778 11.0476C32.2529 12.0607 33.8466 12.5609 35.106 12.187C35.1454 12.1749 35.1859 12.1695 35.226 12.1695ZM36.9789 13.6771C36.3225 13.6771 35.652 13.4589 35.123 13.0521C33.5709 13.4107 31.7524 12.7922 30.809 11.5596C30.5902 11.2734 30.4293 10.9719 30.3276 10.6606C28.8358 10.8865 27.2048 10.2712 26.316 9.11004C25.7692 8.39496 25.5813 7.578 25.7869 6.81054C25.9926 6.04308 26.5637 5.42998 27.3948 5.08373C28.3153 4.70084 29.4382 4.70515 30.4591 5.08462C30.7445 4.74491 31.1271 4.4693 31.5823 4.28095C33.0811 3.65689 35.0619 4.10866 36.2006 5.27773C36.3022 5.21406 36.4116 5.15825 36.5277 5.10987C37.67 4.63495 39.1546 5.0318 39.9065 6.01562C40.0261 6.17264 40.1226 6.33917 40.1935 6.51102C41.2348 6.31957 42.4233 6.73824 43.0582 7.56848C43.0921 7.61211 43.8951 8.6648 44.5859 9.80752C45.562 11.4227 45.793 12.3185 45.3582 12.8053C44.9329 13.2824 44.0916 13.1299 42.5859 12.2888C42.3995 12.721 42.0309 13.0751 41.5265 13.2845C40.6607 13.6443 39.5709 13.5016 38.7679 12.9577C38.5723 13.176 38.3189 13.3514 38.0176 13.4765C37.6925 13.6124 37.3377 13.6771 36.9789 13.6771Z" fill="#1D3D91"/>
<path d="M46.3761 14.5665H46.3723L44.0167 14.5468C43.784 14.5446 43.5971 14.3548 43.599 14.1224C43.601 13.8909 43.7891 13.7046 44.0201 13.7046H44.0237L46.3795 13.7244C46.612 13.7266 46.7988 13.9162 46.797 14.1487C46.795 14.38 46.6069 14.5665 46.3761 14.5665Z" fill="#1D3D91"/>
</svg>
