<svg width="24" height="25" viewBox="0 0 24 25" fill="none" xmlns="http://www.w3.org/2000/svg">
<path d="M11.9999 14.67C9.86988 14.67 8.12988 12.94 8.12988 10.8C8.12988 8.66 9.86988 6.94 11.9999 6.94C14.1299 6.94 15.8699 8.67 15.8699 10.81C15.8699 12.95 14.1299 14.67 11.9999 14.67ZM11.9999 8.44C10.6999 8.44 9.62988 9.5 9.62988 10.81C9.62988 12.12 10.6899 13.18 11.9999 13.18C13.3099 13.18 14.3699 12.12 14.3699 10.81C14.3699 9.5 13.2999 8.44 11.9999 8.44Z" fill="#FBFCFE"/>
<path d="M11.9999 23.26C10.5199 23.26 9.02993 22.7 7.86993 21.59C4.91993 18.75 1.65993 14.22 2.88993 8.83C3.99993 3.94 8.26993 1.75 11.9999 1.75C11.9999 1.75 11.9999 1.75 12.0099 1.75C15.7399 1.75 20.0099 3.94 21.1199 8.84C22.3399 14.23 19.0799 18.75 16.1299 21.59C14.9699 22.7 13.4799 23.26 11.9999 23.26ZM11.9999 3.25C9.08993 3.25 5.34993 4.8 4.35993 9.16C3.27993 13.87 6.23993 17.93 8.91993 20.5C10.6499 22.17 13.3599 22.17 15.0899 20.5C17.7599 17.93 20.7199 13.87 19.6599 9.16C18.6599 4.8 14.9099 3.25 11.9999 3.25Z" fill="#FBFCFE"/>
</svg>
