<svg width="56" height="50" viewBox="0 0 56 50" fill="none" xmlns="http://www.w3.org/2000/svg">
<mask id="path-1-outside-1_5298_932" maskUnits="userSpaceOnUse" x="-0.0450439" y="0" width="56" height="50" fill="black">
<rect fill="white" x="-0.0450439" width="56" height="50"/>
<path d="M43.679 5.3123C43.679 2.93478 41.7442 1 39.3667 1C37.148 1 35.3158 2.68527 35.0813 4.8433H20.9187C20.6842 2.6859 18.852 1 16.6333 1C14.2552 1 12.321 2.93478 12.321 5.3123C12.321 6.73681 13.0189 7.99936 14.087 8.78541L7.00256 21.0551C6.47103 20.82 5.88446 20.6868 5.26726 20.6868C2.88911 20.6868 0.954956 22.6215 0.954956 24.9991C0.954956 27.3766 2.88974 29.3114 5.26726 29.3114C5.88446 29.3114 6.47165 29.1782 7.00256 28.943L14.087 41.2146C13.0189 42.0006 12.321 43.2626 12.321 44.6877C12.321 47.0652 14.2558 49 16.6333 49C18.852 49 20.6842 47.3147 20.9187 45.1567H35.0813C35.3158 47.3141 37.148 49 39.3667 49C41.7449 49 43.679 47.0652 43.679 44.6877C43.679 43.2632 42.9811 42.0006 41.9131 41.2146L48.9975 28.9443C49.529 29.1794 50.1156 29.3126 50.7328 29.3126C53.1109 29.3126 55.0451 27.3778 55.0451 25.0003C55.0451 22.6228 53.1103 20.688 50.7328 20.688C50.1156 20.688 49.5284 20.8212 48.9975 21.0563L41.9131 8.78478C42.9811 7.99874 43.679 6.73681 43.679 5.3123ZM39.029 24.9997L38.7576 25.4687L33.8075 34.0414L33.5136 34.5498H33.019H22.5083H22.4865L21.9599 33.6381L17.2437 25.4687L16.9729 24.9997L17.2437 24.5307L22.0593 16.1887L22.4865 15.449H22.7103H32.817H33.5136L33.7081 15.7854L38.7576 24.5301L39.029 24.9997ZM33.3773 14.5116H22.1506L18.8601 8.99865C19.9807 8.31891 20.7705 7.14703 20.9187 5.7813H35.0813C35.2145 7.00508 35.863 8.07315 36.8028 8.77165L33.3773 14.5116ZM16.6333 8.6866C16.1862 8.6866 15.761 8.59531 15.3708 8.43647L16.9035 5.7813H19.9595C19.7287 7.41843 18.333 8.6866 16.6333 8.6866ZM36.0399 5.7813H39.0959L40.6286 8.43647C40.2384 8.59531 39.8132 8.6866 39.3661 8.6866C37.6671 8.6866 36.2713 7.41843 36.0399 5.7813ZM13.259 5.3123C13.259 3.45193 14.773 1.938 16.6333 1.938C18.333 1.938 19.7287 3.20555 19.9595 4.8433H16.3626L14.5641 7.95809C13.7756 7.33963 13.259 6.38913 13.259 5.3123ZM14.8974 9.25628C15.4296 9.49141 16.0155 9.62461 16.6333 9.62461C17.1136 9.62461 17.5738 9.54206 18.0053 9.39698L21.5091 15.267L16.1599 24.5307H9.55205C9.41823 23.2994 8.76225 22.2251 7.81362 21.5272L14.8974 9.25628ZM7.33586 27.6449L5.8088 24.9997L7.33586 22.3545C8.12441 22.9724 8.64093 23.9229 8.64093 24.9997C8.64093 26.0765 8.12441 27.027 7.33586 27.6449ZM5.26663 28.374C3.40564 28.374 1.89233 26.8601 1.89233 24.9997C1.89233 23.1393 3.40626 21.6254 5.26663 21.6254C5.71375 21.6254 6.13835 21.7167 6.52918 21.8755L4.72509 24.9997L6.52918 28.1239C6.13835 28.2827 5.71375 28.374 5.26663 28.374ZM7.81362 28.4722C8.76287 27.7743 9.41823 26.7 9.55205 25.4687H16.1599L21.4096 34.5604L17.8352 40.5486C17.4538 40.4373 17.0504 40.3748 16.6333 40.3748C16.0155 40.3748 15.4289 40.508 14.8974 40.7425L7.81362 28.4722ZM19.9601 44.2181H16.9041L15.3714 41.5629C15.7616 41.4041 16.1868 41.3128 16.634 41.3128C18.333 41.3128 19.7287 42.581 19.9601 44.2181ZM16.6333 48.0614C14.7723 48.0614 13.259 46.5474 13.259 44.6871C13.259 43.6096 13.7756 42.6597 14.5647 42.0413L16.3632 45.1561H19.9601C19.7287 46.7938 18.333 48.0614 16.6333 48.0614ZM42.741 44.6871C42.741 46.5474 41.2271 48.0614 39.3667 48.0614C37.6671 48.0614 36.2713 46.7938 36.0406 45.1561H39.6375L41.4359 42.0413C42.2245 42.6597 42.741 43.6103 42.741 44.6871ZM36.0399 44.2181C36.2707 42.581 37.6671 41.3128 39.3661 41.3128C39.8132 41.3128 40.2384 41.4041 40.6286 41.5629L39.0959 44.2181H36.0399ZM41.1026 40.7425C40.5705 40.508 39.9845 40.3748 39.3667 40.3748C37.148 40.3748 35.3158 42.0601 35.0813 44.2181H20.9187C20.7637 42.7929 19.912 41.5735 18.7119 40.9107L21.9487 35.4878H33.5799L36.9204 41.0839L37.7252 40.6024L34.3584 34.9625L39.842 25.4674H46.4486C46.5824 26.6987 47.2384 27.773 48.187 28.4709L41.1026 40.7425ZM48.6642 22.3545L50.1912 24.9997L48.6642 27.6449C47.8756 27.027 47.3591 26.0765 47.3591 24.9997C47.3591 23.9229 47.8756 22.9724 48.6642 22.3545ZM50.7334 21.6254C52.5944 21.6254 54.1077 23.1393 54.1077 24.9997C54.1077 26.8601 52.5938 28.374 50.7334 28.374C50.2863 28.374 49.8617 28.2827 49.4709 28.1239L51.2749 24.9997L49.4709 21.8755C49.8617 21.7167 50.2863 21.6254 50.7334 21.6254ZM48.1864 21.5272C47.2372 22.2251 46.5818 23.2994 46.448 24.5307H39.8413L34.2584 14.8637L37.6108 9.24753C38.1479 9.48828 38.7414 9.62523 39.3667 9.62523C39.9845 9.62523 40.5711 9.49203 41.1026 9.25691L48.1864 21.5272ZM39.6369 4.8433H36.0399C36.2707 3.20618 37.6671 1.938 39.3661 1.938C41.2271 1.938 42.7404 3.45193 42.7404 5.3123C42.7404 6.38975 42.2239 7.33963 41.4347 7.95809L39.6369 4.8433Z"/>
</mask>
<path d="M43.679 5.3123C43.679 2.93478 41.7442 1 39.3667 1C37.148 1 35.3158 2.68527 35.0813 4.8433H20.9187C20.6842 2.6859 18.852 1 16.6333 1C14.2552 1 12.321 2.93478 12.321 5.3123C12.321 6.73681 13.0189 7.99936 14.087 8.78541L7.00256 21.0551C6.47103 20.82 5.88446 20.6868 5.26726 20.6868C2.88911 20.6868 0.954956 22.6215 0.954956 24.9991C0.954956 27.3766 2.88974 29.3114 5.26726 29.3114C5.88446 29.3114 6.47165 29.1782 7.00256 28.943L14.087 41.2146C13.0189 42.0006 12.321 43.2626 12.321 44.6877C12.321 47.0652 14.2558 49 16.6333 49C18.852 49 20.6842 47.3147 20.9187 45.1567H35.0813C35.3158 47.3141 37.148 49 39.3667 49C41.7449 49 43.679 47.0652 43.679 44.6877C43.679 43.2632 42.9811 42.0006 41.9131 41.2146L48.9975 28.9443C49.529 29.1794 50.1156 29.3126 50.7328 29.3126C53.1109 29.3126 55.0451 27.3778 55.0451 25.0003C55.0451 22.6228 53.1103 20.688 50.7328 20.688C50.1156 20.688 49.5284 20.8212 48.9975 21.0563L41.9131 8.78478C42.9811 7.99874 43.679 6.73681 43.679 5.3123ZM39.029 24.9997L38.7576 25.4687L33.8075 34.0414L33.5136 34.5498H33.019H22.5083H22.4865L21.9599 33.6381L17.2437 25.4687L16.9729 24.9997L17.2437 24.5307L22.0593 16.1887L22.4865 15.449H22.7103H32.817H33.5136L33.7081 15.7854L38.7576 24.5301L39.029 24.9997ZM33.3773 14.5116H22.1506L18.8601 8.99865C19.9807 8.31891 20.7705 7.14703 20.9187 5.7813H35.0813C35.2145 7.00508 35.863 8.07315 36.8028 8.77165L33.3773 14.5116ZM16.6333 8.6866C16.1862 8.6866 15.761 8.59531 15.3708 8.43647L16.9035 5.7813H19.9595C19.7287 7.41843 18.333 8.6866 16.6333 8.6866ZM36.0399 5.7813H39.0959L40.6286 8.43647C40.2384 8.59531 39.8132 8.6866 39.3661 8.6866C37.6671 8.6866 36.2713 7.41843 36.0399 5.7813ZM13.259 5.3123C13.259 3.45193 14.773 1.938 16.6333 1.938C18.333 1.938 19.7287 3.20555 19.9595 4.8433H16.3626L14.5641 7.95809C13.7756 7.33963 13.259 6.38913 13.259 5.3123ZM14.8974 9.25628C15.4296 9.49141 16.0155 9.62461 16.6333 9.62461C17.1136 9.62461 17.5738 9.54206 18.0053 9.39698L21.5091 15.267L16.1599 24.5307H9.55205C9.41823 23.2994 8.76225 22.2251 7.81362 21.5272L14.8974 9.25628ZM7.33586 27.6449L5.8088 24.9997L7.33586 22.3545C8.12441 22.9724 8.64093 23.9229 8.64093 24.9997C8.64093 26.0765 8.12441 27.027 7.33586 27.6449ZM5.26663 28.374C3.40564 28.374 1.89233 26.8601 1.89233 24.9997C1.89233 23.1393 3.40626 21.6254 5.26663 21.6254C5.71375 21.6254 6.13835 21.7167 6.52918 21.8755L4.72509 24.9997L6.52918 28.1239C6.13835 28.2827 5.71375 28.374 5.26663 28.374ZM7.81362 28.4722C8.76287 27.7743 9.41823 26.7 9.55205 25.4687H16.1599L21.4096 34.5604L17.8352 40.5486C17.4538 40.4373 17.0504 40.3748 16.6333 40.3748C16.0155 40.3748 15.4289 40.508 14.8974 40.7425L7.81362 28.4722ZM19.9601 44.2181H16.9041L15.3714 41.5629C15.7616 41.4041 16.1868 41.3128 16.634 41.3128C18.333 41.3128 19.7287 42.581 19.9601 44.2181ZM16.6333 48.0614C14.7723 48.0614 13.259 46.5474 13.259 44.6871C13.259 43.6096 13.7756 42.6597 14.5647 42.0413L16.3632 45.1561H19.9601C19.7287 46.7938 18.333 48.0614 16.6333 48.0614ZM42.741 44.6871C42.741 46.5474 41.2271 48.0614 39.3667 48.0614C37.6671 48.0614 36.2713 46.7938 36.0406 45.1561H39.6375L41.4359 42.0413C42.2245 42.6597 42.741 43.6103 42.741 44.6871ZM36.0399 44.2181C36.2707 42.581 37.6671 41.3128 39.3661 41.3128C39.8132 41.3128 40.2384 41.4041 40.6286 41.5629L39.0959 44.2181H36.0399ZM41.1026 40.7425C40.5705 40.508 39.9845 40.3748 39.3667 40.3748C37.148 40.3748 35.3158 42.0601 35.0813 44.2181H20.9187C20.7637 42.7929 19.912 41.5735 18.7119 40.9107L21.9487 35.4878H33.5799L36.9204 41.0839L37.7252 40.6024L34.3584 34.9625L39.842 25.4674H46.4486C46.5824 26.6987 47.2384 27.773 48.187 28.4709L41.1026 40.7425ZM48.6642 22.3545L50.1912 24.9997L48.6642 27.6449C47.8756 27.027 47.3591 26.0765 47.3591 24.9997C47.3591 23.9229 47.8756 22.9724 48.6642 22.3545ZM50.7334 21.6254C52.5944 21.6254 54.1077 23.1393 54.1077 24.9997C54.1077 26.8601 52.5938 28.374 50.7334 28.374C50.2863 28.374 49.8617 28.2827 49.4709 28.1239L51.2749 24.9997L49.4709 21.8755C49.8617 21.7167 50.2863 21.6254 50.7334 21.6254ZM48.1864 21.5272C47.2372 22.2251 46.5818 23.2994 46.448 24.5307H39.8413L34.2584 14.8637L37.6108 9.24753C38.1479 9.48828 38.7414 9.62523 39.3667 9.62523C39.9845 9.62523 40.5711 9.49203 41.1026 9.25691L48.1864 21.5272ZM39.6369 4.8433H36.0399C36.2707 3.20618 37.6671 1.938 39.3661 1.938C41.2271 1.938 42.7404 3.45193 42.7404 5.3123C42.7404 6.38975 42.2239 7.33963 41.4347 7.95809L39.6369 4.8433Z" fill="#0F1229"/>
<path d="M43.679 5.3123C43.679 2.93478 41.7442 1 39.3667 1C37.148 1 35.3158 2.68527 35.0813 4.8433H20.9187C20.6842 2.6859 18.852 1 16.6333 1C14.2552 1 12.321 2.93478 12.321 5.3123C12.321 6.73681 13.0189 7.99936 14.087 8.78541L7.00256 21.0551C6.47103 20.82 5.88446 20.6868 5.26726 20.6868C2.88911 20.6868 0.954956 22.6215 0.954956 24.9991C0.954956 27.3766 2.88974 29.3114 5.26726 29.3114C5.88446 29.3114 6.47165 29.1782 7.00256 28.943L14.087 41.2146C13.0189 42.0006 12.321 43.2626 12.321 44.6877C12.321 47.0652 14.2558 49 16.6333 49C18.852 49 20.6842 47.3147 20.9187 45.1567H35.0813C35.3158 47.3141 37.148 49 39.3667 49C41.7449 49 43.679 47.0652 43.679 44.6877C43.679 43.2632 42.9811 42.0006 41.9131 41.2146L48.9975 28.9443C49.529 29.1794 50.1156 29.3126 50.7328 29.3126C53.1109 29.3126 55.0451 27.3778 55.0451 25.0003C55.0451 22.6228 53.1103 20.688 50.7328 20.688C50.1156 20.688 49.5284 20.8212 48.9975 21.0563L41.9131 8.78478C42.9811 7.99874 43.679 6.73681 43.679 5.3123ZM39.029 24.9997L38.7576 25.4687L33.8075 34.0414L33.5136 34.5498H33.019H22.5083H22.4865L21.9599 33.6381L17.2437 25.4687L16.9729 24.9997L17.2437 24.5307L22.0593 16.1887L22.4865 15.449H22.7103H32.817H33.5136L33.7081 15.7854L38.7576 24.5301L39.029 24.9997ZM33.3773 14.5116H22.1506L18.8601 8.99865C19.9807 8.31891 20.7705 7.14703 20.9187 5.7813H35.0813C35.2145 7.00508 35.863 8.07315 36.8028 8.77165L33.3773 14.5116ZM16.6333 8.6866C16.1862 8.6866 15.761 8.59531 15.3708 8.43647L16.9035 5.7813H19.9595C19.7287 7.41843 18.333 8.6866 16.6333 8.6866ZM36.0399 5.7813H39.0959L40.6286 8.43647C40.2384 8.59531 39.8132 8.6866 39.3661 8.6866C37.6671 8.6866 36.2713 7.41843 36.0399 5.7813ZM13.259 5.3123C13.259 3.45193 14.773 1.938 16.6333 1.938C18.333 1.938 19.7287 3.20555 19.9595 4.8433H16.3626L14.5641 7.95809C13.7756 7.33963 13.259 6.38913 13.259 5.3123ZM14.8974 9.25628C15.4296 9.49141 16.0155 9.62461 16.6333 9.62461C17.1136 9.62461 17.5738 9.54206 18.0053 9.39698L21.5091 15.267L16.1599 24.5307H9.55205C9.41823 23.2994 8.76225 22.2251 7.81362 21.5272L14.8974 9.25628ZM7.33586 27.6449L5.8088 24.9997L7.33586 22.3545C8.12441 22.9724 8.64093 23.9229 8.64093 24.9997C8.64093 26.0765 8.12441 27.027 7.33586 27.6449ZM5.26663 28.374C3.40564 28.374 1.89233 26.8601 1.89233 24.9997C1.89233 23.1393 3.40626 21.6254 5.26663 21.6254C5.71375 21.6254 6.13835 21.7167 6.52918 21.8755L4.72509 24.9997L6.52918 28.1239C6.13835 28.2827 5.71375 28.374 5.26663 28.374ZM7.81362 28.4722C8.76287 27.7743 9.41823 26.7 9.55205 25.4687H16.1599L21.4096 34.5604L17.8352 40.5486C17.4538 40.4373 17.0504 40.3748 16.6333 40.3748C16.0155 40.3748 15.4289 40.508 14.8974 40.7425L7.81362 28.4722ZM19.9601 44.2181H16.9041L15.3714 41.5629C15.7616 41.4041 16.1868 41.3128 16.634 41.3128C18.333 41.3128 19.7287 42.581 19.9601 44.2181ZM16.6333 48.0614C14.7723 48.0614 13.259 46.5474 13.259 44.6871C13.259 43.6096 13.7756 42.6597 14.5647 42.0413L16.3632 45.1561H19.9601C19.7287 46.7938 18.333 48.0614 16.6333 48.0614ZM42.741 44.6871C42.741 46.5474 41.2271 48.0614 39.3667 48.0614C37.6671 48.0614 36.2713 46.7938 36.0406 45.1561H39.6375L41.4359 42.0413C42.2245 42.6597 42.741 43.6103 42.741 44.6871ZM36.0399 44.2181C36.2707 42.581 37.6671 41.3128 39.3661 41.3128C39.8132 41.3128 40.2384 41.4041 40.6286 41.5629L39.0959 44.2181H36.0399ZM41.1026 40.7425C40.5705 40.508 39.9845 40.3748 39.3667 40.3748C37.148 40.3748 35.3158 42.0601 35.0813 44.2181H20.9187C20.7637 42.7929 19.912 41.5735 18.7119 40.9107L21.9487 35.4878H33.5799L36.9204 41.0839L37.7252 40.6024L34.3584 34.9625L39.842 25.4674H46.4486C46.5824 26.6987 47.2384 27.773 48.187 28.4709L41.1026 40.7425ZM48.6642 22.3545L50.1912 24.9997L48.6642 27.6449C47.8756 27.027 47.3591 26.0765 47.3591 24.9997C47.3591 23.9229 47.8756 22.9724 48.6642 22.3545ZM50.7334 21.6254C52.5944 21.6254 54.1077 23.1393 54.1077 24.9997C54.1077 26.8601 52.5938 28.374 50.7334 28.374C50.2863 28.374 49.8617 28.2827 49.4709 28.1239L51.2749 24.9997L49.4709 21.8755C49.8617 21.7167 50.2863 21.6254 50.7334 21.6254ZM48.1864 21.5272C47.2372 22.2251 46.5818 23.2994 46.448 24.5307H39.8413L34.2584 14.8637L37.6108 9.24753C38.1479 9.48828 38.7414 9.62523 39.3667 9.62523C39.9845 9.62523 40.5711 9.49203 41.1026 9.25691L48.1864 21.5272ZM39.6369 4.8433H36.0399C36.2707 3.20618 37.6671 1.938 39.3661 1.938C41.2271 1.938 42.7404 3.45193 42.7404 5.3123C42.7404 6.38975 42.2239 7.33963 41.4347 7.95809L39.6369 4.8433Z" stroke="#0F1229" stroke-width="0.6" mask="url(#path-1-outside-1_5298_932)"/>
<path d="M29.8065 25.4116L29.5186 25.0619C29.7522 24.9482 29.9709 24.8106 30.1693 24.6502C30.8967 24.062 31.3606 23.1854 31.3606 22.2068C31.3606 21.6363 31.2015 21.1008 30.927 20.6364C30.7844 20.3953 30.6104 20.174 30.4098 19.9771C29.799 19.3756 28.9445 19 27.9996 19C26.9238 19 25.9672 19.4868 25.351 20.239C25.1643 20.4669 25.0079 20.7181 24.8913 20.9897C24.7291 21.3653 24.6381 21.7759 24.6381 22.2063C24.6381 23.1854 25.102 24.0615 25.8294 24.6497C26.0278 24.8096 26.246 24.9477 26.4801 25.0614L26.1922 25.4111L26.0539 25.5791L22.9999 26.9018V30H24.1379H25.0669H30.5301H31.459H32.9999V26.9018L29.9448 25.5791L29.8065 25.4116ZM32.2018 29.2397H30.9823H30.0534H25.5431H24.6141H23.798V27.3931L26.1667 26.3668L26.297 26.5496L26.7929 27.2429L27.1398 27.7291L27.9996 26.9627L28.8605 27.7286L28.9919 27.5444L29.4872 26.8505L29.8315 26.3673L32.2013 27.3931L32.2018 29.2397ZM25.4367 22.2068C25.4367 22.1058 25.4553 22.0089 25.4681 21.9109C25.5122 21.5678 25.6277 21.248 25.8049 20.9643C26.2523 20.2481 27.0643 19.7619 28.0001 19.7619C28.8004 19.7619 29.5069 20.1207 29.9773 20.6699C30.1725 20.8983 30.3231 21.1582 30.4226 21.4429C30.5067 21.685 30.5636 21.9388 30.5636 22.2068C30.5636 23.4097 29.6447 24.4066 28.4428 24.6076C28.3332 24.6259 28.2199 24.6355 28.1055 24.6401C28.0704 24.6411 28.0363 24.6502 28.0007 24.6502C27.8347 24.6502 27.6735 24.6325 27.5165 24.6035C27.3638 24.5751 27.2175 24.5315 27.076 24.4792C26.1188 24.1239 25.4367 23.2422 25.4367 22.2068ZM27.4505 26.411L27.2755 26.5668L27.2436 26.5227L26.802 25.9039L26.8147 25.8882L26.8993 25.7852L26.9903 25.8882L27.3702 26.3206L27.4505 26.411ZM27.9996 25.4116C28.1385 25.4116 28.2747 25.4009 28.4088 25.3852L28.3859 25.4116L27.9996 25.8501L27.8038 25.6278L27.7682 25.5867L27.6139 25.4116L27.591 25.3852C27.6096 25.3877 27.6282 25.3918 27.6469 25.3938C27.7437 25.4035 27.8416 25.407 27.9411 25.4085C27.9608 25.4091 27.9799 25.4116 27.9996 25.4116ZM29.1973 25.9039L29.0366 26.1293L28.7248 26.5668L28.5487 26.41L28.9366 25.9694L29.0084 25.8877L29.0994 25.7847L29.184 25.8877L29.1973 25.9039Z" fill="#4184C5"/>
</svg>
