<svg width="201" height="95" viewBox="0 0 201 95" fill="none" xmlns="http://www.w3.org/2000/svg">
<path d="M83.5637 57.853C70.0914 57.853 59.1289 46.9197 59.1289 33.4834C59.1289 20.0471 70.0914 9.09375 83.5637 9.09375C97.0359 9.09375 107.998 20.027 107.998 33.4633C107.998 46.8997 97.056 57.853 83.5637 57.853ZM83.5637 12.0974C71.7378 12.0974 62.1205 21.689 62.1205 33.4834C62.1205 45.2777 71.7378 54.8693 83.5637 54.8693C95.3895 54.8693 105.007 45.2777 105.007 33.4834C105.007 21.689 95.3895 12.0974 83.5637 12.0974Z" fill="#FBFCFE"/>
<path d="M83.564 53.8476C72.3003 53.8476 63.1247 44.7166 63.1247 33.4629C63.1247 22.2292 72.2803 13.0781 83.564 13.0781C94.8277 13.0781 104.003 22.2092 104.003 33.4629C104.003 44.7166 94.8277 53.8476 83.564 53.8476ZM83.564 14.9804C73.3243 14.9804 65.0121 23.2905 65.0121 33.4829C65.0121 43.6753 73.3444 51.9854 83.564 51.9854C93.7837 51.9854 102.116 43.6753 102.116 33.4829C102.116 23.2905 93.8038 14.9804 83.564 14.9804Z" fill="#FBFCFE"/>
<path d="M97.819 28.8572C96.6545 29.478 95.3093 29.8384 93.9038 29.8384C89.3261 29.8384 85.6117 26.1339 85.6117 21.5684C85.6117 20.5671 85.7924 19.626 86.1136 18.7449C85.2904 18.6048 84.4271 18.5247 83.5637 18.5247C75.2916 18.5247 68.5856 25.2128 68.5856 33.4628C68.5856 41.7128 75.2916 48.4009 83.5637 48.4009C91.8358 48.4009 98.5418 41.7128 98.5418 33.4628C98.5619 31.8609 98.3009 30.319 97.819 28.8572ZM83.5637 38.9895C80.5119 38.9895 78.0222 36.5065 78.0222 33.4628C78.0222 30.4191 80.5119 27.9361 83.5637 27.9361C86.6156 27.9361 89.1052 30.4191 89.1052 33.4628C89.1052 36.5265 86.6156 38.9895 83.5637 38.9895Z" fill="#4184C5"/>
<path d="M83.5639 36.3866C85.1718 36.3866 86.4752 35.0867 86.4752 33.4831C86.4752 31.8795 85.1718 30.5796 83.5639 30.5796C81.9561 30.5796 80.6526 31.8795 80.6526 33.4831C80.6526 35.0867 81.9561 36.3866 83.5639 36.3866Z" fill="#FBFCFE"/>
<path d="M42.5851 49.0422H44.4725L44.4524 39.8911L29.1329 39.9111V41.8134L42.545 41.7734L42.5851 49.0422Z" fill="#FBFCFE"/>
<path d="M24.2941 43.3352C23.6316 42.6744 23.2702 41.8133 23.2702 40.8722C23.2702 39.9511 23.6316 39.07 24.2941 38.4092C24.9567 37.7484 25.8201 37.3879 26.7637 37.3879C28.6912 37.3879 30.2573 38.9498 30.2573 40.8521C30.2573 42.7745 28.6912 44.3364 26.7838 44.3364C25.8803 44.3364 25.0169 43.996 24.3745 43.3752C24.3343 43.3752 24.3142 43.3552 24.2941 43.3352ZM26.7637 38.8898C26.2417 38.8898 25.7398 39.09 25.3784 39.4705C24.9969 39.8509 24.7961 40.3315 24.7961 40.8521C24.7961 41.3728 24.9969 41.8734 25.3784 42.2338C25.7598 42.5943 26.2417 42.8145 26.7637 42.8145C27.8479 42.8145 28.7314 41.9335 28.7314 40.8521C28.7314 40.2915 28.4904 39.7909 28.129 39.4304C27.7676 39.11 27.2858 38.8898 26.7637 38.8898Z" fill="#FBFCFE"/>
<path d="M42.5844 49.2824L50.736 49.2624V47.3801H42.5844V49.2824Z" fill="#FBFCFE"/>
<path d="M55.5746 45.8379C56.2372 46.4987 56.5986 47.3597 56.5986 48.3009C56.5986 49.222 56.2372 50.1031 55.5746 50.7639C54.9121 51.4247 54.0487 51.7851 53.105 51.7851C51.1776 51.7851 49.6115 50.2232 49.6115 48.3209C49.6115 46.3986 51.1776 44.8367 53.085 44.8367C53.9885 44.8367 54.8518 45.1771 55.4943 45.7978C55.5345 45.8179 55.5545 45.8379 55.5746 45.8379ZM53.105 50.2833C53.6271 50.2833 54.129 50.083 54.4904 49.7026C54.8518 49.3221 55.0727 48.8415 55.0727 48.3209C55.0727 47.8003 54.8719 47.2997 54.4904 46.9392C54.1089 46.5788 53.6271 46.3585 53.105 46.3585C52.0208 46.3585 51.1374 47.2396 51.1374 48.3209C51.1374 48.8816 51.3784 49.3822 51.7398 49.7426C52.1012 50.063 52.583 50.2833 53.105 50.2833Z" fill="#FBFCFE"/>
<path d="M52.4451 12.0367L51.1601 10.6751L59.0105 3.44629H98.564V5.32858H59.7333L52.4451 12.0367Z" fill="#FBFCFE"/>
<path d="M103.522 6.91086C102.86 7.53162 102.016 7.87203 101.113 7.87203C100.189 7.87203 99.306 7.51159 98.6434 6.85079C97.9808 6.18999 97.6194 5.30892 97.6194 4.3878C97.6194 2.46546 99.1855 0.903564 101.113 0.903564C102.037 0.903564 102.92 1.264 103.583 1.92481C104.245 2.58561 104.607 3.46668 104.607 4.3878C104.607 5.30892 104.245 6.18999 103.583 6.85079C103.542 6.87081 103.542 6.89084 103.522 6.91086ZM99.7477 2.96607C99.3662 3.32651 99.1453 3.82712 99.1453 4.3878C99.1453 4.90843 99.3461 5.40904 99.7276 5.76948C100.109 6.14994 100.591 6.35018 101.113 6.35018C101.635 6.35018 102.137 6.14994 102.498 5.76948C102.88 5.38901 103.081 4.90843 103.081 4.3878C103.081 3.30648 102.197 2.42541 101.113 2.42541C100.591 2.42541 100.109 2.62566 99.7477 2.96607Z" fill="#FBFCFE"/>
<path d="M58.4889 54.7695V56.5917L44.4745 56.5717L34.8974 51.7258L35.4194 49.8435L44.9765 54.6894L58.4889 54.7695Z" fill="#FBFCFE"/>
<path d="M35.64 47.2197C36.2624 47.8805 36.6037 48.7216 36.6037 49.6227C36.6037 50.5438 36.2423 51.4249 35.5798 52.0857C34.9172 52.7465 34.0338 53.1069 33.1102 53.1069C32.1866 53.1069 31.3032 52.7465 30.6406 52.0857C29.9981 51.4449 29.6166 50.5438 29.6166 49.6227C29.6166 48.7015 29.978 47.8205 30.6406 47.1597C31.3032 46.4989 32.1866 46.1384 33.1102 46.1384C34.0338 46.1384 34.9172 46.4989 35.5798 47.1597C35.5998 47.1997 35.6199 47.1997 35.64 47.2197ZM31.6846 50.9843C31.7047 51.0043 31.7047 51.0043 31.7248 51.0244C32.1063 51.4048 32.5881 51.6051 33.1102 51.6051C33.6322 51.6051 34.1341 51.4048 34.4956 51.0244C34.877 50.6439 35.0778 50.1633 35.0778 49.6427C35.0778 49.1221 34.877 48.6214 34.4956 48.261C34.1141 47.8805 33.6322 47.6803 33.1102 47.6803C32.5881 47.6803 32.0862 47.8805 31.7248 48.261C31.3634 48.6415 31.1425 49.1221 31.1425 49.6427C31.1425 50.1433 31.3232 50.6239 31.6846 50.9843Z" fill="#FBFCFE"/>
<path d="M63.3869 58.1335C62.7243 58.7542 61.881 59.0946 60.9775 59.0946C60.0539 59.0946 59.1705 58.7342 58.5079 58.0734C57.8454 57.4126 57.4839 56.5315 57.4839 55.6104C57.4839 53.6881 59.05 52.1262 60.9775 52.1462C61.9011 52.1462 62.7845 52.5066 63.4471 53.1674C64.1097 53.8282 64.4711 54.7093 64.4711 55.6304C64.4711 56.5515 64.1097 57.4326 63.4471 58.0934C63.427 58.1134 63.4069 58.1134 63.3869 58.1335ZM59.6122 54.1887C59.2307 54.5491 59.0099 55.0497 59.0099 55.6104C59.0099 56.131 59.2106 56.6316 59.5921 56.9921C59.9736 57.3725 60.4555 57.5728 60.9775 57.5728C61.4995 57.5728 62.0015 57.3725 62.3629 56.9921C62.7444 56.6116 62.9451 56.131 62.9451 55.6104C62.9451 54.5291 62.0617 53.648 60.9775 53.648C60.4555 53.648 59.9736 53.8683 59.6122 54.1887Z" fill="#FBFCFE"/>
<path d="M34.7957 32.2815V34.1238L20.7814 34.1037L6.00403 25.8137L6.52605 23.9514L21.2833 32.2014L34.7957 32.2815Z" fill="#FBFCFE"/>
<path d="M6.74624 21.3286C7.36865 21.9894 7.70998 22.8305 7.70998 23.7315C7.70998 24.6527 7.34858 25.5337 6.68601 26.1945C6.02343 26.8553 5.14001 27.2158 4.21642 27.2158C3.29284 27.2158 2.40941 26.8553 1.74684 26.1945C1.10435 25.5538 0.72287 24.6527 0.72287 23.7315C0.72287 22.8104 1.08427 21.9294 1.74684 21.2686C2.40941 20.6078 3.29284 20.2473 4.21642 20.2473C5.14001 20.2473 6.02343 20.6078 6.68601 21.2686C6.70608 21.2886 6.72616 21.3086 6.74624 21.3286ZM2.79089 25.0732C2.81097 25.0932 2.81097 25.0932 2.83105 25.1132C3.21253 25.4937 3.6944 25.6939 4.21642 25.6939C4.73845 25.6939 5.2404 25.4937 5.6018 25.1132C5.98328 24.7328 6.18406 24.2522 6.18406 23.7315C6.18406 23.2109 5.98328 22.7103 5.6018 22.3499C5.22032 21.9694 4.73845 21.7692 4.21642 21.7692C3.6944 21.7692 3.19245 21.9694 2.83105 22.3499C2.44957 22.7303 2.24879 23.2109 2.24879 23.7315C2.22871 24.2322 2.42949 24.7127 2.79089 25.0732Z" fill="#FBFCFE"/>
<path d="M39.7744 35.5058C39.1118 36.1265 38.2685 36.4669 37.365 36.4669C36.4414 36.4669 35.558 36.1065 34.8954 35.4457C34.2329 34.7849 33.8715 33.9038 33.8715 32.9827C33.8715 31.0604 35.4375 29.4985 37.365 29.5185C38.2886 29.5185 39.172 29.8789 39.8346 30.5397C40.4972 31.2005 40.8586 32.0816 40.8586 33.0027C40.8586 33.9239 40.4972 34.8049 39.8346 35.4657C39.8145 35.4657 39.7944 35.4858 39.7744 35.5058ZM35.9997 31.561C35.6182 31.9214 35.3974 32.422 35.3974 32.9827C35.3974 33.5033 35.5982 34.004 35.9796 34.3644C36.3611 34.7449 36.843 34.9451 37.365 34.9451C37.887 34.9451 38.389 34.7449 38.7504 34.3644C39.1319 33.9839 39.3326 33.5033 39.3326 32.9827C39.3326 31.9014 38.4492 31.0203 37.365 31.0203C36.843 31.0003 36.3611 31.2206 35.9997 31.561Z" fill="#FBFCFE"/>
<path d="M63.3845 14.38C62.7219 15.0008 61.8787 15.3412 60.9752 15.3412C60.0516 15.3412 59.1681 14.9808 58.5056 14.32C57.843 13.6592 57.4816 12.7781 57.4816 11.857C57.4816 9.93464 59.0477 8.37274 60.9752 8.39277C61.8987 8.39277 62.7822 8.75321 63.4447 9.41401C64.1073 10.0748 64.4687 10.9559 64.4687 11.877C64.4687 12.7981 64.1073 13.6792 63.4447 14.34C63.4247 14.34 63.4046 14.36 63.3845 14.38ZM59.6099 10.4352C59.2284 10.7957 59.0075 11.2963 59.0075 11.857C59.0075 12.3776 59.2083 12.8782 59.5898 13.2387C59.9713 13.6191 60.4531 13.8194 60.9752 13.8194C61.4972 13.8194 61.9991 13.6191 62.3605 13.2387C62.742 12.8582 62.9428 12.3776 62.9428 11.857C62.9428 10.7757 62.0594 9.89459 60.9752 9.89459C60.4531 9.89459 59.9713 10.0948 59.6099 10.4352Z" fill="#FBFCFE"/>
<path d="M58.345 12.6179L46.3585 12.5979L41.58 18.6652L23.7709 18.6452V16.7429L40.4757 16.783L45.2542 10.6956L58.345 10.7356V12.6179Z" fill="#FBFCFE"/>
<path d="M23.6498 20.2074C23.0274 20.8082 22.164 21.1686 21.2404 21.1686C20.3169 21.1686 19.4334 20.8082 18.7709 20.1474C18.1083 19.4866 17.7469 18.6055 17.7469 17.6844C17.7469 15.762 19.313 14.2001 21.2404 14.2202C22.164 14.2202 23.0475 14.5806 23.71 15.2414C24.3726 15.9022 24.734 16.7833 24.734 17.7044C24.734 18.6856 24.3124 19.5667 23.6498 20.2074ZM19.8952 16.2626C19.5137 16.6231 19.2929 17.1237 19.2929 17.6844C19.2929 18.7657 20.1763 19.6468 21.2605 19.6468C22.3447 19.6468 23.2282 18.7657 23.2282 17.6844C23.2282 17.1637 23.0274 16.6631 22.6459 16.3027C22.2644 15.9222 21.7825 15.722 21.2605 15.722C20.7184 15.722 20.2365 15.9222 19.8952 16.2626Z" fill="#FBFCFE"/>
<path d="M53.4876 28.6571C52.825 29.2779 51.9818 29.6183 51.0783 29.6183C50.1547 29.6183 49.2712 29.2579 48.6087 28.5971C47.9461 27.9363 47.5847 27.0552 47.5847 26.1341C47.5847 24.2117 49.1508 22.6498 51.0783 22.6699C52.0018 22.6699 52.8853 23.0303 53.5478 23.6911C54.2104 24.3519 54.5718 25.233 54.5718 26.1541C54.5718 27.0752 54.2104 27.9563 53.5478 28.6171C53.5278 28.6171 53.5077 28.6371 53.4876 28.6571ZM49.733 24.7124C49.3516 25.0728 49.1307 25.5734 49.1307 26.1341C49.1307 26.6547 49.3315 27.1553 49.713 27.5158C50.0944 27.8962 50.5763 28.0965 51.0983 28.0965C51.6204 28.0965 52.1223 27.8962 52.4837 27.5158C52.8652 27.1353 53.066 26.6547 53.066 26.1341C53.066 25.0528 52.1825 24.1717 51.0983 24.1717C50.5562 24.1717 50.0744 24.3719 49.733 24.7124Z" fill="#FBFCFE"/>
<path d="M29.6939 28.6571C29.0314 29.2779 28.1881 29.6183 27.2846 29.6183C26.361 29.6183 25.4776 29.2579 24.815 28.5971C24.1524 27.9363 23.791 27.0552 23.791 26.1341C23.791 24.2117 25.3571 22.6498 27.2846 22.6699C28.2082 22.6699 29.0916 23.0303 29.7542 23.6911C30.4168 24.3519 30.7782 25.233 30.7782 26.1541C30.7782 27.0752 30.4168 27.9563 29.7542 28.6171C29.7341 28.6171 29.714 28.6371 29.6939 28.6571ZM25.9193 24.7123C25.5378 25.0728 25.317 25.5734 25.317 26.1341C25.317 26.6547 25.5177 27.1553 25.8992 27.5158C26.2807 27.8962 26.7626 28.0965 27.2846 28.0965C27.8066 28.0965 28.3086 27.8962 28.67 27.5158C29.0515 27.1353 29.2522 26.6547 29.2522 26.1341C29.2522 25.0528 28.3688 24.1717 27.2846 24.1717C26.7626 24.1717 26.2807 24.3719 25.9193 24.7123Z" fill="#FBFCFE"/>
<path d="M48.2466 25.1929H29.775V27.0551H48.2466V25.1929Z" fill="#FBFCFE"/>
<path d="M124.905 18.345H123.018L123.038 27.4961L138.357 27.4761V25.5738L124.945 25.6138L124.905 18.345Z" fill="#FBFCFE"/>
<path d="M143.196 24.052C143.858 24.7128 144.22 25.5738 144.22 26.515C144.22 27.4361 143.858 28.3172 143.196 28.978C142.533 29.6388 141.67 29.9992 140.726 29.9992C138.799 29.9992 137.233 28.4373 137.233 26.535C137.233 24.6127 138.799 23.0508 140.706 23.0508C141.61 23.0508 142.473 23.3912 143.115 24.0119C143.156 24.0119 143.176 24.032 143.196 24.052ZM140.726 28.4974C141.248 28.4974 141.75 28.2972 142.111 27.9167C142.493 27.5362 142.694 27.0556 142.694 26.535C142.694 26.0144 142.493 25.5138 142.111 25.1533C141.73 24.7929 141.248 24.5726 140.726 24.5726C139.642 24.5726 138.758 25.4537 138.758 26.535C138.758 27.0957 138.999 27.5963 139.361 27.9567C139.722 28.2771 140.204 28.4974 140.726 28.4974Z" fill="#FBFCFE"/>
<path d="M124.903 18.105L116.752 18.125V20.0073H124.903V18.105Z" fill="#FBFCFE"/>
<path d="M111.913 21.5285C111.251 20.8677 110.889 20.0067 110.889 19.0655C110.889 18.1444 111.251 17.2633 111.913 16.6025C112.576 15.9417 113.439 15.5813 114.383 15.5813C116.31 15.5813 117.876 17.1432 117.876 19.0455C117.876 20.9678 116.31 22.5297 114.403 22.5297C113.499 22.5297 112.636 22.1893 111.993 21.5686C111.953 21.5686 111.933 21.5485 111.913 21.5285ZM114.383 17.1031C113.861 17.1031 113.359 17.3034 112.997 17.6839C112.616 18.0643 112.415 18.5449 112.415 19.0655C112.415 19.5862 112.616 20.0868 112.997 20.4472C113.379 20.8076 113.861 21.0279 114.383 21.0279C115.467 21.0279 116.35 20.1468 116.35 19.0655C116.35 18.5048 116.109 18.0042 115.748 17.6438C115.387 17.3034 114.905 17.1031 114.383 17.1031Z" fill="#FBFCFE"/>
<path d="M108.482 63.9403H68.9282V62.058H107.739L115.047 55.3499L116.332 56.7115L108.482 63.9403Z" fill="#FBFCFE"/>
<path d="M63.9702 60.4756C64.6327 59.8548 65.476 59.5144 66.3795 59.5144C67.3031 59.5144 68.1865 59.8748 68.8491 60.5356C69.5117 61.1964 69.8731 62.0775 69.8731 62.9986C69.8731 64.921 68.307 66.4829 66.3795 66.4628C65.4559 66.4628 64.5725 66.1024 63.9099 65.4416C63.2474 64.7808 62.886 63.8997 62.886 62.9786C62.886 62.0575 63.2474 61.1764 63.9099 60.5156C63.93 60.5156 63.9501 60.4956 63.9702 60.4756ZM67.7448 64.4204C68.1263 64.0599 68.3472 63.5593 68.3472 62.9986C68.3472 62.478 68.1464 61.9774 67.7649 61.617C67.3834 61.2365 66.9015 61.0362 66.3795 61.0362C65.8575 61.0362 65.3556 61.2365 64.9941 61.617C64.6127 61.9974 64.4119 62.478 64.4119 62.9986C64.4119 64.0799 65.2953 64.961 66.3795 64.961C66.9015 64.961 67.3834 64.7608 67.7448 64.4204Z" fill="#FBFCFE"/>
<path d="M108.984 12.6184V10.7961L123.018 10.8162L132.595 15.6621L132.073 17.5443L122.516 12.6985L108.984 12.6184Z" fill="#FBFCFE"/>
<path d="M131.852 20.1469C131.23 19.4861 130.888 18.6451 130.888 17.744C130.888 16.8229 131.25 15.9418 131.912 15.281C132.575 14.6202 133.458 14.2598 134.382 14.2598C135.306 14.2598 136.189 14.6202 136.852 15.281C137.494 15.9218 137.876 16.8229 137.876 17.744C137.876 18.6651 137.514 19.5462 136.852 20.207C136.189 20.8678 135.306 21.2282 134.382 21.2282C133.458 21.2282 132.575 20.8678 131.912 20.207C131.892 20.187 131.872 20.1669 131.852 20.1469ZM135.808 16.4024C135.787 16.3823 135.787 16.3823 135.767 16.3623C135.386 15.9819 134.904 15.7816 134.382 15.7816C133.86 15.7816 133.358 15.9819 132.997 16.3623C132.615 16.7428 132.414 17.2234 132.414 17.744C132.414 18.2646 132.615 18.7652 132.997 19.1257C133.378 19.5061 133.86 19.7064 134.382 19.7064C134.904 19.7064 135.406 19.5061 135.767 19.1257C136.129 18.7452 136.35 18.2646 136.35 17.744C136.35 17.2434 136.169 16.7628 135.808 16.4024Z" fill="#FBFCFE"/>
<path d="M104.105 9.25414C104.768 8.63338 105.611 8.29297 106.514 8.29297C107.438 8.29297 108.321 8.65341 108.984 9.31421C109.647 9.97501 110.008 10.8561 110.008 11.7772C110.008 13.6995 108.442 15.2614 106.514 15.2414C105.591 15.2414 104.707 14.881 104.045 14.2202C103.382 13.5594 103.021 12.6783 103.021 11.7572C103.021 10.8361 103.382 9.95499 104.045 9.29418C104.065 9.27416 104.085 9.25414 104.105 9.25414ZM107.86 13.1789C108.241 12.8185 108.462 12.3179 108.462 11.7572C108.462 11.2365 108.261 10.7359 107.88 10.3755C107.498 9.99504 107.016 9.79479 106.494 9.79479C105.972 9.79479 105.47 9.99504 105.109 10.3755C104.728 10.756 104.527 11.2365 104.527 11.7572C104.527 12.8385 105.41 13.7196 106.494 13.7196C107.036 13.7396 107.518 13.5193 107.86 13.1789Z" fill="#FBFCFE"/>
<path d="M132.677 35.1054V33.2632L146.712 33.2832L161.489 41.5733L160.967 43.4355L146.21 35.1855L132.677 35.1054Z" fill="#FBFCFE"/>
<path d="M160.746 46.0583C160.123 45.3975 159.782 44.5565 159.782 43.6554C159.782 42.7343 160.143 41.8532 160.806 41.1924C161.469 40.5316 162.352 40.1711 163.276 40.1711C164.199 40.1711 165.083 40.5316 165.745 41.1924C166.388 41.8332 166.769 42.7343 166.769 43.6554C166.769 44.5765 166.408 45.4576 165.745 46.1184C165.083 46.7792 164.199 47.1396 163.276 47.1396C162.352 47.1396 161.469 46.7792 160.806 46.1184C160.786 46.0983 160.766 46.0783 160.746 46.0583ZM164.701 42.3137C164.681 42.2937 164.681 42.2937 164.661 42.2737C164.279 41.8932 163.798 41.693 163.276 41.693C162.754 41.693 162.252 41.8932 161.89 42.2737C161.509 42.6542 161.308 43.1347 161.308 43.6554C161.308 44.176 161.509 44.6766 161.89 45.037C162.272 45.4175 162.754 45.6178 163.276 45.6178C163.798 45.6178 164.3 45.4175 164.661 45.037C165.042 44.6566 165.243 44.176 165.243 43.6554C165.243 43.1548 165.062 42.6742 164.701 42.3137Z" fill="#FBFCFE"/>
<path d="M127.717 31.8811C128.379 31.2603 129.223 30.9199 130.126 30.9199C131.05 30.9199 131.933 31.2804 132.596 31.9412C133.258 32.602 133.62 33.483 133.62 34.4042C133.62 36.3265 132.054 37.8884 130.126 37.8684C129.202 37.8684 128.319 37.5079 127.657 36.8471C126.994 36.1863 126.633 35.3053 126.633 34.3841C126.633 33.463 126.994 32.5819 127.657 31.9211C127.677 31.9211 127.697 31.9011 127.717 31.8811ZM131.491 35.8259C131.873 35.4654 132.094 34.9648 132.094 34.4042C132.094 33.8835 131.893 33.3829 131.511 33.0225C131.13 32.642 130.648 32.4418 130.126 32.4418C129.604 32.4418 129.102 32.642 128.741 33.0225C128.359 33.4029 128.158 33.8835 128.158 34.4042C128.158 35.4855 129.042 36.3665 130.126 36.3665C130.648 36.3665 131.13 36.1663 131.491 35.8259Z" fill="#FBFCFE"/>
<path d="M104.105 53.0063C104.768 52.3856 105.611 52.0452 106.514 52.0452C107.438 52.0452 108.321 52.4056 108.984 53.0664C109.647 53.7272 110.008 54.6083 110.008 55.5294C110.008 57.4517 108.442 59.0136 106.514 58.9936C105.591 58.9936 104.707 58.6332 104.045 57.9724C103.382 57.3116 103.021 56.4305 103.021 55.5094C103.021 54.5883 103.382 53.7072 104.045 53.0464C104.065 53.0464 104.085 53.0264 104.105 53.0063ZM107.86 56.9511C108.241 56.5907 108.462 56.0901 108.462 55.5294C108.462 55.0088 108.261 54.5082 107.88 54.1477C107.498 53.7673 107.016 53.567 106.494 53.567C105.972 53.567 105.47 53.7673 105.109 54.1477C104.727 54.5282 104.527 55.0088 104.527 55.5294C104.527 56.6107 105.41 57.4918 106.494 57.4918C107.036 57.4918 107.518 57.2915 107.86 56.9511Z" fill="#FBFCFE"/>
<path d="M109.143 54.7683L121.13 54.7883L125.908 48.7209L143.717 48.741V50.6433L127.012 50.6032L122.234 56.6906L109.143 56.6506V54.7683Z" fill="#FBFCFE"/>
<path d="M143.839 47.1797C144.462 46.5789 145.325 46.2185 146.248 46.2185C147.172 46.2185 148.055 46.5789 148.718 47.2397C149.381 47.9005 149.742 48.7816 149.742 49.7027C149.742 51.6251 148.176 53.187 146.248 53.1669C145.325 53.1669 144.441 52.8065 143.779 52.1457C143.116 51.4849 142.755 50.6038 142.755 49.6827C142.755 48.7015 143.156 47.8004 143.839 47.1797ZM147.594 51.1245C147.975 50.764 148.196 50.2634 148.196 49.7027C148.196 48.6214 147.313 47.7404 146.228 47.7404C145.144 47.7404 144.261 48.6214 144.261 49.7027C144.261 50.2234 144.462 50.724 144.843 51.0844C145.224 51.4649 145.706 51.6651 146.228 51.6651C146.75 51.6651 147.232 51.4449 147.594 51.1245Z" fill="#FBFCFE"/>
<path d="M114.002 38.7297C114.664 38.109 115.507 37.7686 116.411 37.7686C117.335 37.7686 118.218 38.129 118.881 38.7898C119.543 39.4506 119.904 40.3317 119.904 41.2528C119.904 43.1751 118.338 44.737 116.411 44.717C115.487 44.717 114.604 44.3566 113.941 43.6958C113.279 43.0349 112.917 42.1539 112.917 41.2328C112.917 40.3116 113.279 39.4306 113.941 38.7698C113.961 38.7698 113.981 38.7497 114.002 38.7297ZM117.756 42.6745C118.138 42.3141 118.358 41.8135 118.358 41.2528C118.358 40.7322 118.158 40.2315 117.776 39.8711C117.395 39.4906 116.913 39.2904 116.391 39.2904C115.869 39.2904 115.367 39.4906 115.005 39.8711C114.624 40.2516 114.423 40.7322 114.423 41.2528C114.423 42.3341 115.307 43.2152 116.391 43.2152C116.933 43.2152 117.415 43.0149 117.756 42.6745Z" fill="#FBFCFE"/>
<path d="M137.795 38.7297C138.458 38.109 139.301 37.7686 140.205 37.7686C141.128 37.7686 142.012 38.129 142.674 38.7898C143.337 39.4506 143.698 40.3317 143.698 41.2528C143.698 43.1751 142.132 44.737 140.205 44.717C139.281 44.717 138.398 44.3566 137.735 43.6958C137.072 43.0349 136.711 42.1539 136.711 41.2328C136.711 40.3116 137.072 39.4306 137.735 38.7698C137.755 38.7698 137.775 38.7497 137.795 38.7297ZM141.55 42.6745C141.931 42.3141 142.152 41.8135 142.152 41.2528C142.152 40.7322 141.951 40.2315 141.57 39.8711C141.188 39.4906 140.707 39.2904 140.185 39.2904C139.662 39.2904 139.161 39.4906 138.799 39.8711C138.418 40.2516 138.217 40.7322 138.217 41.2528C138.217 42.3341 139.1 43.2152 140.185 43.2152C140.727 43.2152 141.208 43.0149 141.55 42.6745Z" fill="#FBFCFE"/>
<path d="M137.715 40.3115H119.243V42.1738H137.715V40.3115Z" fill="#FBFCFE"/>
<path d="M18.0902 94.3975H12.107L4.07581 84.6857V94.3975H0V81.0613H6.04345L14.0144 90.8532V81.0613H18.0902V94.3975Z" fill="#FBFCFE"/>
<path d="M37.1643 84.305H26.6434V86.3274H36.5619V89.1308H26.6434V91.1733H37.345V94.3972H22.5676V81.061H37.1843V84.305H37.1643Z" fill="#FBFCFE"/>
<path d="M47.9057 94.5577C46.3196 94.5577 45.1551 94.4776 44.4523 94.3374C43.7496 94.1973 43.1674 93.957 42.7056 93.6166C42.2036 93.2361 41.8221 92.7355 41.6013 92.1147C41.3804 91.494 41.26 90.673 41.26 89.6518V86.0073C41.26 84.886 41.3804 84.0049 41.6013 83.3641C41.8221 82.7233 42.2036 82.2027 42.7257 81.8022C43.1674 81.4818 43.7496 81.2415 44.5126 81.1014C45.2555 80.9612 46.3999 80.8811 47.9057 80.8811H52.7044C54.2102 80.8811 55.3546 80.9612 56.1176 81.1014C56.8806 81.2415 57.4628 81.4818 57.9246 81.8222C58.4065 82.2027 58.788 82.7033 59.0088 83.3641C59.2498 84.0049 59.3501 84.8459 59.3501 85.8672V89.5917C59.3501 90.6129 59.2297 91.4339 59.0088 92.0947C58.788 92.7355 58.4065 93.2561 57.9246 93.6366C57.4829 93.977 56.8806 94.2173 56.1377 94.3575C55.3948 94.4976 54.2504 94.5777 52.7244 94.5777H47.9057V94.5577ZM49.01 91.2137H51.6001C53.0256 91.2137 53.9893 91.0334 54.4712 90.673C54.9531 90.3126 55.194 89.6317 55.194 88.6706V86.7883C55.194 85.8071 54.9531 85.1463 54.4913 84.7858C54.0094 84.4254 53.0658 84.2452 51.6202 84.2452H49.01C47.5443 84.2452 46.5806 84.4254 46.1188 84.7858C45.657 85.1463 45.4362 85.8471 45.4362 86.8684V88.7306C45.4362 89.6918 45.6771 90.3526 46.159 90.713C46.6007 91.0334 47.5644 91.2137 49.01 91.2137Z" fill="#FBFCFE"/>
<path d="M63.6268 90.0517H65.233L65.1929 90.3121V90.8327C65.1929 91.6737 65.474 92.2544 66.0161 92.5748C66.5782 92.8952 67.6022 93.0754 69.1081 93.0754H72.6016C74.4086 93.0754 75.5932 92.8952 76.1554 92.5348C76.7176 92.1743 76.9786 91.4935 76.9786 90.4923C76.9786 89.6513 76.7778 89.0706 76.3963 88.7502C76.0149 88.4298 75.2318 88.2896 74.0271 88.2896H68.3853C66.5983 88.2896 65.3535 88.0093 64.6307 87.4686C63.9079 86.9079 63.5465 85.9668 63.5465 84.6252C63.5465 83.2435 63.9681 82.2823 64.7913 81.7417C65.6145 81.181 67.1203 80.9207 69.3088 80.9207H72.3406C73.987 80.9207 75.1515 80.9807 75.8141 81.1009C76.4967 81.221 77.0187 81.4413 77.3802 81.7617C77.6813 82.022 77.9022 82.3824 78.0628 82.8029C78.2033 83.2435 78.2837 83.7641 78.2837 84.4049V84.7853H76.6774V84.5851C76.6774 83.704 76.4566 83.1033 76.0349 82.8029C75.6133 82.5026 74.7098 82.3424 73.3445 82.3424H68.7667C67.3814 82.3424 66.4377 82.5026 65.9558 82.823C65.474 83.1434 65.233 83.7241 65.233 84.5651C65.233 85.4261 65.474 86.0269 65.9357 86.3472C66.3975 86.6676 67.3814 86.8278 68.8872 86.8278H73.7059C74.248 86.8278 74.7098 86.8278 75.0913 86.8479C75.4728 86.8679 75.794 86.9079 76.0751 86.948C76.6172 87.0281 77.0388 87.1682 77.3601 87.3685C77.8219 87.6288 78.1431 88.0093 78.3439 88.4898C78.5447 88.9704 78.6451 89.6713 78.6451 90.6124C78.6451 92.0942 78.2435 93.1355 77.4404 93.7162C76.6373 94.2969 75.1917 94.5973 73.1236 94.5973H68.586C66.7991 94.5973 65.5141 94.3369 64.7512 93.7763C63.9882 93.2356 63.6067 92.3345 63.6067 91.093L63.6268 90.232V90.0517Z" fill="#4184C5"/>
<path d="M83.3035 94.3972V81.061H96.4947V82.5428H84.9298V86.7279H95.9927V88.2097H84.9298V92.8954H96.4947V94.3772H83.3035V94.3972Z" fill="#4184C5"/>
<path d="M106.312 94.5577C104.927 94.5577 103.923 94.4776 103.3 94.3375C102.678 94.1973 102.176 93.957 101.754 93.6166C101.313 93.2361 100.991 92.7355 100.791 92.1148C100.59 91.494 100.489 90.673 100.489 89.6518V86.0073C100.489 84.906 100.59 84.0249 100.791 83.3641C100.991 82.7033 101.313 82.1827 101.754 81.8022C102.136 81.4618 102.658 81.2215 103.32 81.0814C103.963 80.9412 104.967 80.8611 106.292 80.8611H110.508C112.677 80.8611 114.163 81.1414 114.925 81.6821C115.688 82.2227 116.07 83.2039 116.07 84.6257V85.0462V85.3265H114.544V85.1263C114.544 84.085 114.323 83.3441 113.861 82.9436C113.4 82.5231 112.596 82.3229 111.432 82.3229H105.629C104.846 82.3229 104.224 82.403 103.782 82.5431C103.341 82.6833 102.999 82.9436 102.758 83.284C102.598 83.5243 102.477 83.8047 102.397 84.1451C102.317 84.4855 102.276 85.0662 102.276 85.8672V86.1275V89.4115C102.276 90.1924 102.317 90.7731 102.377 91.1135C102.457 91.4539 102.578 91.7543 102.738 91.9946C102.979 92.335 103.32 92.5753 103.782 92.7355C104.244 92.8957 104.846 92.9758 105.629 92.9758H111.412C112.677 92.9758 113.54 92.7756 114.002 92.3751C114.464 91.9746 114.685 91.2337 114.685 90.1524V89.812H116.21V90.1524V90.4728C116.21 91.3138 116.13 91.9746 115.97 92.4752C115.809 92.9758 115.528 93.3763 115.146 93.6967C114.785 93.997 114.283 94.2173 113.641 94.3375C112.998 94.4776 111.934 94.5377 110.488 94.5377H106.312V94.5577Z" fill="#4184C5"/>
<path d="M126.511 94.5574C125.166 94.5574 124.202 94.4773 123.58 94.3372C122.957 94.197 122.455 93.9567 122.054 93.6163C121.632 93.2559 121.311 92.7552 121.11 92.1545C120.909 91.5338 120.809 90.7128 120.809 89.6915V81.041H122.516V89.6915C122.516 90.3924 122.556 90.913 122.616 91.2334C122.696 91.5538 122.817 91.8341 122.977 92.0744C123.198 92.4148 123.539 92.6551 123.981 92.8153C124.423 92.9755 125.025 93.0556 125.788 93.0556H131.29C132.073 93.0556 132.675 92.9755 133.097 92.8353C133.518 92.6751 133.86 92.4349 134.1 92.0944C134.261 91.8541 134.382 91.5938 134.442 91.2734C134.522 90.9531 134.542 90.4524 134.542 89.7316V89.271V81.0811H136.249V89.6314C136.249 90.6527 136.148 91.4937 135.948 92.1345C135.747 92.7753 135.446 93.2959 135.004 93.6563C134.622 93.9968 134.121 94.237 133.478 94.3772C133.177 94.4373 132.775 94.4974 132.293 94.5374C131.812 94.5775 131.229 94.5975 130.547 94.5975H126.511V94.5574Z" fill="#4184C5"/>
<path d="M142.955 94.3972H141.288V81.061H150.845C152.973 81.061 154.379 81.2813 155.062 81.7419C155.744 82.2024 156.106 83.0234 156.106 84.2449V85.8469C156.106 86.6678 155.925 87.2686 155.584 87.649C155.242 88.0295 154.62 88.3098 153.736 88.5101C154.459 88.5902 155.001 88.8305 155.383 89.271C155.764 89.7115 155.945 90.3323 155.945 91.0932V94.3972H154.279V91.4136C154.279 90.5526 154.078 89.9518 153.696 89.6314C153.495 89.4713 153.194 89.3511 152.753 89.271C152.331 89.1909 151.749 89.1509 151.026 89.1509H142.955V94.3972ZM151.387 82.5028H142.955V87.609H151.387C152.592 87.609 153.375 87.4688 153.777 87.1685C154.178 86.8681 154.359 86.2674 154.359 85.3663V84.7255C154.359 83.8444 154.158 83.2437 153.777 82.9433C153.375 82.643 152.572 82.5028 151.387 82.5028Z" fill="#4184C5"/>
<path d="M162.571 94.3972H160.904V81.061H162.571V94.3972Z" fill="#4184C5"/>
<path d="M174.898 94.3972H173.232V82.5428H166.606V81.061H181.504V82.5428H174.878V94.3972H174.898Z" fill="#4184C5"/>
<path d="M191.422 94.3972V88.8105L183.832 81.041H186.182L192.305 87.2886L198.409 81.041H200.778L193.169 88.8105V94.3972H191.422Z" fill="#4184C5"/>
</svg>
