<svg width="185" height="88" viewBox="0 0 185 88" fill="none" xmlns="http://www.w3.org/2000/svg">
<path d="M92.2063 52.417C79.8371 52.417 69.7722 42.3539 69.7722 29.9869C69.7722 17.6199 79.8371 7.53833 92.2063 7.53833C104.575 7.53833 114.64 17.6015 114.64 29.9685C114.64 42.3354 104.594 52.417 92.2063 52.417ZM92.2063 10.3029C81.3487 10.3029 72.5189 19.1312 72.5189 29.9869C72.5189 40.8426 81.3487 49.6709 92.2063 49.6709C103.064 49.6709 111.894 40.8426 111.894 29.9869C111.894 19.1312 103.064 10.3029 92.2063 10.3029Z" fill="#1D3D91"/>
<path d="M92.2066 48.7306C81.8652 48.7306 73.4409 40.3262 73.4409 29.9681C73.4409 19.6285 81.8468 11.2057 92.2066 11.2057C102.548 11.2057 110.972 19.6101 110.972 29.9681C110.972 40.3262 102.548 48.7306 92.2066 48.7306ZM92.2066 12.9566C82.8053 12.9566 75.1737 20.6053 75.1737 29.9865C75.1737 39.3678 82.8238 47.0165 92.2066 47.0165C101.59 47.0165 109.24 39.3678 109.24 29.9865C109.24 20.6053 101.608 12.9566 92.2066 12.9566Z" fill="#29306C"/>
<path d="M105.295 25.729C104.225 26.3003 102.99 26.6321 101.7 26.6321C97.4971 26.6321 94.0868 23.2224 94.0868 19.0202C94.0868 18.0987 94.2527 17.2324 94.5476 16.4215C93.7919 16.2925 92.9992 16.2188 92.2065 16.2188C84.6118 16.2188 78.4548 22.3746 78.4548 29.968C78.4548 37.5615 84.6118 43.7173 92.2065 43.7173C99.8013 43.7173 105.958 37.5615 105.958 29.968C105.977 28.4936 105.737 27.0744 105.295 25.729ZM92.2065 35.0549C89.4046 35.0549 87.1188 32.7695 87.1188 29.968C87.1188 27.1666 89.4046 24.8812 92.2065 24.8812C95.0085 24.8812 97.2943 27.1666 97.2943 29.968C97.2943 32.7879 95.0085 35.0549 92.2065 35.0549Z" fill="#4184C5"/>
<path d="M92.2066 32.6591C93.6828 32.6591 94.8795 31.4626 94.8795 29.9867C94.8795 28.5107 93.6828 27.3142 92.2066 27.3142C90.7304 27.3142 89.5337 28.5107 89.5337 29.9867C89.5337 31.4626 90.7304 32.6591 92.2066 32.6591Z" fill="#28316B"/>
<path d="M54.5827 44.3073H56.3154L56.297 35.8845L42.2319 35.903V37.6539L54.5458 37.617L54.5827 44.3073Z" fill="#29306C"/>
<path d="M37.7895 39.0546C37.1812 38.4464 36.8494 37.6539 36.8494 36.7876C36.8494 35.9398 37.1812 35.1289 37.7895 34.5207C38.3978 33.9124 39.1905 33.5807 40.0569 33.5807C41.8265 33.5807 43.2644 35.0183 43.2644 36.7692C43.2644 38.5385 41.8265 39.9761 40.0753 39.9761C39.2458 39.9761 38.4531 39.6628 37.8632 39.0915C37.8264 39.0915 37.8079 39.073 37.7895 39.0546ZM40.0569 34.963C39.5776 34.963 39.1167 35.1473 38.7849 35.4975C38.4347 35.8477 38.2503 36.29 38.2503 36.7692C38.2503 37.2484 38.4347 37.7092 38.7849 38.0409C39.1352 38.3727 39.5776 38.5754 40.0569 38.5754C41.0523 38.5754 41.8634 37.7645 41.8634 36.7692C41.8634 36.2531 41.6422 35.7924 41.3104 35.4606C40.9786 35.1657 40.5362 34.963 40.0569 34.963Z" fill="#29306C"/>
<path d="M54.5828 44.5287L62.0669 44.5103V42.7778H54.5828V44.5287Z" fill="#29306C"/>
<path d="M66.5095 41.3582C67.1179 41.9664 67.4497 42.7589 67.4497 43.6252C67.4497 44.473 67.1179 45.2839 66.5095 45.8921C65.9012 46.5003 65.1086 46.8321 64.2422 46.8321C62.4725 46.8321 61.0347 45.3945 61.0347 43.6436C61.0347 41.8742 62.4725 40.4366 64.2237 40.4366C65.0533 40.4366 65.8459 40.75 66.4358 41.3213C66.4727 41.3397 66.4911 41.3582 66.5095 41.3582ZM64.2422 45.4498C64.7214 45.4498 65.1823 45.2655 65.5141 44.9153C65.8459 44.5651 66.0487 44.1228 66.0487 43.6436C66.0487 43.1644 65.8644 42.7036 65.5141 42.3719C65.1639 42.0401 64.7214 41.8374 64.2422 41.8374C63.2467 41.8374 62.4356 42.6483 62.4356 43.6436C62.4356 44.1596 62.6569 44.6204 62.9887 44.9522C63.3205 45.2471 63.7629 45.4498 64.2422 45.4498Z" fill="#29306C"/>
<path d="M63.6339 10.247L62.4541 8.99368L69.6618 2.34021H105.977V4.07269H70.3254L63.6339 10.247Z" fill="#29306C"/>
<path d="M110.53 5.5292C109.921 6.10055 109.147 6.41388 108.318 6.41388C107.47 6.41388 106.659 6.08212 106.05 5.47391C105.442 4.8657 105.11 4.05475 105.11 3.20694C105.11 1.43759 106.548 0 108.318 0C109.166 0 109.977 0.331752 110.585 0.939965C111.193 1.54818 111.525 2.35913 111.525 3.20694C111.525 4.05475 111.193 4.8657 110.585 5.47391C110.548 5.49234 110.548 5.51077 110.53 5.5292ZM107.064 1.89836C106.714 2.23011 106.511 2.69088 106.511 3.20694C106.511 3.68614 106.695 4.1469 107.046 4.47866C107.396 4.82884 107.838 5.01314 108.318 5.01314C108.797 5.01314 109.258 4.82884 109.59 4.47866C109.94 4.12847 110.124 3.68614 110.124 3.20694C110.124 2.21168 109.313 1.40073 108.318 1.40073C107.838 1.40073 107.396 1.58504 107.064 1.89836Z" fill="#29306C"/>
<path d="M69.1823 49.5789V51.2561L56.3154 51.2376L47.5225 46.7774L48.0017 45.0449L56.7763 49.5051L69.1823 49.5789Z" fill="#29306C"/>
<path d="M48.205 42.63C48.7764 43.2382 49.0898 44.0123 49.0898 44.8417C49.0898 45.6895 48.758 46.5005 48.1497 47.1087C47.5414 47.7169 46.7303 48.0486 45.8823 48.0486C45.0343 48.0486 44.2233 47.7169 43.6149 47.1087C43.0251 46.5189 42.6748 45.6895 42.6748 44.8417C42.6748 43.9939 43.0066 43.1829 43.6149 42.5747C44.2233 41.9665 45.0343 41.6348 45.8823 41.6348C46.7303 41.6348 47.5414 41.9665 48.1497 42.5747C48.1681 42.6116 48.1865 42.6116 48.205 42.63ZM44.5735 46.095C44.5919 46.1134 44.5919 46.1134 44.6104 46.1319C44.9606 46.482 45.403 46.6663 45.8823 46.6663C46.3616 46.6663 46.8224 46.482 47.1542 46.1319C47.5045 45.7817 47.6888 45.3393 47.6888 44.8601C47.6888 44.3809 47.5045 43.9202 47.1542 43.5884C46.804 43.2382 46.3616 43.0539 45.8823 43.0539C45.403 43.0539 44.9422 43.2382 44.6104 43.5884C44.2786 43.9386 44.0758 44.3809 44.0758 44.8601C44.0758 45.3209 44.2417 45.7632 44.5735 46.095Z" fill="#29306C"/>
<path d="M73.6803 52.6751C73.072 53.2465 72.2978 53.5598 71.4682 53.5598C70.6203 53.5598 69.8092 53.2281 69.2009 52.6198C68.5926 52.0116 68.2607 51.2007 68.2607 50.3529C68.2607 48.5835 69.6986 47.1459 71.4682 47.1644C72.3162 47.1644 73.1273 47.4961 73.7356 48.1043C74.3439 48.7125 74.6757 49.5235 74.6757 50.3713C74.6757 51.2191 74.3439 52.0301 73.7356 52.6383C73.7172 52.6567 73.6988 52.6567 73.6803 52.6751ZM70.2147 49.0443C69.8645 49.376 69.6617 49.8368 69.6617 50.3529C69.6617 50.8321 69.8461 51.2928 70.1963 51.6246C70.5465 51.9748 70.989 52.1591 71.4682 52.1591C71.9475 52.1591 72.4084 51.9748 72.7402 51.6246C73.0904 51.2744 73.2748 50.8321 73.2748 50.3529C73.2748 49.3576 72.4637 48.5467 71.4682 48.5467C70.989 48.5467 70.5465 48.7494 70.2147 49.0443Z" fill="#29306C"/>
<path d="M47.4303 28.8808V30.5764L34.5635 30.558L20.9961 22.9277L21.4754 21.2136L35.0243 28.8071L47.4303 28.8808Z" fill="#29306C"/>
<path d="M21.6784 18.7996C22.2498 19.4078 22.5632 20.1819 22.5632 21.0113C22.5632 21.8591 22.2314 22.67 21.6231 23.2782C21.0147 23.8864 20.2037 24.2182 19.3557 24.2182C18.5077 24.2182 17.6966 23.8864 17.0883 23.2782C16.4984 22.6885 16.1482 21.8591 16.1482 21.0113C16.1482 20.1634 16.48 19.3525 17.0883 18.7443C17.6966 18.1361 18.5077 17.8043 19.3557 17.8043C20.2037 17.8043 21.0147 18.1361 21.6231 18.7443C21.6415 18.7627 21.6599 18.7811 21.6784 18.7996ZM18.0469 22.2461C18.0653 22.2645 18.0653 22.2645 18.0838 22.283C18.434 22.6332 18.8764 22.8175 19.3557 22.8175C19.835 22.8175 20.2958 22.6332 20.6276 22.283C20.9779 21.9328 21.1622 21.4905 21.1622 21.0113C21.1622 20.5321 20.9779 20.0713 20.6276 19.7395C20.2774 19.3894 19.835 19.2051 19.3557 19.2051C18.8764 19.2051 18.4156 19.3894 18.0838 19.7395C17.7335 20.0897 17.5492 20.5321 17.5492 21.0113C17.5307 21.472 17.7151 21.9144 18.0469 22.2461Z" fill="#29306C"/>
<path d="M52.0021 31.8484C51.3938 32.4197 50.6195 32.733 49.79 32.733C48.9421 32.733 48.131 32.4013 47.5226 31.7931C46.9143 31.1848 46.5825 30.3739 46.5825 29.5261C46.5825 27.7567 48.0204 26.3191 49.79 26.3376C50.638 26.3376 51.4491 26.6693 52.0574 27.2775C52.6657 27.8858 52.9975 28.6967 52.9975 29.5445C52.9975 30.3923 52.6657 31.2033 52.0574 31.8115C52.039 31.8115 52.0205 31.8299 52.0021 31.8484ZM48.5365 28.2175C48.1863 28.5493 47.9835 29.01 47.9835 29.5261C47.9835 30.0053 48.1678 30.4661 48.5181 30.7978C48.8683 31.148 49.3107 31.3323 49.79 31.3323C50.2693 31.3323 50.7302 31.148 51.062 30.7978C51.4122 30.4476 51.5965 30.0053 51.5965 29.5261C51.5965 28.5308 50.7855 27.7199 49.79 27.7199C49.3107 27.7014 48.8683 27.9042 48.5365 28.2175Z" fill="#29306C"/>
<path d="M73.6803 12.4041C73.072 12.9755 72.2978 13.2888 71.4682 13.2888C70.6203 13.2888 69.8092 12.9571 69.2009 12.3488C68.5926 11.7406 68.2607 10.9297 68.2607 10.0819C68.2607 8.31253 69.6986 6.87493 71.4682 6.89336C72.3162 6.89336 73.1273 7.22512 73.7356 7.83333C74.3439 8.44154 74.6757 9.25249 74.6757 10.1003C74.6757 10.9481 74.3439 11.7591 73.7356 12.3673C73.7172 12.3673 73.6988 12.3857 73.6803 12.4041ZM70.2147 8.77329C69.8645 9.10504 69.6617 9.56581 69.6617 10.0819C69.6617 10.5611 69.8461 11.0218 70.1963 11.3536C70.5465 11.7038 70.989 11.8881 71.4682 11.8881C71.9475 11.8881 72.4084 11.7038 72.7402 11.3536C73.0904 11.0034 73.2748 10.5611 73.2748 10.0819C73.2748 9.08661 72.4637 8.27566 71.4682 8.27566C70.989 8.27566 70.5465 8.45997 70.2147 8.77329Z" fill="#29306C"/>
<path d="M69.053 10.7822L58.048 10.7637L53.6607 16.3482L37.3098 16.3298V14.5789L52.6468 14.6157L57.0341 9.01282L69.053 9.04968V10.7822Z" fill="#29306C"/>
<path d="M37.1991 17.7677C36.6277 18.3206 35.835 18.6523 34.987 18.6523C34.1391 18.6523 33.328 18.3206 32.7197 17.7124C32.1114 17.1042 31.7795 16.2932 31.7795 15.4454C31.7795 13.6761 33.2174 12.2385 34.987 12.2569C35.835 12.2569 36.6461 12.5886 37.2544 13.1969C37.8627 13.8051 38.1945 14.616 38.1945 15.4638C38.1945 16.3669 37.8074 17.1779 37.1991 17.7677ZM33.752 14.1368C33.4017 14.4686 33.199 14.9293 33.199 15.4454C33.199 16.4407 34.01 17.2516 35.0055 17.2516C36.0009 17.2516 36.812 16.4407 36.812 15.4454C36.812 14.9662 36.6277 14.5054 36.2774 14.1737C35.9272 13.8235 35.4848 13.6392 35.0055 13.6392C34.5078 13.6392 34.0653 13.8235 33.752 14.1368Z" fill="#29306C"/>
<path d="M64.5927 25.545C63.9843 26.1164 63.2101 26.4297 62.3806 26.4297C61.5326 26.4297 60.7215 26.0979 60.1132 25.4897C59.5049 24.8815 59.1731 24.0706 59.1731 23.2227C59.1731 21.4534 60.6109 20.0158 62.3806 20.0342C63.2286 20.0342 64.0397 20.366 64.648 20.9742C65.2563 21.5824 65.5881 22.3934 65.5881 23.2412C65.5881 24.089 65.2563 24.8999 64.648 25.5081C64.6295 25.5081 64.6111 25.5266 64.5927 25.545ZM61.1455 21.9142C60.7953 22.2459 60.5925 22.7067 60.5925 23.2227C60.5925 23.7019 60.7768 24.1627 61.1271 24.4945C61.4773 24.8446 61.9197 25.0289 62.399 25.0289C62.8783 25.0289 63.3392 24.8446 63.671 24.4945C64.0212 24.1443 64.2056 23.7019 64.2056 23.2227C64.2056 22.2275 63.3945 21.4165 62.399 21.4165C61.9013 21.4165 61.4589 21.6008 61.1455 21.9142Z" fill="#29306C"/>
<path d="M42.7482 25.5448C42.1399 26.1161 41.3656 26.4294 40.5361 26.4294C39.6882 26.4294 38.8771 26.0977 38.2687 25.4895C37.6604 24.8813 37.3286 24.0703 37.3286 23.2225C37.3286 21.4532 38.7665 20.0156 40.5361 20.034C41.3841 20.034 42.1952 20.3657 42.8035 20.974C43.4118 21.5822 43.7436 22.3931 43.7436 23.2409C43.7436 24.0887 43.4118 24.8997 42.8035 25.5079C42.7851 25.5079 42.7666 25.5263 42.7482 25.5448ZM39.2826 21.9139C38.9324 22.2457 38.7296 22.7064 38.7296 23.2225C38.7296 23.7017 38.9139 24.1625 39.2642 24.4942C39.6144 24.8444 40.0568 25.0287 40.5361 25.0287C41.0154 25.0287 41.4762 24.8444 41.8081 24.4942C42.1583 24.144 42.3426 23.7017 42.3426 23.2225C42.3426 22.2272 41.5315 21.4163 40.5361 21.4163C40.0568 21.4163 39.6144 21.6006 39.2826 21.9139Z" fill="#29306C"/>
<path d="M59.7812 22.3562H42.822V24.0703H59.7812V22.3562Z" fill="#29306C"/>
<path d="M130.162 16.0536H128.429L128.447 24.4764L142.512 24.458V22.7071L130.199 22.7439L130.162 16.0536Z" fill="#29306C"/>
<path d="M146.955 21.3064C147.564 21.9146 147.895 22.7072 147.895 23.5734C147.895 24.4212 147.564 25.2322 146.955 25.8404C146.347 26.4486 145.554 26.7803 144.688 26.7803C142.918 26.7803 141.48 25.3427 141.48 23.5918C141.48 21.8225 142.918 20.3849 144.67 20.3849C145.499 20.3849 146.292 20.6982 146.882 21.2696C146.918 21.2696 146.937 21.288 146.955 21.3064ZM144.688 25.398C145.167 25.398 145.628 25.2137 145.96 24.8635C146.31 24.5134 146.494 24.071 146.494 23.5918C146.494 23.1126 146.31 22.6519 145.96 22.3201C145.61 21.9884 145.167 21.7856 144.688 21.7856C143.693 21.7856 142.881 22.5966 142.881 23.5918C142.881 24.1079 143.103 24.5687 143.434 24.9004C143.766 25.1953 144.209 25.398 144.688 25.398Z" fill="#29306C"/>
<path d="M130.161 15.8326L122.677 15.8511V17.5836H130.161V15.8326Z" fill="#29306C"/>
<path d="M118.235 18.9837C117.627 18.3755 117.295 17.5829 117.295 16.7167C117.295 15.8689 117.627 15.0579 118.235 14.4497C118.843 13.8415 119.636 13.5098 120.502 13.5098C122.272 13.5098 123.71 14.9474 123.71 16.6983C123.71 18.4676 122.272 19.9052 120.521 19.9052C119.691 19.9052 118.899 19.5919 118.309 19.0205C118.272 19.0205 118.253 19.0021 118.235 18.9837ZM120.502 14.9105C120.023 14.9105 119.562 15.0948 119.23 15.445C118.88 15.7952 118.696 16.2375 118.696 16.7167C118.696 17.1959 118.88 17.6567 119.23 17.9884C119.581 18.3202 120.023 18.5229 120.502 18.5229C121.498 18.5229 122.309 17.712 122.309 16.7167C122.309 16.2006 122.088 15.7399 121.756 15.4081C121.424 15.0948 120.982 14.9105 120.502 14.9105Z" fill="#29306C"/>
<path d="M115.083 58.0199H78.7686V56.2874H114.401L121.111 50.1132L122.291 51.3664L115.083 58.0199Z" fill="#29306C"/>
<path d="M74.2154 54.831C74.8237 54.2596 75.5979 53.9463 76.4275 53.9463C77.2754 53.9463 78.0865 54.278 78.6948 54.8862C79.3032 55.4945 79.635 56.3054 79.635 57.1532C79.635 58.9226 78.1971 60.3602 76.4275 60.3417C75.5795 60.3417 74.7684 60.01 74.1601 59.4018C73.5518 58.7936 73.22 57.9826 73.22 57.1348C73.22 56.287 73.5518 55.476 74.1601 54.8678C74.1785 54.8678 74.197 54.8494 74.2154 54.831ZM77.681 58.4618C78.0312 58.1301 78.234 57.6693 78.234 57.1532C78.234 56.674 78.0497 56.2133 77.6994 55.8815C77.3492 55.5313 76.9068 55.347 76.4275 55.347C75.9482 55.347 75.4873 55.5313 75.1555 55.8815C74.8053 56.2317 74.6209 56.674 74.6209 57.1532C74.6209 58.1485 75.432 58.9594 76.4275 58.9594C76.9068 58.9594 77.3492 58.7751 77.681 58.4618Z" fill="#29306C"/>
<path d="M115.544 10.7827V9.10547L128.429 9.1239L137.222 13.5841L136.743 15.3166L127.968 10.8564L115.544 10.7827Z" fill="#29306C"/>
<path d="M136.54 17.7121C135.969 17.1039 135.655 16.3298 135.655 15.5004C135.655 14.6526 135.987 13.8416 136.595 13.2334C137.204 12.6252 138.015 12.2935 138.863 12.2935C139.711 12.2935 140.522 12.6252 141.13 13.2334C141.72 13.8232 142.07 14.6526 142.07 15.5004C142.07 16.3482 141.738 17.1592 141.13 17.7674C140.522 18.3756 139.711 18.7073 138.863 18.7073C138.015 18.7073 137.204 18.3756 136.595 17.7674C136.577 17.7489 136.559 17.7305 136.54 17.7121ZM140.172 14.2655C140.153 14.2471 140.153 14.2471 140.135 14.2287C139.784 13.8785 139.342 13.6942 138.863 13.6942C138.383 13.6942 137.923 13.8785 137.591 14.2287C137.241 14.5789 137.056 15.0212 137.056 15.5004C137.056 15.9796 137.241 16.4404 137.591 16.7721C137.941 17.1223 138.383 17.3066 138.863 17.3066C139.342 17.3066 139.803 17.1223 140.135 16.7721C140.467 16.4219 140.669 15.9796 140.669 15.5004C140.669 15.0396 140.503 14.5973 140.172 14.2655Z" fill="#29306C"/>
<path d="M111.065 7.68606C111.673 7.11471 112.447 6.80139 113.277 6.80139C114.125 6.80139 114.936 7.13314 115.544 7.74136C116.152 8.34957 116.484 9.16052 116.484 10.0083C116.484 11.7777 115.046 13.2153 113.277 13.1968C112.429 13.1968 111.618 12.8651 111.009 12.2569C110.401 11.6487 110.069 10.8377 110.069 9.9899C110.069 9.14209 110.401 8.33114 111.009 7.72293C111.028 7.70449 111.046 7.68606 111.065 7.68606ZM114.512 11.2985C114.862 10.9667 115.065 10.506 115.065 9.9899C115.065 9.5107 114.88 9.04993 114.53 8.71818C114.18 8.368 113.737 8.18369 113.258 8.18369C112.779 8.18369 112.318 8.368 111.986 8.71818C111.636 9.06836 111.452 9.5107 111.452 9.9899C111.452 10.9852 112.263 11.7961 113.258 11.7961C113.756 11.8145 114.198 11.6118 114.512 11.2985Z" fill="#29306C"/>
<path d="M137.296 31.4802V29.7845L150.181 29.803L163.749 37.4333L163.27 39.1473L149.721 31.5539L137.296 31.4802Z" fill="#29306C"/>
<path d="M163.067 41.5612C162.495 40.953 162.182 40.1789 162.182 39.3495C162.182 38.5017 162.514 37.6908 163.122 37.0825C163.73 36.4743 164.541 36.1426 165.389 36.1426C166.237 36.1426 167.048 36.4743 167.657 37.0825C168.247 37.6723 168.597 38.5017 168.597 39.3495C168.597 40.1973 168.265 41.0083 167.657 41.6165C167.048 42.2247 166.237 42.5565 165.389 42.5565C164.541 42.5565 163.73 42.2247 163.122 41.6165C163.104 41.5981 163.085 41.5796 163.067 41.5612ZM166.698 38.1147C166.68 38.0962 166.68 38.0962 166.661 38.0778C166.311 37.7276 165.869 37.5433 165.389 37.5433C164.91 37.5433 164.449 37.7276 164.117 38.0778C163.767 38.428 163.583 38.8703 163.583 39.3495C163.583 39.8287 163.767 40.2895 164.117 40.6212C164.468 40.9714 164.91 41.1557 165.389 41.1557C165.869 41.1557 166.33 40.9714 166.661 40.6212C167.012 40.271 167.196 39.8287 167.196 39.3495C167.196 38.8887 167.03 38.4464 166.698 38.1147Z" fill="#29306C"/>
<path d="M132.743 28.5124C133.351 27.941 134.125 27.6277 134.955 27.6277C135.803 27.6277 136.614 27.9594 137.222 28.5677C137.831 29.1759 138.162 29.9868 138.162 30.8346C138.162 32.604 136.724 34.0416 134.955 34.0231C134.107 34.0231 133.296 33.6914 132.687 33.0832C132.079 32.475 131.747 31.664 131.747 30.8162C131.747 29.9684 132.079 29.1574 132.687 28.5492C132.706 28.5492 132.724 28.5308 132.743 28.5124ZM136.208 32.1432C136.559 31.8115 136.761 31.3507 136.761 30.8346C136.761 30.3554 136.577 29.8947 136.227 29.5629C135.877 29.2127 135.434 29.0284 134.955 29.0284C134.476 29.0284 134.015 29.2127 133.683 29.5629C133.333 29.9131 133.148 30.3554 133.148 30.8346C133.148 31.8299 133.959 32.6408 134.955 32.6408C135.434 32.6408 135.877 32.4565 136.208 32.1432Z" fill="#29306C"/>
<path d="M111.065 47.9565C111.673 47.3851 112.447 47.0718 113.277 47.0718C114.125 47.0718 114.936 47.4035 115.544 48.0117C116.152 48.62 116.484 49.4309 116.484 50.2787C116.484 52.0481 115.046 53.4857 113.277 53.4672C112.429 53.4672 111.618 53.1355 111.009 52.5273C110.401 51.919 110.069 51.1081 110.069 50.2603C110.069 49.4125 110.401 48.6015 111.009 47.9933C111.028 47.9933 111.046 47.9749 111.065 47.9565ZM114.512 51.5873C114.862 51.2555 115.065 50.7948 115.065 50.2787C115.065 49.7995 114.88 49.3388 114.53 49.007C114.18 48.6568 113.737 48.4725 113.258 48.4725C112.779 48.4725 112.318 48.6568 111.986 49.007C111.636 49.3572 111.452 49.7995 111.452 50.2787C111.452 51.274 112.263 52.0849 113.258 52.0849C113.756 52.0849 114.198 51.9006 114.512 51.5873Z" fill="#29306C"/>
<path d="M115.692 49.5781L126.697 49.5966L131.084 44.0121L147.435 44.0305V45.7814L132.098 45.7446L127.711 51.3475L115.692 51.3106V49.5781Z" fill="#29306C"/>
<path d="M147.545 42.5934C148.117 42.0405 148.91 41.7087 149.758 41.7087C150.606 41.7087 151.417 42.0405 152.025 42.6487C152.633 43.2569 152.965 44.0679 152.965 44.9157C152.965 46.685 151.527 48.1226 149.758 48.1042C148.91 48.1042 148.098 47.7724 147.49 47.1642C146.882 46.556 146.55 45.7451 146.55 44.8972C146.55 43.9941 146.919 43.1648 147.545 42.5934ZM150.993 46.2243C151.343 45.8925 151.546 45.4317 151.546 44.9157C151.546 43.9204 150.735 43.1095 149.739 43.1095C148.744 43.1095 147.933 43.9204 147.933 44.9157C147.933 45.3949 148.117 45.8556 148.467 46.1874C148.817 46.5376 149.26 46.7219 149.739 46.7219C150.218 46.7219 150.661 46.5191 150.993 46.2243Z" fill="#29306C"/>
<path d="M120.152 34.8158C120.76 34.2445 121.535 33.9312 122.364 33.9312C123.212 33.9312 124.023 34.2629 124.632 34.8711C125.24 35.4793 125.572 36.2903 125.572 37.1381C125.572 38.9074 124.134 40.345 122.364 40.3266C121.516 40.3266 120.705 39.9948 120.097 39.3866C119.489 38.7784 119.157 37.9675 119.157 37.1197C119.157 36.2718 119.489 35.4609 120.097 34.8527C120.115 34.8527 120.134 34.8343 120.152 34.8158ZM123.599 38.4467C123.95 38.1149 124.152 37.6541 124.152 37.1381C124.152 36.6589 123.968 36.1981 123.618 35.8664C123.267 35.5162 122.825 35.3319 122.346 35.3319C121.867 35.3319 121.406 35.5162 121.074 35.8664C120.724 36.2166 120.539 36.6589 120.539 37.1381C120.539 38.1333 121.35 38.9443 122.346 38.9443C122.844 38.9443 123.286 38.76 123.599 38.4467Z" fill="#29306C"/>
<path d="M141.997 34.8158C142.605 34.2445 143.379 33.9312 144.209 33.9312C145.057 33.9312 145.868 34.2629 146.476 34.8711C147.084 35.4793 147.416 36.2903 147.416 37.1381C147.416 38.9074 145.978 40.345 144.209 40.3266C143.361 40.3266 142.55 39.9948 141.941 39.3866C141.333 38.7784 141.001 37.9675 141.001 37.1197C141.001 36.2718 141.333 35.4609 141.941 34.8527C141.96 34.8527 141.978 34.8343 141.997 34.8158ZM145.444 38.4467C145.794 38.1149 145.997 37.6541 145.997 37.1381C145.997 36.6589 145.812 36.1981 145.462 35.8664C145.112 35.5162 144.67 35.3319 144.19 35.3319C143.711 35.3319 143.25 35.5162 142.918 35.8664C142.568 36.2166 142.384 36.6589 142.384 37.1381C142.384 38.1333 143.195 38.9443 144.19 38.9443C144.688 38.9443 145.13 38.76 145.444 38.4467Z" fill="#29306C"/>
<path d="M141.923 36.2719H124.964V37.9859H141.923V36.2719Z" fill="#29306C"/>
<path d="M16.609 86.0533H11.1157L3.74208 77.1144V86.0533H0V73.7784H5.54861L12.8669 82.791V73.7784H16.609V86.0533Z" fill="#29306C"/>
<path d="M34.1212 76.764H24.4618V78.6255H33.5682V81.2058H24.4618V83.0857H34.2871V86.053H20.7197V73.7782H34.1396V76.764H34.1212Z" fill="#29306C"/>
<path d="M43.9835 86.2007C42.5272 86.2007 41.458 86.127 40.8128 85.998C40.1676 85.869 39.6331 85.6478 39.2091 85.3345C38.7482 84.9843 38.398 84.5235 38.1952 83.9522C37.9924 83.3808 37.8818 82.6252 37.8818 81.6852V78.3308C37.8818 77.2987 37.9924 76.4877 38.1952 75.898C38.398 75.3082 38.7482 74.829 39.2275 74.4604C39.6331 74.1655 40.1676 73.9443 40.8681 73.8153C41.5502 73.6863 42.6009 73.6125 43.9835 73.6125H48.3892C49.7717 73.6125 50.8224 73.6863 51.5229 73.8153C52.2234 73.9443 52.758 74.1655 53.182 74.4788C53.6244 74.829 53.9746 75.2897 54.1774 75.898C54.3986 76.4877 54.4908 77.2618 54.4908 78.2018V81.6299C54.4908 82.5699 54.3802 83.3255 54.1774 83.9337C53.9746 84.5235 53.6244 85.0027 53.182 85.3529C52.7764 85.6662 52.2234 85.8874 51.5414 86.0164C50.8593 86.1454 49.8086 86.2191 48.4076 86.2191H43.9835V86.2007ZM44.9973 83.1228H47.3753C48.6841 83.1228 49.5689 82.9569 50.0113 82.6252C50.4538 82.2934 50.675 81.6668 50.675 80.7821V79.0496C50.675 78.1465 50.4538 77.5383 50.0298 77.2065C49.5874 76.8748 48.721 76.7089 47.3937 76.7089H44.9973C43.6517 76.7089 42.7668 76.8748 42.3428 77.2065C41.9189 77.5383 41.7161 78.1834 41.7161 79.1233V80.8374C41.7161 81.7221 41.9373 82.3303 42.3797 82.662C42.7853 82.9569 43.6701 83.1228 44.9973 83.1228Z" fill="#29306C"/>
<path d="M58.4172 82.0534H59.892L59.8551 82.293V82.7722C59.8551 83.5463 60.1132 84.0808 60.6109 84.3757C61.127 84.6706 62.0672 84.8365 63.4497 84.8365H66.6572C68.3163 84.8365 69.4039 84.6706 69.92 84.3388C70.4362 84.0071 70.6758 83.3804 70.6758 82.4589C70.6758 81.6848 70.4915 81.1503 70.1412 80.8554C69.791 80.5606 69.072 80.4315 67.966 80.4315H62.7861C61.1455 80.4315 60.0026 80.1735 59.3389 79.6759C58.6753 79.1598 58.3435 78.2936 58.3435 77.0587C58.3435 75.787 58.7306 74.9023 59.4864 74.4047C60.2422 73.8886 61.6247 73.649 63.634 73.649H66.4176C67.9291 73.649 68.9983 73.7043 69.6066 73.8149C70.2334 73.9255 70.7127 74.1282 71.0445 74.4231C71.321 74.6627 71.5238 74.9945 71.6712 75.3815C71.8003 75.787 71.874 76.2662 71.874 76.856V77.2062H70.3993V77.0219C70.3993 76.2109 70.1965 75.658 69.8094 75.3815C69.4223 75.1051 68.5928 74.9576 67.3393 74.9576H63.1363C61.8644 74.9576 60.998 75.1051 60.5556 75.4C60.1132 75.6949 59.892 76.2293 59.892 77.0034C59.892 77.7959 60.1132 78.3489 60.5371 78.6438C60.9611 78.9387 61.8644 79.0861 63.2469 79.0861H67.6711C68.1688 79.0861 68.5928 79.0861 68.943 79.1045C69.2933 79.123 69.5882 79.1598 69.8463 79.1967C70.344 79.2704 70.7311 79.3994 71.026 79.5837C71.45 79.8233 71.745 80.1735 71.9293 80.6158C72.1136 81.0582 72.2058 81.7033 72.2058 82.5695C72.2058 83.9334 71.8371 84.8918 71.0998 85.4263C70.3624 85.9607 69.0352 86.2372 67.1365 86.2372H62.9704C61.3298 86.2372 60.15 85.9976 59.4495 85.4815C58.7491 84.9839 58.3988 84.1545 58.3988 83.0118L58.4172 82.2193V82.0534Z" fill="#4184C5"/>
<path d="M76.4822 86.053V73.7782H88.5933V75.1421H77.9753V78.9941H88.1324V80.358H77.9753V84.6707H88.5933V86.0346H76.4822V86.053Z" fill="#4184C5"/>
<path d="M97.6073 86.2007C96.3354 86.2007 95.4137 86.127 94.8422 85.998C94.2708 85.869 93.8099 85.6478 93.4228 85.3345C93.0173 84.9843 92.7223 84.5235 92.538 83.9522C92.3536 83.3808 92.2615 82.6252 92.2615 81.6852V78.3308C92.2615 77.3171 92.3536 76.5062 92.538 75.898C92.7223 75.2897 93.0173 74.8105 93.4228 74.4604C93.7731 74.147 94.2523 73.9259 94.8607 73.7969C95.4505 73.6678 96.3722 73.5941 97.5889 73.5941H101.46C103.451 73.5941 104.815 73.8521 105.515 74.3498C106.216 74.8474 106.566 75.7505 106.566 77.0591V77.4461V77.7042H105.165V77.5199C105.165 76.5615 104.962 75.8795 104.538 75.5109C104.114 75.1239 103.377 74.9396 102.308 74.9396H96.9806C96.2616 74.9396 95.6902 75.0133 95.2846 75.1423C94.8791 75.2713 94.5657 75.5109 94.3445 75.8242C94.197 76.0454 94.0864 76.3034 94.0127 76.6168C93.939 76.9301 93.9021 77.4646 93.9021 78.2018V78.4414V81.464C93.9021 82.1828 93.939 82.7173 93.9943 83.0306C94.068 83.3439 94.1786 83.6204 94.3261 83.8416C94.5473 84.1549 94.8607 84.3761 95.2846 84.5235C95.7086 84.671 96.2616 84.7447 96.9806 84.7447H102.29C103.451 84.7447 104.244 84.5604 104.667 84.1918C105.091 83.8231 105.294 83.1412 105.294 82.146V81.8326H106.695V82.146V82.4408C106.695 83.2149 106.621 83.8231 106.474 84.2839C106.327 84.7447 106.068 85.1133 105.718 85.4082C105.386 85.6846 104.926 85.8874 104.336 85.998C103.746 86.127 102.769 86.1823 101.442 86.1823H97.6073V86.2007Z" fill="#4184C5"/>
<path d="M116.152 86.2005C114.917 86.2005 114.033 86.1267 113.461 85.9977C112.89 85.8687 112.429 85.6476 112.06 85.3342C111.673 85.0025 111.378 84.5417 111.194 83.9888C111.009 83.4174 110.917 82.6618 110.917 81.7218V73.7598H112.484V81.7218C112.484 82.3669 112.521 82.8461 112.576 83.141C112.65 83.4359 112.761 83.6939 112.908 83.9151C113.111 84.2284 113.424 84.4496 113.83 84.597C114.235 84.7444 114.788 84.8182 115.489 84.8182H120.54C121.259 84.8182 121.812 84.7444 122.199 84.6154C122.586 84.468 122.899 84.2468 123.12 83.9335C123.268 83.7123 123.379 83.4727 123.434 83.1778C123.508 82.8829 123.526 82.4222 123.526 81.7587V81.3348V73.7966H125.093V81.6665C125.093 82.6065 125.001 83.3806 124.816 83.9704C124.632 84.5601 124.356 85.0393 123.95 85.3711C123.6 85.6844 123.139 85.9056 122.549 86.0346C122.273 86.0899 121.904 86.1452 121.461 86.182C121.019 86.2189 120.484 86.2373 119.858 86.2373H116.152V86.2005Z" fill="#4184C5"/>
<path d="M131.25 86.053H129.72V73.7782H138.494C140.448 73.7782 141.739 73.9809 142.365 74.4048C142.992 74.8288 143.324 75.5844 143.324 76.7087V78.1831C143.324 78.9388 143.158 79.4917 142.845 79.8419C142.531 80.1921 141.96 80.4501 141.149 80.6344C141.812 80.7081 142.31 80.9293 142.66 81.3348C143.011 81.7403 143.176 82.3116 143.176 83.012V86.053H141.646V83.3069C141.646 82.5143 141.462 81.9614 141.112 81.6665C140.928 81.5191 140.651 81.4085 140.245 81.3348C139.858 81.2611 139.324 81.2242 138.66 81.2242H131.25V86.053ZM138.992 75.1052H131.25V79.805H138.992C140.098 79.805 140.817 79.676 141.186 79.3996C141.554 79.1231 141.72 78.5702 141.72 77.7408V77.151C141.72 76.3401 141.536 75.7871 141.186 75.5107C140.817 75.2342 140.08 75.1052 138.992 75.1052Z" fill="#4184C5"/>
<path d="M149.259 86.053H147.729V73.7782H149.259V86.053Z" fill="#4184C5"/>
<path d="M160.578 86.053H159.048V75.1421H152.965V73.7782H166.643V75.1421H160.559V86.053H160.578Z" fill="#4184C5"/>
<path d="M175.749 86.053V80.9109L168.781 73.7598H170.937L176.56 79.5101L182.164 73.7598H184.339L177.352 80.9109V86.053H175.749Z" fill="#4184C5"/>
</svg>
