<svg width="70" height="56" viewBox="0 0 70 56" fill="none" xmlns="http://www.w3.org/2000/svg">
<g clip-path="url(#clip0_5249_4689)">
<path d="M59.1 50.8H58.2478V11.7297C58.2478 11.398 57.9791 11.1297 57.6478 11.1297H36.3V4.59997C36.3 4.41306 36.2127 4.23669 36.0642 4.12302C35.9156 4.00935 35.7214 3.97243 35.5418 4.02106L13.5941 10.0211C13.3333 10.0925 13.1523 10.3293 13.1523 10.6V50.8H12.3C11.9687 50.8 11.7 51.0683 11.7 51.4C11.7 51.7316 11.9687 52 12.3 52H59.1C59.4314 52 59.7 51.7316 59.7 51.4C59.7 51.0683 59.4314 50.8 59.1 50.8ZM57.0478 12.3297V50.8H36.3V12.3297H57.0478ZM35.1 30.325C35.1 31.5068 34.1385 32.4683 32.9567 32.4683C31.7745 32.4683 30.813 31.5068 30.813 30.325V26.2H35.1V30.325ZM29.613 30.325C29.613 31.5068 28.6515 32.4683 27.4696 32.4683C26.2878 32.4683 25.3263 31.5068 25.3263 30.325V26.2H29.613V30.325ZM24.1263 30.325C24.1263 31.5068 23.1648 32.4683 21.9826 32.4683C20.8008 32.4683 19.8393 31.5068 19.8393 30.325V26.2H24.1263V30.325ZM18.6393 30.325C18.6393 31.5068 17.6777 32.4683 16.4959 32.4683C15.3138 32.4683 14.3523 31.5068 14.3523 30.325V26.2H18.6393V30.325ZM16.4959 33.6683C17.6313 33.6683 18.6347 33.0983 19.2393 32.2307C19.8438 33.0983 20.8473 33.6683 21.9826 33.6683C23.118 33.6683 24.1216 33.0982 24.7262 32.2306C25.3308 33.0982 26.3342 33.6683 27.4696 33.6683C28.605 33.6683 29.6085 33.0982 30.2131 32.2306C30.8177 33.0982 31.8213 33.6683 32.9567 33.6683C33.7719 33.6683 34.5192 33.3742 35.1 32.8876V43.6574H14.3523V32.8875C14.9331 33.3742 15.6806 33.6683 16.4959 33.6683ZM35.1 5.3863V25H14.3523V11.0582L35.1 5.3863ZM14.3523 44.8574H35.1V50.8H14.3523V44.8574Z" fill="#1D3D91"/>
<path d="M18.2104 21.7258H23.0676C23.3989 21.7258 23.6676 21.4574 23.6676 21.1258V16.9041C23.6676 15.2342 22.3088 13.8754 20.6389 13.8754C18.9689 13.8754 17.6104 15.2342 17.6104 16.9041V21.1258C17.6104 21.4574 17.8791 21.7258 18.2104 21.7258ZM18.8104 16.9041C18.8104 15.8957 19.6308 15.0754 20.6389 15.0754C21.6473 15.0754 22.4676 15.8957 22.4676 16.9041V20.5258H18.8104V16.9041Z" fill="#1D3D91"/>
<path d="M26.3847 21.7258H31.2421C31.5735 21.7258 31.8421 21.4574 31.8421 21.1258V16.9041C31.8421 15.2342 30.4833 13.8754 28.8134 13.8754C27.1435 13.8754 25.7847 15.2342 25.7847 16.9041V21.1258C25.7847 21.4574 26.0534 21.7258 26.3847 21.7258ZM26.9847 16.9041C26.9847 15.8957 27.805 15.0754 28.8134 15.0754C29.8218 15.0754 30.6421 15.8957 30.6421 16.9041V20.5258H26.9847V16.9041Z" fill="#1D3D91"/>
<path d="M40.158 23.793H45.0154C45.3468 23.793 45.6154 23.5247 45.6154 23.193V18.4241C45.6154 16.7542 44.2566 15.3954 42.5867 15.3954C40.9168 15.3954 39.558 16.7542 39.558 18.4241V23.193C39.558 23.5247 39.8266 23.793 40.158 23.793ZM40.758 18.4241C40.758 17.4157 41.5783 16.5954 42.5867 16.5954C43.5951 16.5954 44.4154 17.4157 44.4154 18.4241V22.593H40.758V18.4241Z" fill="#1D3D91"/>
<path d="M48.3326 23.793H53.1898C53.5211 23.793 53.7898 23.5247 53.7898 23.193V18.4241C53.7898 16.7542 52.4313 15.3954 50.7613 15.3954C49.0914 15.3954 47.7326 16.7542 47.7326 18.4241V23.193C47.7326 23.5247 48.0013 23.793 48.3326 23.793ZM48.9326 18.4241C48.9326 17.4157 49.7529 16.5954 50.7613 16.5954C51.7695 16.5954 52.5898 17.4157 52.5898 18.4241V22.593H48.9326V18.4241Z" fill="#1D3D91"/>
<path d="M40.158 35.7268H45.0154C45.3468 35.7268 45.6154 35.4584 45.6154 35.1268V30.3578C45.6154 28.6879 44.2566 27.3291 42.5867 27.3291C40.9168 27.3291 39.558 28.6879 39.558 30.3578V35.1268C39.558 35.4584 39.8266 35.7268 40.158 35.7268ZM40.758 30.3578C40.758 29.3494 41.5783 28.5291 42.5867 28.5291C43.5951 28.5291 44.4154 29.3494 44.4154 30.3578V34.5268H40.758V30.3578Z" fill="#1D3D91"/>
<path d="M48.3326 35.7268H53.1898C53.5211 35.7268 53.7898 35.4584 53.7898 35.1268V30.3578C53.7898 28.6879 52.4313 27.3291 50.7613 27.3291C49.0914 27.3291 47.7326 28.6879 47.7326 30.3578V35.1268C47.7326 35.4584 48.0013 35.7268 48.3326 35.7268ZM48.9326 30.3578C48.9326 29.3494 49.7529 28.5291 50.7613 28.5291C51.7695 28.5291 52.5898 29.3494 52.5898 30.3578V34.5268H48.9326V30.3578Z" fill="#1D3D91"/>
<path d="M40.158 47.66H45.0154C45.3468 47.66 45.6154 47.3916 45.6154 47.06V42.291C45.6154 40.6211 44.2566 39.2623 42.5867 39.2623C40.9168 39.2623 39.558 40.6211 39.558 42.291V47.06C39.558 47.3916 39.8266 47.66 40.158 47.66ZM40.758 42.291C40.758 41.2826 41.5783 40.4623 42.5867 40.4623C43.5951 40.4623 44.4154 41.2826 44.4154 42.291V46.46H40.758V42.291Z" fill="#1D3D91"/>
<path d="M48.3326 47.66H53.1898C53.5211 47.66 53.7898 47.3916 53.7898 47.06V42.291C53.7898 40.6211 52.4313 39.2623 50.7613 39.2623C49.0914 39.2623 47.7326 40.6211 47.7326 42.291V47.06C47.7326 47.3916 48.0013 47.66 48.3326 47.66ZM48.9326 42.291C48.9326 41.2826 49.7529 40.4623 50.7613 40.4623C51.7695 40.4623 52.5898 41.2826 52.5898 42.291V46.46H48.9326V42.291Z" fill="#1D3D91"/>
</g>
<defs>
<clipPath id="clip0_5249_4689">
<rect width="49.2" height="48" fill="white" transform="translate(10.5002 4)"/>
</clipPath>
</defs>
</svg>
