<svg width="49" height="48" viewBox="0 0 49 48" fill="none" xmlns="http://www.w3.org/2000/svg">
<path d="M24.578 16.7439C24.8952 16.7439 25.1994 16.6179 25.4238 16.3936C25.6481 16.1692 25.7741 15.865 25.7741 15.5478C25.7741 15.2306 25.6481 14.9263 25.4238 14.702C25.1994 14.4777 24.8952 14.3517 24.578 14.3517C22.6855 14.3517 20.8355 14.9129 19.2619 15.9643C17.6883 17.0157 16.4619 18.5102 15.7377 20.2586C15.0134 22.0071 14.8239 23.931 15.1931 25.7872C15.5624 27.6433 16.4737 29.3483 17.8119 30.6865C19.1501 32.0247 20.8551 32.936 22.7112 33.3052C24.5674 33.6745 26.4913 33.485 28.2398 32.7607C29.9882 32.0365 31.4827 30.8101 32.5341 29.2365C33.5855 27.6629 34.1467 25.8129 34.1467 23.9204C34.1467 23.6032 34.0207 23.299 33.7964 23.0746C33.5721 22.8503 33.2678 22.7243 32.9506 22.7243C32.6334 22.7243 32.3292 22.8503 32.1048 23.0746C31.8805 23.299 31.7545 23.6032 31.7545 23.9204C31.7545 25.3398 31.3336 26.7273 30.5451 27.9075C29.7565 29.0876 28.6357 30.0075 27.3243 30.5507C26.013 31.0938 24.57 31.2359 23.1779 30.959C21.7858 30.6821 20.5071 29.9986 19.5034 28.995C18.4998 27.9913 17.8163 26.7126 17.5394 25.3205C17.2624 23.9284 17.4046 22.4854 17.9477 21.1741C18.4909 19.8627 19.4107 18.7419 20.5909 17.9533C21.7711 17.1648 23.1586 16.7439 24.578 16.7439Z" fill="#0F1229"/>
<path d="M47.3996 16.8161C47.3016 16.517 47.0898 16.2686 46.81 16.1246C46.5302 15.9805 46.205 15.9524 45.9047 16.0464C45.6043 16.1404 45.3531 16.3489 45.2053 16.6267C45.0575 16.9045 45.0251 17.2294 45.1151 17.5309C46.5628 22.1446 46.4214 27.1106 44.7133 31.6344C43.0053 36.1582 39.8295 39.9785 35.6938 42.4841C31.5581 44.9897 26.7015 46.0359 21.901 45.4553C17.1005 44.8746 12.6334 42.7008 9.21426 39.2814C5.79517 35.8621 3.62166 31.3948 3.04141 26.5943C2.46116 21.7937 3.50771 16.9372 6.01364 12.8017C8.51957 8.66619 12.3401 5.49061 16.864 3.78294C21.388 2.07528 26.3539 1.9342 30.9675 3.38229C31.1183 3.43285 31.2777 3.45281 31.4364 3.44101C31.595 3.42922 31.7497 3.38589 31.8914 3.31358C32.0331 3.24126 32.1589 3.14141 32.2616 3.01986C32.3642 2.89832 32.4415 2.75752 32.4891 2.60571C32.5366 2.45391 32.5534 2.29414 32.5385 2.13577C32.5235 1.97739 32.4771 1.8236 32.402 1.68337C32.3269 1.54315 32.2245 1.41933 32.1009 1.31914C31.9774 1.21895 31.8351 1.14442 31.6823 1.09991C26.5586 -0.507095 21.0439 -0.349345 16.0204 1.54793C10.9968 3.4452 6.75473 6.97238 3.97253 11.5653C1.19034 16.1582 0.0288214 21.5515 0.673765 26.8825C1.31871 32.2135 3.73285 37.1742 7.53005 40.9711C11.3272 44.7681 16.2881 47.1819 21.6191 47.8264C26.9502 48.471 32.3434 47.3091 36.9361 44.5266C41.5288 41.7441 45.0557 37.5018 46.9527 32.4781C48.8496 27.4544 49.007 21.9397 47.3996 16.8161Z" fill="#0F1229"/>
<path d="M26.856 8.53673C26.8588 8.2086 26.7368 7.89165 26.5147 7.65006C26.2927 7.40848 25.9871 7.26031 25.6599 7.23557C25.3024 7.20399 24.945 7.1748 24.5782 7.1748C21.2664 7.1748 18.0288 8.1569 15.2751 9.99689C12.5214 11.8369 10.3751 14.4521 9.10767 17.5119C7.84026 20.5717 7.50865 23.9386 8.15477 27.1869C8.80089 30.4351 10.3957 33.4188 12.7376 35.7607C15.0794 38.1026 18.0632 39.6974 21.3114 40.3435C24.5597 40.9896 27.9266 40.658 30.9864 39.3906C34.0462 38.1232 36.6614 35.9769 38.5014 33.2232C40.3414 30.4694 41.3235 27.2319 41.3235 23.92C41.3235 23.4874 41.2969 23.0552 41.2441 22.6258C41.2292 22.4595 41.1799 22.2981 41.0993 22.1518C41.0187 22.0055 40.9086 21.8776 40.776 21.7761C40.6433 21.6747 40.491 21.6019 40.3288 21.5624C40.1665 21.5229 39.9978 21.5176 39.8334 21.5468C39.669 21.5759 39.5124 21.6389 39.3736 21.7318C39.2348 21.8247 39.1169 21.9454 39.0272 22.0863C38.9376 22.2272 38.8782 22.3852 38.8528 22.5503C38.8275 22.7153 38.8367 22.8839 38.8799 23.0452C38.9056 23.3349 38.9313 23.6233 38.9313 23.92C38.9313 26.7588 38.0895 29.5338 36.5124 31.8942C34.9352 34.2545 32.6936 36.0942 30.0709 37.1805C27.4482 38.2669 24.5623 38.5511 21.7781 37.9973C18.9939 37.4435 16.4364 36.0765 14.4291 34.0692C12.4218 32.0619 11.0548 29.5044 10.501 26.7202C9.94717 23.936 10.2314 21.05 11.3178 18.4274C12.4041 15.8047 14.2438 13.563 16.6041 11.9859C18.9645 10.4088 21.7395 9.56698 24.5782 9.56698C24.8749 9.56698 25.1623 9.59383 25.4519 9.61835L25.6762 9.63821C25.8263 9.64475 25.9762 9.6213 26.1172 9.56924C26.2582 9.51718 26.3873 9.43755 26.4972 9.335C26.607 9.23245 26.6953 9.10904 26.7569 8.97198C26.8185 8.83492 26.8522 8.68695 26.856 8.53673Z" fill="#0F1229"/>
<path d="M31.755 10.7631V15.0522L23.7328 23.0744C23.6194 23.1849 23.5291 23.3169 23.4671 23.4626C23.4051 23.6083 23.3727 23.7649 23.3717 23.9232C23.3707 24.0816 23.4011 24.2385 23.4612 24.385C23.5214 24.5315 23.61 24.6646 23.722 24.7766C23.8339 24.8885 23.967 24.9771 24.1135 25.0373C24.26 25.0974 24.417 25.1279 24.5753 25.1269C24.7337 25.1259 24.8902 25.0934 25.0359 25.0314C25.1816 24.9694 25.3136 24.8791 25.4241 24.7658L33.4463 16.7435H37.7354C37.8925 16.7436 38.048 16.7126 38.1931 16.6525C38.3383 16.5924 38.4701 16.5043 38.5811 16.3932L45.7576 9.21662C45.9249 9.04935 46.0388 8.83624 46.0849 8.60424C46.1311 8.37224 46.1074 8.13176 46.0169 7.91322C45.9263 7.69468 45.7731 7.50789 45.5764 7.37646C45.3797 7.24503 45.1485 7.17487 44.9119 7.17484H41.3237V3.58658C41.3237 3.35003 41.2535 3.11881 41.1221 2.92214C40.9906 2.72547 40.8038 2.57218 40.5853 2.48166C40.3668 2.39115 40.1263 2.36746 39.8943 2.4136C39.6623 2.45974 39.4492 2.57364 39.2819 2.74088L32.1054 9.91741C31.9943 10.0284 31.9061 10.1603 31.846 10.3054C31.7859 10.4505 31.755 10.606 31.755 10.7631ZM34.1472 11.2583L38.9315 6.47399V8.37093C38.9314 8.52803 38.9623 8.68361 39.0224 8.82876C39.0824 8.97392 39.1705 9.10582 39.2816 9.2169C39.3927 9.32799 39.5246 9.41609 39.6698 9.47616C39.8149 9.53624 39.9705 9.56711 40.1276 9.56702H42.0245L37.2402 14.3514H34.1472V11.2583Z" fill="#4184C5"/>
</svg>
