<svg width="70" height="56" viewBox="0 0 70 56" fill="none" xmlns="http://www.w3.org/2000/svg">
<path fill-rule="evenodd" clip-rule="evenodd" d="M20.6307 50.9008V46.4496H17.5385V50.9008H20.6307ZM22.3743 34.0336V31.8933H15.7901V34.0331L22.3743 34.0336ZM24.5574 36.5403V35.1328H13.6076V36.5403H24.5574ZM24.5574 39.4128V37.6395H13.6076V39.4133L24.5574 39.4128ZM24.5574 42.2859V40.512H13.6076V42.2859H24.5574ZM24.5574 50.9008H21.7365V45.9003C21.7363 45.7545 21.6779 45.6147 21.5741 45.5116C21.4702 45.4085 21.3294 45.3505 21.1825 45.3504H16.9824C16.8355 45.3504 16.6946 45.4083 16.5907 45.5115C16.4868 45.6146 16.4284 45.7544 16.4284 45.9003V50.9008H13.6076V43.3851H24.5595V50.9008H24.5574ZM30.8696 21.04H29.0546V23.4027H30.8696V21.04ZM28.4996 19.9408H31.422C31.5688 19.9408 31.7095 19.9987 31.8133 20.1017C31.9171 20.2047 31.9754 20.3444 31.9754 20.4901V23.9525C31.9754 24.0247 31.9611 24.0961 31.9333 24.1628C31.9055 24.2294 31.8647 24.29 31.8133 24.341C31.7619 24.392 31.7009 24.4324 31.6338 24.4601C31.5666 24.4877 31.4947 24.5019 31.422 24.5019H28.4996C28.3527 24.5019 28.2119 24.444 28.1081 24.341C28.0042 24.238 27.9458 24.0983 27.9456 23.9525V20.4901C27.9458 20.3444 28.0042 20.2047 28.1081 20.1017C28.2119 19.9987 28.3527 19.9408 28.4996 19.9408ZM36.2196 21.04H34.4046V23.4027H36.2196V21.04ZM33.8506 19.9408H36.7741C36.9209 19.9408 37.0618 19.9987 37.1656 20.1017C37.2695 20.2047 37.3279 20.3444 37.3281 20.4901V23.9525C37.3279 24.0983 37.2695 24.238 37.1656 24.341C37.0618 24.444 36.9209 24.5019 36.7741 24.5019H33.8506C33.7779 24.5019 33.706 24.4877 33.6388 24.4601C33.5717 24.4324 33.5107 24.392 33.4593 24.341C33.4079 24.29 33.3671 24.2294 33.3393 24.1628C33.3115 24.0961 33.2972 24.0247 33.2972 23.9525V20.4901C33.2972 20.3444 33.3555 20.2047 33.4593 20.1017C33.5631 19.9987 33.7038 19.9408 33.8506 19.9408ZM41.569 21.04H39.7545V23.4027H41.569V21.04ZM39.2006 19.9408H42.123C42.2698 19.9408 42.4105 19.9987 42.5143 20.1017C42.6181 20.2047 42.6764 20.3444 42.6764 20.4901V23.9525C42.6764 24.0247 42.6621 24.0961 42.6343 24.1628C42.6065 24.2294 42.5657 24.29 42.5143 24.341C42.4629 24.392 42.4019 24.4324 42.3348 24.4601C42.2676 24.4877 42.1957 24.5019 42.123 24.5019H39.2006C39.0538 24.5019 38.9129 24.444 38.8091 24.341C38.7052 24.238 38.6468 24.0983 38.6466 23.9525V20.4901C38.6468 20.3444 38.7052 20.2047 38.8091 20.1017C38.9129 19.9987 39.0538 19.9408 39.2006 19.9408ZM30.8696 27.8517H29.0546V30.2149H30.8696V27.8517ZM28.4996 26.7525H31.422C31.5688 26.7527 31.7096 26.8107 31.8134 26.9138C31.9171 27.0169 31.9754 27.1567 31.9754 27.3024V30.7643C31.9754 30.91 31.9171 31.0498 31.8134 31.1529C31.7096 31.256 31.5688 31.314 31.422 31.3141H28.4996C28.3527 31.314 28.2119 31.256 28.108 31.1529C28.0042 31.0498 27.9458 30.9101 27.9456 30.7643V27.3024C27.9458 27.1566 28.0042 27.0168 28.108 26.9137C28.2119 26.8107 28.3527 26.7527 28.4996 26.7525ZM36.218 27.8517H34.4046V30.2149H36.2196V27.8517H36.218ZM33.849 26.7525H36.7741C36.921 26.7527 37.0618 26.8107 37.1657 26.9137C37.2695 27.0168 37.3279 27.1566 37.3281 27.3024V30.7643C37.3279 30.9101 37.2695 31.0498 37.1657 31.1529C37.0618 31.256 36.921 31.314 36.7741 31.3141H33.8506C33.7038 31.314 33.563 31.256 33.4592 31.1529C33.3555 31.0498 33.2972 30.91 33.2972 30.7643V27.3024C33.2972 27.1567 33.3555 27.0169 33.4592 26.9138C33.563 26.8107 33.7038 26.7527 33.8506 26.7525H33.849ZM41.5674 27.8517H39.7545V30.2149H41.569V27.8517H41.5674ZM39.199 26.7525H42.1214C42.2682 26.7527 42.409 26.8107 42.5127 26.9138C42.6165 27.0169 42.6748 27.1567 42.6748 27.3024V30.7643C42.6748 30.91 42.6165 31.0498 42.5127 31.1529C42.409 31.256 42.2682 31.314 42.1214 31.3141H39.2006C39.0537 31.314 38.9129 31.256 38.809 31.1529C38.7052 31.0498 38.6468 30.9101 38.6466 30.7643V27.3024C38.6468 27.1566 38.7052 27.0168 38.809 26.9137C38.9129 26.8107 39.0537 26.7527 39.2006 26.7525H39.199ZM30.8696 34.6667H29.0546V37.0293H30.8696V34.6667ZM28.4996 33.5648H31.422C31.5688 33.5648 31.7095 33.6227 31.8133 33.7257C31.9171 33.8287 31.9754 33.9684 31.9754 34.1141V37.5765C31.9754 37.7222 31.9171 37.8619 31.8133 37.965C31.7095 38.068 31.5688 38.1259 31.422 38.1259H28.4996C28.3527 38.1259 28.2119 38.068 28.1081 37.965C28.0042 37.862 27.9458 37.7223 27.9456 37.5765V34.1141C27.9458 33.9684 28.0042 33.8287 28.1081 33.7257C28.2119 33.6227 28.3527 33.5648 28.4996 33.5648ZM36.2196 34.6667H34.4046V37.0293H36.2196V34.6667ZM33.8506 33.5675H36.7741C36.9209 33.5675 37.0618 33.6253 37.1656 33.7283C37.2695 33.8313 37.3279 33.9711 37.3281 34.1168V37.5792C37.3279 37.7249 37.2695 37.8647 37.1656 37.9677C37.0618 38.0707 36.9209 38.1285 36.7741 38.1285H33.8506C33.7038 38.1285 33.5631 38.0707 33.4593 37.9676C33.3555 37.8646 33.2972 37.7249 33.2972 37.5792V34.1141C33.2972 33.9684 33.3555 33.8287 33.4593 33.7257C33.5631 33.6227 33.7038 33.5648 33.8506 33.5648V33.5675ZM41.569 34.6667H39.7545V37.0293H41.569V34.6667ZM39.2006 33.5675H42.123C42.1957 33.5675 42.2676 33.5817 42.3348 33.6093C42.4019 33.6369 42.4629 33.6774 42.5143 33.7284C42.5657 33.7794 42.6065 33.8399 42.6343 33.9066C42.6621 33.9732 42.6764 34.0447 42.6764 34.1168V37.5792C42.6764 37.7249 42.6181 37.8646 42.5143 37.9676C42.4105 38.0707 42.2698 38.1285 42.123 38.1285H39.2006C39.0538 38.1285 38.9129 38.0707 38.8091 37.9677C38.7052 37.8647 38.6468 37.7249 38.6466 37.5792V34.1141C38.6468 33.9684 38.7052 33.8287 38.8091 33.7257C38.9129 33.6227 39.0538 33.5648 39.2006 33.5648V33.5675ZM30.7939 41.4757H28.9789V43.84H30.7939V41.4757ZM28.4249 40.3765H31.3473C31.4942 40.3767 31.635 40.4347 31.7389 40.5377C31.8427 40.6408 31.9011 40.7806 31.9013 40.9264V44.3883C31.9013 44.5341 31.8429 44.674 31.739 44.7771C31.6351 44.8802 31.4942 44.9381 31.3473 44.9381H28.4249C28.3522 44.9381 28.2802 44.9239 28.213 44.8963C28.1458 44.8686 28.0848 44.8281 28.0334 44.7771C27.982 44.726 27.9412 44.6654 27.9134 44.5987C27.8857 44.5319 27.8714 44.4605 27.8715 44.3883V40.9264C27.8715 40.7807 27.9298 40.6409 28.0335 40.5378C28.1373 40.4347 28.2781 40.3767 28.4249 40.3765ZM36.1433 41.4757H34.3283V43.84H36.1433V41.4757ZM33.7749 40.3765H36.6973C36.8441 40.3767 36.9849 40.4347 37.0886 40.5378C37.1924 40.6409 37.2507 40.7807 37.2507 40.9264V44.3883C37.2508 44.4605 37.2365 44.5319 37.2087 44.5987C37.1809 44.6654 37.1402 44.726 37.0888 44.7771C37.0374 44.8281 36.9764 44.8686 36.9092 44.8963C36.842 44.9239 36.77 44.9381 36.6973 44.9381H33.7749C33.6279 44.9381 33.487 44.8802 33.3831 44.7771C33.2793 44.674 33.2209 44.5341 33.2209 44.3883V40.9264C33.221 40.7806 33.2794 40.6408 33.3833 40.5377C33.4872 40.4347 33.628 40.3767 33.7749 40.3765ZM41.4933 41.4757H39.6782V43.84H41.4933V41.4757ZM39.1248 40.3765H42.0467C42.1936 40.3765 42.3345 40.4345 42.4384 40.5376C42.5423 40.6407 42.6007 40.7806 42.6007 40.9264V44.3883C42.6007 44.4605 42.5865 44.532 42.5586 44.5988C42.5308 44.6655 42.49 44.7262 42.4386 44.7772C42.3871 44.8283 42.326 44.8688 42.2588 44.8964C42.1915 44.924 42.1195 44.9382 42.0467 44.9381H39.1248C39.0521 44.9382 38.98 44.924 38.9127 44.8964C38.8455 44.8688 38.7844 44.8283 38.733 44.7772C38.6815 44.7262 38.6407 44.6655 38.6129 44.5988C38.5851 44.532 38.5708 44.4605 38.5709 44.3883V40.9264C38.5709 40.7806 38.6292 40.6407 38.7331 40.5376C38.837 40.4345 38.9779 40.3765 39.1248 40.3765ZM30.9105 50.9008H25.6669V18.6635H44.881V50.9008H39.6379V47.7237C39.6378 47.578 39.5795 47.4383 39.4757 47.3353C39.372 47.2322 39.2313 47.1741 39.0845 47.1739H31.4639C31.3171 47.174 31.1763 47.232 31.0725 47.3351C30.9688 47.4382 30.9105 47.578 30.9105 47.7237V50.9008ZM34.7205 50.9008V48.2731H32.0179V50.9008H34.7205ZM35.8279 48.2731V50.9008H38.53V48.2731H35.8279ZM30.4172 17.5643V16.3872H27.6823V17.5643H30.4172ZM54.8389 12.1483V10.5312H43.4523V12.1483H54.8389ZM53.0174 9.432V7.81547H45.2738V9.432H53.0174ZM51.5726 6.71627V5.0992H46.7186V6.71627H51.5726ZM45.6112 6.71627V4.54987C45.6111 4.47768 45.6254 4.40619 45.6532 4.33948C45.6809 4.27277 45.7217 4.21215 45.7731 4.16108C45.8245 4.11002 45.8855 4.06951 45.9527 4.04187C46.0199 4.01423 46.0919 4 46.1646 4H52.1287C52.2749 4.00099 52.4148 4.05937 52.5178 4.1624C52.6208 4.26543 52.6785 4.40473 52.6784 4.54987V6.71627H53.5698C53.7166 6.71627 53.8573 6.77414 53.9611 6.87716C54.0649 6.98018 54.1232 7.11991 54.1232 7.2656V9.432H55.3913C55.5381 9.43214 55.6788 9.49014 55.7826 9.59324C55.8864 9.69635 55.9447 9.83613 55.9447 9.98187V12.1483H56.9468C57.0935 12.1483 57.2343 12.2061 57.3381 12.3092C57.4419 12.4122 57.5002 12.5519 57.5002 12.6976V51.4501C57.5003 51.5956 57.4423 51.7353 57.3389 51.8384C57.2354 51.9414 57.095 51.9996 56.9484 52H13.0536C12.9809 52 12.9089 51.9858 12.8417 51.9581C12.7745 51.9305 12.7135 51.89 12.6621 51.8389C12.6107 51.7879 12.5699 51.7272 12.5422 51.6605C12.5144 51.5938 12.5001 51.5223 12.5002 51.4501V34.5835C12.5002 34.4377 12.5585 34.2979 12.6622 34.1948C12.766 34.0917 12.9068 34.0337 13.0536 34.0336H14.6827V31.344C14.6827 31.2718 14.6971 31.2003 14.7249 31.1337C14.7527 31.067 14.7936 31.0064 14.845 30.9554C14.8965 30.9044 14.9575 30.8639 15.0247 30.8363C15.0919 30.8088 15.164 30.7946 15.2367 30.7947H22.9304C23.0772 30.7947 23.218 30.8525 23.3219 30.9555C23.4258 31.0585 23.4842 31.1983 23.4844 31.344V34.0336H24.559V18.1136C24.559 18.0415 24.5733 17.97 24.6011 17.9034C24.6289 17.8367 24.6697 17.7762 24.7211 17.7252C24.7725 17.6742 24.8335 17.6337 24.9006 17.6061C24.9677 17.5785 25.0397 17.5643 25.1124 17.5643H26.5744V15.84C26.5744 15.6943 26.6327 15.5545 26.7365 15.4514C26.8402 15.3483 26.981 15.2903 27.1278 15.2901H28.4953V7.30187C28.4953 7.15603 28.5536 7.01617 28.6575 6.91305C28.7614 6.80993 28.9023 6.752 29.0492 6.752C29.1962 6.752 29.3371 6.80993 29.441 6.91305C29.5448 7.01617 29.6032 7.15603 29.6032 7.30187V15.288H30.9712C31.0441 15.2881 31.1162 15.3024 31.1835 15.3302C31.2508 15.358 31.3119 15.3987 31.3633 15.45C31.4147 15.5013 31.4554 15.5621 31.4831 15.629C31.5108 15.696 31.5249 15.7677 31.5246 15.84V17.5664H40.7889V12.6976C40.789 12.5519 40.8474 12.4121 40.9513 12.3091C41.0552 12.2061 41.196 12.1483 41.3428 12.1483H42.3444V9.98187C42.3444 9.90959 42.3588 9.83803 42.3868 9.77128C42.4147 9.70453 42.4556 9.64389 42.5072 9.59283C42.5587 9.54177 42.6199 9.50129 42.6872 9.47369C42.7545 9.4461 42.8266 9.43193 42.8994 9.432H44.1674V7.2656C44.1674 7.11991 44.2258 6.98018 44.3295 6.87716C44.4333 6.77414 44.5741 6.71627 44.7209 6.71627H45.6112ZM56.3944 24.4229H48.6373V26.72H56.3944V24.4213V24.4229ZM56.3944 17.9163H48.6373V20.2133H56.3944V17.9163ZM56.3944 30.9253H48.6373V33.2219H56.3944V30.9253ZM56.3944 37.432H48.6373V39.7285H56.3944V37.4304V37.432ZM56.3944 43.9387H48.6373V46.2347H56.3944V43.9349V43.9387ZM56.3944 47.3339H48.0833C47.9366 47.3339 47.7958 47.276 47.692 47.173C47.5882 47.07 47.5299 46.9302 47.5299 46.7845V43.3851C47.5299 43.2394 47.5882 43.0997 47.692 42.9966C47.7958 42.8936 47.9366 42.8357 48.0833 42.8357H56.3944V40.8261H48.0833C47.9365 40.826 47.7957 40.768 47.692 40.6649C47.5882 40.5618 47.5299 40.422 47.5299 40.2763V36.8811C47.5298 36.8089 47.5441 36.7374 47.5719 36.6707C47.5997 36.604 47.6404 36.5434 47.6918 36.4923C47.7432 36.4412 47.8042 36.4007 47.8714 36.3731C47.9386 36.3454 48.0106 36.3312 48.0833 36.3312H56.3944V34.3216H48.0833C47.9365 34.3215 47.7957 34.2635 47.692 34.1604C47.5882 34.0573 47.5299 33.9175 47.5299 33.7717V30.3765C47.5299 30.2308 47.5882 30.091 47.692 29.9879C47.7957 29.8848 47.9365 29.8268 48.0833 29.8267H56.3944V27.8171H48.0833C47.9365 27.8169 47.7957 27.7589 47.692 27.6558C47.5882 27.5527 47.5299 27.4129 47.5299 27.2672V23.872C47.5299 23.7263 47.5882 23.5865 47.692 23.4834C47.7957 23.3803 47.9365 23.3223 48.0833 23.3221H56.3944V21.3125H48.0833C48.0106 21.3125 47.9386 21.2983 47.8714 21.2707C47.8042 21.243 47.7432 21.2025 47.6918 21.1514C47.6404 21.1004 47.5997 21.0398 47.5719 20.9731C47.5441 20.9063 47.5298 20.8349 47.5299 20.7627V17.3675C47.5299 17.2217 47.5882 17.0819 47.692 16.9788C47.7957 16.8757 47.9365 16.8177 48.0833 16.8176H56.3944V13.2475H41.8962V17.5643H45.435C45.5817 17.5643 45.7225 17.6221 45.8263 17.7252C45.9301 17.8282 45.9884 17.9679 45.9884 18.1136V50.9008H56.3944V47.3339Z" fill="#1D3D91"/>
</svg>
