<svg width="49" height="48" viewBox="0 0 49 48" fill="none" xmlns="http://www.w3.org/2000/svg">
<path d="M48.5729 29.9797L42.6338 17.6955C43.2937 14.3453 42.9384 5.51286 43.0399 1.95957C43.0399 1.50272 42.6338 1.1474 42.177 1.19816L38.2176 1.80729C34.1567 2.36566 29.9435 1.95957 25.9842 0.4875C25.5273 0.335216 24.6136 -0.121634 24.2583 0.0306494C19.9943 1.80729 15.3751 2.46719 10.8066 1.80729L6.8472 1.24892C6.39035 1.19816 5.98426 1.55348 5.98426 2.01034C6.03502 5.36057 5.73045 14.193 6.33959 17.391L0.45129 29.5737C-0.0563215 30.5381 0.400529 31.8072 1.36499 32.2132L4.66447 33.7868C5.62893 34.2944 6.89796 33.8376 7.30405 32.8731L7.65938 32.1625L8.97917 32.7716C9.43602 32.9747 9.74059 33.3808 9.79135 33.8884L9.89287 35.0559L8.87765 36.8325C7.71014 38.7107 9.28374 41.401 11.5172 41.198C10.8573 43.736 13.8522 45.8172 15.9842 44.2944C16.5426 45.665 18.3192 46.4264 19.6898 45.8172C20.2482 48.3045 23.8014 48.8122 25.0705 46.5787L25.7811 45.3096L27.8623 46.5279C29.5882 47.5939 31.974 46.1726 31.9232 44.1421C33.6491 44.4974 35.375 42.8731 35.1212 41.0965C36.7455 41.1472 38.1668 39.3706 37.71 37.797C39.4359 37.5939 40.5019 35.5127 39.6897 33.9899L41.5678 33.1777C41.9739 34.1929 43.2937 34.6498 44.2582 34.1929L47.5577 32.6193C48.6237 32.2132 49.0297 30.9442 48.5729 29.9797ZM7.50709 2.87328L10.6035 3.33013C15.3243 3.99002 20.0959 3.38089 24.5121 1.60425C28.9283 3.38089 33.7506 3.99002 38.4207 3.33013L41.5678 2.87328C41.5171 5.05601 41.6694 13.5331 41.4156 15.5636C40.8572 15.1067 40.1465 14.9544 39.4359 15.1575C39.5882 13.4824 39.5374 7.79711 39.5374 6.02047C39.5374 5.56362 39.1313 5.20829 38.6745 5.25905C33.9537 5.91895 29.2329 5.41134 24.7659 3.78698C24.6136 3.73622 24.4106 3.73622 24.2583 3.78698C19.7913 5.41134 15.0197 5.91895 10.3497 5.25905C9.89287 5.20829 9.48678 5.56362 9.48678 6.02047C9.48678 7.5433 9.43602 13.2793 9.53754 14.7006C8.87765 14.4976 8.11623 14.6499 7.55786 15.1575C7.40557 13.4824 7.50709 4.70068 7.50709 2.87328ZM35.7303 20.995C35.1212 21.2996 34.4613 21.7057 33.7506 21.4519L29.842 20.4366C28.0146 19.929 26.238 20.5889 24.7659 21.7057C23.9537 21.3503 22.4309 20.4366 21.5172 20.3351C20.502 20.0306 17.2532 20.8427 16.1365 20.995C15.8827 21.0458 15.5781 20.995 15.3243 20.8935L13.5984 20.0306L14.0045 19.2184C14.5629 18.2032 14.2076 16.8834 13.1416 16.3758L11.1111 15.4113C10.8573 13.5331 11.0096 8.76157 10.9589 6.83265C15.5274 7.34026 20.1466 6.78189 24.4613 5.25905C28.8268 6.83265 33.3953 7.34026 37.9638 6.83265C37.913 9.06614 38.0653 13.6854 37.7608 15.8681L35.8318 16.8326C35.3242 17.0864 34.9689 17.4925 34.8166 18.0001C34.4613 18.9138 35.375 20.1828 35.7303 20.995ZM7.15177 29.8782L6.03502 32.2132C5.9335 32.467 5.62893 32.5686 5.37513 32.467L2.07565 30.8934C1.82184 30.7919 1.72032 30.4874 1.82184 30.2336C2.22793 29.3199 8.26851 16.8834 8.47156 16.3758C8.57308 16.1219 8.87765 16.0204 9.13145 16.1219L12.4309 17.6955C12.6847 17.7971 12.7863 18.1016 12.6847 18.3554C12.2786 19.2691 7.71014 28.7615 7.15177 29.8782ZM10.7558 39.5736C10.0959 39.2183 9.84211 38.3046 10.2482 37.6447L11.4157 35.5635L12.3294 33.9899C12.5325 33.6346 12.837 33.3808 13.2431 33.33C14.4106 33.0254 15.4258 34.396 14.7659 35.4112C14.5629 35.7158 14.2076 36.3757 14.0553 36.6802L12.6847 39.066C12.2786 39.7259 11.4157 39.9289 10.7558 39.5736ZM16.1365 41.7056C16.035 41.9086 15.7304 42.467 15.6289 42.67C14.6644 44.2944 12.2786 42.8731 13.1416 41.2487C13.9538 39.9289 15.1213 37.6954 15.9842 36.4264C16.9487 35.462 18.6746 36.3757 18.37 37.7462C18.2685 38.1015 17.7609 38.863 17.6086 39.1675C17.6086 39.1168 16.1365 41.7056 16.1365 41.7056ZM19.8928 43.8376C18.9791 45.3096 16.7456 44.2436 17.3548 42.6193L18.9284 39.8782C19.1314 39.5736 19.5375 38.6092 19.8421 38.4061C20.7558 37.6447 22.1771 38.3046 22.1771 39.5229C22.1771 39.9289 21.9233 40.335 21.7202 40.6396C21.3649 41.3503 20.3497 43.1269 19.8928 43.8376ZM25.8826 42.264L23.8014 45.868C23.0908 47.137 21.1111 46.5787 21.1619 45.1573C21.1619 44.9035 21.2126 44.6497 21.3649 44.4467C21.4157 44.3959 23.6999 40.335 23.6492 40.5381C24.7659 39.3706 26.6948 40.7919 25.8826 42.264ZM30.2989 44.8528C29.9435 45.4112 29.2329 45.6142 28.6745 45.3096L26.5425 44.0406C26.8979 43.4315 27.507 42.5685 27.507 41.8579C27.5578 41.9086 28.8776 42.6193 28.8776 42.67L29.7913 43.2284C30.4004 43.533 30.6034 44.2436 30.2989 44.8528ZM38.3191 35.8173C38.0146 36.3757 37.2531 36.5787 36.6948 36.2741C35.4765 35.6142 31.4664 33.2285 30.1973 32.4163C29.3344 31.9087 28.573 33.1777 29.4359 33.6853L34.2582 36.5787L35.7303 37.4416C37.0501 38.2538 35.9334 40.2843 34.512 39.5229C34.309 39.4213 28.3192 35.7158 27.9639 35.462C27.1009 34.9543 26.3395 36.1726 27.1517 36.731L33.04 40.3858C34.4613 41.198 33.1923 43.3299 31.8217 42.5685L29.6897 41.2995L27.0501 39.7767C26.3395 38.7107 24.8167 38.2538 23.6492 38.7614C23.2431 37.1371 21.4664 36.1726 19.8928 36.731C19.5883 35.2589 18.0147 34.1929 16.4918 34.4975C16.2888 31.7564 12.7863 30.7412 11.1619 32.9747C10.9081 32.264 10.3497 31.6549 9.63906 31.3503L8.37004 30.7919C9.43602 28.5584 11.8218 23.5838 12.9385 21.2996C13.903 21.7564 15.2736 22.7209 16.3903 22.4163L20.2989 21.7564C20.908 21.6549 21.5679 21.7564 22.1263 22.0102L23.3446 22.6194L17.7609 26.3757C17.2025 26.731 16.8979 27.3402 16.8472 28.0001C16.7964 28.66 17.101 29.2691 17.6086 29.6752L18.3192 30.2336C19.2329 30.995 20.502 31.2488 21.6695 30.9442L28.1669 29.1676C28.6745 29.0153 29.1821 29.1168 29.5882 29.3706L37.8623 34.0406C37.913 34.1422 37.9638 34.1929 38.0653 34.2944C38.5222 34.6498 38.6237 35.3097 38.3191 35.8173ZM38.8267 32.8731L30.3496 28.1016C29.842 27.8478 29.2836 27.6447 28.7253 27.6447C28.2684 27.4925 21.8725 29.4214 21.3141 29.5229C20.6035 29.7259 19.8421 29.5737 19.2837 29.1168L18.573 28.5584C18.3192 28.3554 18.3192 27.8985 18.6238 27.6955C19.436 27.1371 25.8319 22.8732 26.441 22.4671C27.3547 21.858 28.4715 21.6549 29.4867 21.9595L33.3953 22.9747C34.4105 23.2793 35.4765 22.9239 36.3902 22.4163L41.0095 31.9594L38.8267 32.8731ZM47.2531 30.995C47.2023 31.1473 47.1008 31.2488 46.9993 31.2995L43.6998 32.8731C43.0907 33.1269 42.8876 32.3148 42.6846 31.9087C42.5323 31.7056 36.6948 19.5737 36.3394 18.8123C36.2379 18.5585 36.3394 18.2539 36.5933 18.1524L39.8927 16.5788C40.0958 16.4773 40.2988 16.528 40.4511 16.6803C40.5526 16.6803 41.1618 18.1016 41.2125 18.2032L47.2531 30.6904C47.2531 30.7412 47.2531 30.8935 47.2531 30.995Z" fill="url(#paint0_linear_5298_1339)"/>
<defs>
<linearGradient id="paint0_linear_5298_1339" x1="24.5" y1="0" x2="24.5001" y2="20.0573" gradientUnits="userSpaceOnUse">
<stop stop-color="#4184C5"/>
<stop offset="0.296399" stop-color="#4184C5"/>
<stop offset="1" stop-color="#17171C"/>
</linearGradient>
</defs>
</svg>
