<svg width="32" height="32" viewBox="0 0 32 32" fill="none" xmlns="http://www.w3.org/2000/svg">
<rect width="32" height="32" rx="4" fill="#FAFBFB"/>
<path d="M19.6654 17.588C19.4664 17.4887 18.4878 17.01 18.3056 16.9433C18.1227 16.8773 17.9901 16.8447 17.8568 17.0433C17.7248 17.2413 17.343 17.6873 17.2271 17.8193C17.1113 17.952 16.9947 17.968 16.7958 17.8693C16.5968 17.7693 15.9551 17.5607 15.1948 16.886C14.6034 16.3607 14.2035 15.712 14.0876 15.5133C13.9717 15.3153 14.0755 15.208 14.1746 15.1093C14.2644 15.0207 14.3743 14.878 14.4734 14.7627C14.5732 14.6467 14.606 14.564 14.673 14.4314C14.7393 14.2994 14.7065 14.184 14.6563 14.0847C14.606 13.9854 14.2081 13.01 14.0427 12.6134C13.8806 12.2274 13.7165 12.28 13.5946 12.2734C13.4787 12.268 13.346 12.2667 13.2127 12.2667C13.0801 12.2667 12.8644 12.316 12.6822 12.5147C12.5 12.7127 11.9856 13.192 11.9856 14.1674C11.9856 15.142 12.699 16.084 12.7981 16.2167C12.8979 16.3487 14.2021 18.35 16.1989 19.208C16.6738 19.412 17.0443 19.534 17.3336 19.6247C17.8106 19.776 18.2446 19.7547 18.5869 19.7033C18.9694 19.6467 19.7645 19.224 19.9306 18.7613C20.0968 18.2987 20.0968 17.902 20.0465 17.8193C19.997 17.7367 19.8643 17.6873 19.6647 17.588M16.0335 22.5233H16.0308C14.845 22.5234 13.681 22.2061 12.6608 21.6047L12.419 21.462L9.91308 22.1167L10.5816 19.6847L10.4242 19.4353C9.76132 18.3849 9.41066 17.1691 9.41271 15.9287C9.41338 12.2954 12.3841 9.33936 16.0362 9.33936C17.8045 9.33936 19.4671 10.026 20.717 11.2714C21.3338 11.8824 21.8226 12.6092 22.1552 13.4095C22.4878 14.2099 22.6577 15.0679 22.6549 15.934C22.6529 19.5673 19.6828 22.5233 16.0335 22.5233ZM21.6689 10.3254C20.9309 9.58597 20.0527 8.99972 19.0854 8.60056C18.118 8.2014 17.0807 7.99728 16.0335 8.00003C11.6426 8.00003 8.06899 11.5567 8.06698 15.928C8.06698 17.3253 8.43339 18.6893 9.1307 19.8913L8 24L12.2234 22.8973C13.3913 23.5306 14.7001 23.8625 16.0301 23.8627H16.0335C20.4236 23.8627 23.998 20.306 24 15.934C24.0032 14.8922 23.7988 13.8601 23.3987 12.8974C22.9986 11.9347 22.4107 11.0605 21.6689 10.3254Z" fill="#29306C"/>
</svg>
