<svg width="32" height="32" viewBox="0 0 32 32" fill="none" xmlns="http://www.w3.org/2000/svg">
<rect width="32" height="32" rx="4" fill="#FAFBFB"/>
<path d="M22.7116 12.5338C22.5502 11.9341 22.0774 11.4613 21.4777 11.2998C20.3822 11 16 11 16 11C16 11 11.6178 11 10.5222 11.2883C9.9341 11.4498 9.44975 11.9341 9.2883 12.5338C9 13.6293 9 15.9011 9 15.9011C9 15.9011 9 18.1845 9.2883 19.2685C9.44975 19.8682 9.92257 20.341 10.5222 20.5024C11.6293 20.8023 16 20.8023 16 20.8023C16 20.8023 20.3822 20.8023 21.4777 20.514C22.0774 20.3525 22.5502 19.8797 22.7116 19.28C22.9999 18.1845 22.9999 15.9127 22.9999 15.9127C22.9999 15.9127 23.0115 13.6293 22.7116 12.5338Z" fill="#29306C"/>
<path d="M14 13V18.5969L18.8588 15.7985L14 13Z" fill="#FAFBFB"/>
</svg>
